<svg id="Layer_1" data-name="Layer 1" xmlns="http://www.w3.org/2000/svg" viewBox="0 0 816 199"><defs><style>.cls-1{fill:#b88e75;}</style></defs><title>Footer Logo</title><path class="cls-1" d="M6.67,155.83a3.25,3.25,0,0,0,.18,2.79,2,2,0,0,1-.18,2.44q.9.36.9,1.08a1.47,1.47,0,0,0,.36,1.08,3.79,3.79,0,0,0,.9-.09,1,1,0,0,1,.72.09q-.9.9-.54,1.62a1.87,1.87,0,0,1-.72-.09,1.25,1.25,0,0,0-.54-.09.52.52,0,0,0-.36.18q-.18.18.18.36a7.26,7.26,0,0,1-3.24-1.35C3.48,163.19,2.7,162.56,2,162a4.8,4.8,0,0,0-.63-1.62l-1-1.63a1.72,1.72,0,0,0,.36-1.8L0,155.11q.9-5.42,1.71-10.55a79.28,79.28,0,0,1,2.8-11.44c.47-1.93,1.08-4,1.8-6.13s1.44-4.45,2.16-6.85A3.68,3.68,0,0,0,8.65,119a3.14,3.14,0,0,1,.54-1.53l.54-.55c.12-.11.06-.36-.18-.72h.54a.42.42,0,0,0-.27-.45.42.42,0,0,1-.27-.45L16,94q0-.36.45-.18t.63-.18q.36-.36-.09-.27t-.45-.27a54.35,54.35,0,0,1,2.89-9q2-4.87,3.42-9c.36-.73.69-1.47,1-2.26s.57-1.59.82-2.43l.36-.36h-.18a60.76,60.76,0,0,1,3.06-8.74q2-4.6,2.7-6.76a50,50,0,0,1,3.61-7.21,1.25,1.25,0,0,0,.09-.82,4,4,0,0,1-.09-.81.16.16,0,0,1,.18-.18q.36,0,.36-.18a12.74,12.74,0,0,0,1.08-3.42,5.57,5.57,0,0,0,1.53-3.34,5.08,5.08,0,0,1,2.26-3.51l.54-2.17a7.26,7.26,0,0,1,.54-1.44,12,12,0,0,0,1.35-3,12.19,12.19,0,0,1,1.35-3,23.74,23.74,0,0,1,2.16-4.05,10.44,10.44,0,0,0,1.63-3.88,1,1,0,0,0,.36-.72v-.72a12,12,0,0,1,2.16-4.5,10.17,10.17,0,0,0,2-4.69l-.54.36a2.64,2.64,0,0,1,.18-1,3.2,3.2,0,0,0,.18-1.17c0-.12.18-.36.54-.73.84-.72,1.6-1.37,2.26-2a19.8,19.8,0,0,0,1.89-2,1.11,1.11,0,0,1,.63.18,1.11,1.11,0,0,0,.63.18,11.55,11.55,0,0,0,2.71,1.44,21,21,0,0,0,3.24.9h.18l.36.36a5.63,5.63,0,0,1,.27.63,1.71,1.71,0,0,0,.45.64,6.36,6.36,0,0,1-.36,4.14q-.36,1.46-.54,2.61a9,9,0,0,1-.9,2.62,7.67,7.67,0,0,1-1.53,2.52A5.66,5.66,0,0,0,60,19.2a4.39,4.39,0,0,0,.09,1A1.37,1.37,0,0,1,60,21a8.2,8.2,0,0,1-1.36,2.79c-.66.9-1.29,1.84-1.89,2.8a24.3,24.3,0,0,0-.9,3,13.58,13.58,0,0,1-1.08,3c-.61,1-1.15,1.78-1.62,2.44s-1.15,1.47-2,2.43L40.38,62.82q.18.54-.27.72t.09.54a.73.73,0,0,1-.72.36A3,3,0,0,1,39,66.15a10.27,10.27,0,0,1-1,1.17c-.12.25,0,.46.27.64s.33.39.09.63q-1.08.36-1.26,2.52a6.39,6.39,0,0,1-1.62,3.79,1.4,1.4,0,0,1-.9-.28c-.24-.18-.24-.38,0-.63q-.36-.36-.54-.09t-.72.09a.41.41,0,0,0-.09.45c.06.18,0,.34-.27.46h.54a2.56,2.56,0,0,1-.54.45q-.18.09.36.63a3.52,3.52,0,0,1,.72-.27q.36-.09.36-.81a.81.81,0,0,1,.45.08c.06.07.21.1.45.1q-.18.9-.36,1.53a4.28,4.28,0,0,0-.18,1.17,1.8,1.8,0,0,0-1,.54,1.14,1.14,0,0,1-1.35.18,1.79,1.79,0,0,0,.9-2.34q-.54-.18-.63.09t-.45.09c.36.24.47.42.36.54s-.07.42.18.9a1.86,1.86,0,0,1-1.09.45,1.35,1.35,0,0,0-1.08.81q0,.18.36.09a.75.75,0,0,1,.72.27,1.49,1.49,0,0,0,.91-.54c-.13.24-.27.54-.45.9a3.23,3.23,0,0,0-.28,1.44c.37,0,.48-.18.37-.54.6.36.66.7.18,1a1.84,1.84,0,0,1-1.45.27q0,.36.36.27a.54.54,0,0,1,.54.09q-.18.36-1.08.36.18.9-1.08,2A3.09,3.09,0,0,0,28.48,87q0,.18.45-.27a1.38,1.38,0,0,0,.45-1,.64.64,0,0,1,.54-.09,6.62,6.62,0,0,0,.72.27,8.08,8.08,0,0,0,.9-1.17,6.64,6.64,0,0,0,.73-1.35l.36.72-.91,1.44a1.84,1.84,0,0,0-.63,1.53q.09.81-1.17,1.17a4.56,4.56,0,0,0,.72-2.16q-.72.18-.81.72a1.61,1.61,0,0,1-.45.9,1.73,1.73,0,0,0-1.26.54.74.74,0,0,0,.18.55.73.73,0,0,1,.18.54c.48.24.69.21.63-.1s.09-.32.45-.08a1.09,1.09,0,0,1-1,1,12.62,12.62,0,0,1-1.35.09q-.54.36,0,.27t.18.27q-.72-.18-.81,0t-.45-.18L25.06,92a1.08,1.08,0,0,0,1.08-.18,1.07,1.07,0,0,1,1.08-.18,3.79,3.79,0,0,0-1.08,1.62q-.72-.18-.27-.36t.09-.54c-.25-.12-.39-.12-.45,0s-.22.12-.45,0a.56.56,0,0,0,0,.63c.11.18,0,.27-.36.27a.31.31,0,0,0,.36.36h.72a1.13,1.13,0,0,1-.63,1.17,2,2,0,0,0-1,1.17l.55.28a1.9,1.9,0,0,0,.72.08c-.25.13-.58.28-1,.46s-.63.63-.63,1.35q-.36.36,0,.36a.32.32,0,0,1,.36.36,8.91,8.91,0,0,0-1.8,3.24,12.16,12.16,0,0,1-1.44,3.25q0,.18.72.18a15.32,15.32,0,0,0-2.07,4.87,16.87,16.87,0,0,1-2.44,5.4c0,.25.15.3.45.18a1,1,0,0,1,.82,0,9.08,9.08,0,0,0-1.09,1.54q-.72,1.17-.36,1.53a1.75,1.75,0,0,0-.72,1.08,6.29,6.29,0,0,0-.18,1.53,6.29,6.29,0,0,1-.18,1.53,1.61,1.61,0,0,1-.9,1.09l-.27.27a1.16,1.16,0,0,1,.63-.1,2.12,2.12,0,0,0-.81,1.63,2.09,2.09,0,0,1-.81,1.62q-.18.36.27.63a4.18,4.18,0,0,1,.81.63q-.72-.18-.81.09t.45.27a1.73,1.73,0,0,0-1.08,1.44,21,21,0,0,1-.54,2.35q0,.36.18.18a.52.52,0,0,1,.36-.18q-.54.54.18.54a1,1,0,0,0-.36.72q0,.36-.9.18,0,.36.27.36a.61.61,0,0,1,.45.18,3.44,3.44,0,0,0-1.44,2,14.7,14.7,0,0,1-.72,2c-.61-.13-.73-.27-.37-.45s.42-.34.19-.46c-.49.12-.76.33-.82.64s-.27.38-.63.27c0-.13.12-.18.36-.18q0-.37-.27-.27a.45.45,0,0,1-.45-.09A2.47,2.47,0,0,0,9,137.26q-.36,0-.27.36a3,3,0,0,1,.09.72,3,3,0,0,0-.72.09.43.43,0,0,0-.36.46.51.51,0,0,0,.72-.36q.54.54.36.81a.93.93,0,0,0,0,.81,2.17,2.17,0,0,0,1.35-.09,2.94,2.94,0,0,1,1.9.09,4,4,0,0,0-.72,1.08c-.25.48-.79.6-1.63.36a2.88,2.88,0,0,1,0,1.44q-.18.54-.54,1.44.36.36.54,0a.36.36,0,0,1,.54-.18q.9.36.18.81c-.48.3-.42.64.19,1a2.08,2.08,0,0,0-1.45.09,1,1,0,0,0-.36.81v1.17a1.34,1.34,0,0,1-.36,1q-.54.18-.27-.27t-.45-.45l-.36.72q-.18.36-.72,0-.18.36,0,.36t0,.18q.36.36.54.09t.36-.09q-.18.54-.45.45l-.81-.27a10.58,10.58,0,0,0,.36,2.52c.24,1,.48,1.39.72,1.27Zm0-9a1,1,0,0,0,.18-.72,1.66,1.66,0,0,0,.18-.72q-.36.35-.36.54l-.54.72c0,.11-.12.3-.36.54a.52.52,0,0,0-.36.18l-.18.36H6.49l.36.36a.52.52,0,0,0-.18-.36Zm.18,1.26a.52.52,0,0,0-.18-.36v-.9a1,1,0,0,0,.18-.72,1.66,1.66,0,0,0,.18-.72q-.36.35-.36.54l-.54.72c0,.11-.12.3-.36.54a.52.52,0,0,0-.36.18l-.18.36H6.49Zm.54-12.8q-.36,0-.36-.09t-.18-.09H7a.73.73,0,0,0,.36-.72.16.16,0,0,1-.18-.18q-.54,0-.54.72H6.49l-.36.36a.73.73,0,0,0,.72.36Q7.39,135.64,7.39,135.28Zm0,0q-.36,0-.36-.09t-.18-.09H7a.73.73,0,0,0,.36-.72.16.16,0,0,1-.18-.18q-.54,0-.54.72H6.49l-.36.36a.73.73,0,0,0,.72.36Q7.39,135.64,7.39,135.28Zm-1.08-2h.36a.52.52,0,0,0,.36-.18q.36-.18.36-.45a1,1,0,0,1,.36-.63H7.39Zm0,0h.36a.52.52,0,0,0,.36-.18q.36-.18.36-.45a1,1,0,0,1,.36-.63H7.39Zm.9,8.83a.82.82,0,0,1-.45.45.42.42,0,0,0-.27.45q.36.36.54,0t.36,0l-.18.18v.36l-.54.54H6.49v.36q0,.18-.09.18t-.09.18q0,.18.72.18v-.18l-.36-.36q.9.18.81-.63a4.31,4.31,0,0,1,.09-1.53q-.18,0-.18-.09T7.21,142.13Zm0,0a.82.82,0,0,1-.45.45.42.42,0,0,0-.27.45q.36.36.54,0t.36,0l-.18.18v.36l-.54.54H6.49v.36q0,.18-.09.18t-.09.18q0,.18.72.18v-.18l-.36-.36q.9.18.81-.63a4.31,4.31,0,0,1,.09-1.53q-.18,0-.18-.09T7.21,142.13Zm0-13.88a2.26,2.26,0,0,0-.27,1.17,2,2,0,0,1,.09.63l.18-.18a.52.52,0,0,0,.18-.36,1.38,1.38,0,0,1,.18-.54v-.18Q7.57,128.61,7.21,128.25Zm0,0a2.26,2.26,0,0,0-.27,1.17,2,2,0,0,1,.09.63l.18-.18a.52.52,0,0,0,.18-.36,1.38,1.38,0,0,1,.18-.54v-.18Q7.57,128.61,7.21,128.25ZM8.11,140a.52.52,0,0,1-.18-.36q0-.18.09-.18c.06,0,.09-.07.09-.18a.37.37,0,0,1-.27-.09.33.33,0,0,0-.27-.09c.12,0,.18.11.18.36s0,.18-.09.18-.09.06-.09.18l-.18.18v.18h.9Zm0,0a.52.52,0,0,1-.18-.36q0-.18.09-.18c.06,0,.09-.07.09-.18a.37.37,0,0,1-.27-.09.33.33,0,0,0-.27-.09c.12,0,.18.11.18.36s0,.18-.09.18-.09.06-.09.18l-.18.18v.18h.9Zm-.72,7.75q.18,0,.63-.81a1.73,1.73,0,0,0,.27-1.36v-.17H7.75a3.08,3.08,0,0,1-.09.72,3,3,0,0,0-.09.72A2,2,0,0,0,7.39,147.72Zm.27-1.62a3,3,0,0,0-.09.72,2,2,0,0,0-.18.9q.18,0,.63-.81a1.73,1.73,0,0,0,.27-1.36v-.17H7.75A3.08,3.08,0,0,1,7.66,146.1Zm1-11.54V134q0-.36-.36,0H8.11l-.18.18H7.75q-.36.36,0,.54h.9l.18-.18Zm0,.18.18-.18H8.65V134q0-.36-.36,0H8.11l-.18.18H7.75q-.36.36,0,.54Zm-.18-1.8a3,3,0,0,1,.36-.9l.18-.36a.48.48,0,0,0-.36.18l-.18.18c-.36,0-.54.11-.54.36l-.18.18.18.18a.37.37,0,0,1,.27.09A.37.37,0,0,0,8.47,132.94Zm0,0a3,3,0,0,1,.36-.9l.18-.36a.48.48,0,0,0-.36.18l-.18.18c-.36,0-.54.11-.54.36l-.18.18.18.18a.37.37,0,0,1,.27.09A.37.37,0,0,0,8.47,132.94Zm0,16.58q.54.18.09.81t-.81.45a.61.61,0,0,1,.27-.54A1.35,1.35,0,0,0,8.47,149.52Zm.72,3.25c.24.23,0,.42-.63.54s-.69-.07-.09-.54a.65.65,0,0,0,.45.18C9.1,153,9.19,152.88,9.19,152.77Zm-.36-9.38q0-.18.09-.18T9,143H8.47a.32.32,0,0,0-.36.36.16.16,0,0,1,.18.18v.18l.36.18a.52.52,0,0,0,.18-.36Zm0,0q0-.18.09-.18T9,143H8.47a.32.32,0,0,0-.36.36.16.16,0,0,1,.18.18v.18l.36.18a.52.52,0,0,0,.18-.36Zm.54-12.62H8.83q-.36.36-.36.54l.18.19a.41.41,0,0,0,.27-.09.33.33,0,0,1,.27-.1c0-.12,0-.17.09-.17s.09-.07.09-.19Zm-.54,0q-.36.36-.36.54l.18.19a.41.41,0,0,0,.27-.09.33.33,0,0,1,.27-.1c0-.12,0-.17.09-.17s.09-.07.09-.19v-.18ZM9,123.56a.48.48,0,0,0,.54-.54.73.73,0,0,0,.18-.54l-.18-.18a.73.73,0,0,0-.18.54H9.19q-.36.38-.36.54v.18Zm0,0a.48.48,0,0,0,.54-.54.73.73,0,0,0,.18-.54l-.18-.18a.73.73,0,0,0-.18.54H9.19q-.36.38-.36.54v.18Zm.72,6.67a1.28,1.28,0,0,1,.18-1.08v-.36a.32.32,0,0,0-.36-.36l-.36.36a1.11,1.11,0,0,0,.36,1.26Zm0,0a1.28,1.28,0,0,1,.18-1.08v-.36a.32.32,0,0,0-.36-.36l-.36.36a1.11,1.11,0,0,0,.36,1.26Zm-.18,5.59.36-.18.18-.18-.18-.18H9.55l-.18.36v.18l.18.18Zm0,0,.36-.18.18-.18-.18-.18H9.55l-.18.36v.18l.18.18Zm.72,3.43c.37,0,.42.09.18.27a1.46,1.46,0,0,1-.9.27Q9.55,139.25,10.27,139.25Zm2-27.76-.18.18-.36.72v1.26l.18.18c-.25,0-.36,0-.36.09s-.07.09-.18.09H11l-.18-.18q-.37.36-.18.36v.18h.54v.18h-.73l-.72.36.18.18a1.09,1.09,0,0,0,.73-.18,2.81,2.81,0,0,0,1.08-.36h.18l.36-.18h.18v-.18a.82.82,0,0,0,.09-.63.82.82,0,0,1,.09-.63q0-.18.09-.18t.09-.18a.37.37,0,0,0-.27.09.37.37,0,0,1-.27.09.16.16,0,0,1-.18-.18H11.9v-.18h.18a1,1,0,0,0,.18-.72l.18-.18Zm0,0-.18.18-.36.72v1.26l.18.18h0a.37.37,0,0,0-.27.09.4.4,0,0,1-.27.09H11l-.18-.18q-.37.36-.18.36v.18h.54v.18h-.73l-.72.36.18.18a1.09,1.09,0,0,0,.73-.18,2.81,2.81,0,0,0,1.08-.36h.18l.36-.18h.18v-.18a.82.82,0,0,0,.09-.63.82.82,0,0,1,.09-.63q0-.18.09-.18t.09-.18a.37.37,0,0,0-.27.09.37.37,0,0,1-.27.09.16.16,0,0,1-.18-.18H11.9v-.18h.18a1,1,0,0,0,.18-.72l.18-.18Zm-.54,16.76a.16.16,0,0,0,.18-.18l.18-.18h.36v-2l-.36-.54v.18a.52.52,0,0,1-.18.36v.36a.73.73,0,0,0-.18.54.37.37,0,0,1-.09.27.33.33,0,0,0-.09.27v1.08ZM13,109.32a2.54,2.54,0,0,1-.72-.09c-.24,0-.3,0-.18.27a.16.16,0,0,0,.18.18c.24.13.42.09.54-.09s.3-.2.54-.09a3.28,3.28,0,0,1,.36-.9l.36-1.44.36-1.26.72-1.62.18-.18a1.76,1.76,0,0,0-1.26.36l-.54.54a.16.16,0,0,0-.18.18l-.36.54a.37.37,0,0,1-.09.27.37.37,0,0,0-.09.27v.18l.9.54v.18a.32.32,0,0,0-.36.36.41.41,0,0,0-.09.45.82.82,0,0,1-.09.63V109A.5.5,0,0,1,13,109.32Zm-.18,12.26a.45.45,0,0,0,0-.72l-.18-.18q-.36.36-.18.54v.54a.52.52,0,0,0,.36.18Zm0,0a.45.45,0,0,0,0-.72l-.18-.18q-.36.36-.18.54v.54a.52.52,0,0,0,.36.18Zm1.62-6.67a.52.52,0,0,0-.18.36,2.76,2.76,0,0,0-.36,1.08.16.16,0,0,0-.18.18v.18a.48.48,0,0,1-.18.36v.37a.52.52,0,0,1-.18.36v.36L12.8,120v.18q0-.18.09-.18t.09-.18l.9-1.62V118a.52.52,0,0,1,.18-.36v-.18l.36-.91v-.18a.83.83,0,0,1,.09-.36.8.8,0,0,0,.09-.36v-.9Zm0,0a.52.52,0,0,0-.18.36,2.76,2.76,0,0,0-.36,1.08.16.16,0,0,0-.18.18v.18a.48.48,0,0,1-.18.36v.37a.52.52,0,0,1-.18.36v.36L12.8,120v.18q0-.18.09-.18t.09-.18l.9-1.62V118a.52.52,0,0,1,.18-.36v-.18l.36-.91v-.18a.83.83,0,0,1,.09-.36.8.8,0,0,0,.09-.36v-.9Zm-.9-3.24-.18.18a.73.73,0,0,0-.18.54.78.78,0,0,0,.18,1.08l-.18-.36.18-.18a.37.37,0,0,1,.09-.27.37.37,0,0,0,.09-.27l.18-.18a.59.59,0,0,0,.18-.72v-.18Zm0,0-.18.18a.73.73,0,0,0-.18.54.78.78,0,0,0,.18,1.08l-.18-.36.18-.18a.37.37,0,0,1,.09-.27.37.37,0,0,0,.09-.27l.18-.18a.59.59,0,0,0,.18-.72v-.18Zm-.36,21.27q0-.36.18-.45a1,1,0,0,0,.36-.45,3,3,0,0,1-.09.72Q13.52,133.12,13.16,132.94Zm1.08,6.13a1,1,0,0,0-.18.72q-.18,0-.18-.54h-.36Q13.52,139.07,14.24,139.07Zm-.18-36.78a.16.16,0,0,0-.18.18V103q0,.36.18.36h.18v-.19l.18-.17h-.18v-.55Zm0,0a.16.16,0,0,0-.18.18V103q0,.36.18.36h.18v-.19l.18-.17h-.18v-.55Zm2.7,8.48a.52.52,0,0,0-.36.18l-.18.18a.32.32,0,0,0-.36.36l-.36.36q-.36.72-.72,1.53a4.43,4.43,0,0,1-.9,1.35q.18.18.9-.18H15v-.18l.72-1.8a.73.73,0,0,0,.18-.54q.36-.36.36-.54l.36-.54Zm-2.88,11.17.36-2,.18-.36a3.52,3.52,0,0,0,.27-.72,3.1,3.1,0,0,1,.45-.9l.18-.18.18-.18v.18q0,.18-.09.09t-.09.09v.54q0,.18-.09.18t-.09.18v.54l-.36,1.08A2.71,2.71,0,0,1,13.88,121.94Zm0,0,.36-2,.18-.36a3.52,3.52,0,0,0,.27-.72,3.1,3.1,0,0,1,.45-.9l.18-.18.18-.18v.18q0,.18-.09.09t-.09.09v.54q0,.18-.09.18t-.09.18v.54l-.36,1.08A2.71,2.71,0,0,1,13.88,121.94ZM15,134.38q-.9-.36-.9-.54a.83.83,0,0,1,1-.09Q15.68,134,15,134.38Zm-.18-32.81-.18.18v.18l.18.18q.18,0,.72-.54v-.18q0-.18.09-.18t.09-.18a.73.73,0,0,0-.18-.54l-.36.36h-.36Zm.36-.72h-.36v.72l-.18.18v.18l.18.18q.18,0,.72-.54v-.18q0-.18.09-.18t.09-.18a.73.73,0,0,0-.18-.54Zm.72,16a.48.48,0,0,1-.36-.18h-.18a.16.16,0,0,0-.18.18v.55h.54v-.18h.18Zm0,0a.48.48,0,0,1-.36-.18h-.18a.16.16,0,0,0-.18.18v.55h.54v-.18h.18Zm0-17.48q0,.18-.36.54v.36h.18l.18-.18a.52.52,0,0,0,.18-.36v-.18Zm0,0q0,.18-.36.54v.36h.18l.18-.18a.52.52,0,0,0,.18-.36v-.18Zm.72,9.37q-.18,0-.18.09c0,.07-.06.09-.18.09v.18l-.36.9v.37a1,1,0,0,0,.72.18l.18-.18h-.18v-.19a.56.56,0,0,1,.18-.36v-.18l.18-.36V109l-.18-.18v-.18Zm0,0q-.18,0-.18.09c0,.07-.06.09-.18.09v.18l-.36.9v.37a1,1,0,0,0,.72.18l.18-.18h-.18v-.19a.56.56,0,0,1,.18-.36v-.18l.18-.36V109l-.18-.18v-.18Zm.72-13.16-.18.18h-.18c0,.13,0,.18-.09.18s-.09.07-.09.19.06.17.18.17l.18-.17L17.3,96l.18-.36v-.36H17.3Zm0,0-.18.18h-.18c0,.13,0,.18-.09.18s-.09.07-.09.19.06.17.18.17l.18-.17L17.3,96l.18-.36v-.36H17.3Zm.36,15.15c.12-.24.28-.51.46-.82a.61.61,0,0,0-.09-.81l-.18-.18L17.48,110v.73l.18.18Zm0,0c.12-.24.28-.51.46-.82a.61.61,0,0,0-.09-.81l-.18-.18L17.48,110v.73l.18.18Zm0-19.29c0-.12.06-.18.19-.18a.56.56,0,0,0,.36-.18.69.69,0,0,1,.18-.54q.36-.36,0-.9V89.5h-.18v.18a1.48,1.48,0,0,0-.18.72.41.41,0,0,1-.09.27.33.33,0,0,0-.09.27.5.5,0,0,0-.19.36Zm0,0c0-.12.06-.18.19-.18a.56.56,0,0,0,.36-.18.69.69,0,0,1,.18-.54q.36-.36,0-.9V89.5h-.18v.18a1.48,1.48,0,0,0-.18.72.41.41,0,0,1-.09.27.33.33,0,0,0-.09.27.5.5,0,0,0-.19.36Zm.55,21.45.18-.36-.18-.36L18,112a.16.16,0,0,0-.18-.18v1.08C18.08,113.17,18.21,113.17,18.21,112.93Zm-.36,0c.23.24.36.24.36,0l.18-.36-.18-.36L18,112a.16.16,0,0,0-.18-.18Zm2.34-.72q-.36-.18.27-.09a8.31,8.31,0,0,0,1.17.09A3.31,3.31,0,0,0,20,114.37a.85.85,0,0,1-.72-.9.88.88,0,0,0,.81-.45A.81.81,0,0,0,20.19,112.21Zm1.8-4.15a1,1,0,0,0-.72-.18q-.18-.54.36-.45T22,108.06Zm0-2.7a1,1,0,0,1,.72.36q-.54.54-.72.36.18-.36,0-.36T22,105.36Zm2.34-2.89a2.69,2.69,0,0,0-.54,1.36,2.17,2.17,0,0,1-1.08,1.53q-.72-.36-.36-.72.36,0,.27.09t.63-.27q0-.36-.54-.36-.18-.54.09-.72c.18-.12.15-.3-.09-.55q1.08.38,1.17-.09T24.33,102.47Zm-1.26-1.62a.81.81,0,0,0,.81-.09l1-.63q.16-.36-.18-.09c-.25.18-.43.15-.55-.09a2.06,2.06,0,0,0,.63-1.17,2.08,2.08,0,0,1,.64-1.17q.36.18.54,0t.54,0a.71.71,0,0,1-.09.45,2.08,2.08,0,0,0-.27.45c-.25,0-.27-.09-.09-.27S26.2,98,26,98q-.72.36-.72.9t.72.72a1.86,1.86,0,0,1-.63.45c-.18.06-.22.27-.09.63-.13.12-.43.12-.91,0a.78.78,0,0,1-.36.63q-.36.27.18.45,0,.18-1.26.18c.6-.11.87-.3.81-.54S23.43,101,23.07,100.85Zm.18,4.33q.72,0,.63.45t-.81.09q0-.36.09-.36T23.25,105.18Zm.9,2.52q.18-.18.09.9t-.63.9A3.47,3.47,0,0,1,24.15,107.7Zm1.63-2.52q-.18.36-.72.27a5.77,5.77,0,0,0-.91-.09.73.73,0,0,1,.73-.36A2,2,0,0,1,25.78,105.18Zm.54-2.71a.6.6,0,0,0-.27.72c.06.37-.16.43-.63.19a4.93,4.93,0,0,0,.27-.73Q25.78,102.31,26.32,102.47ZM26,96.34c.24,0,.3.22.18.64s-.3.51-.54.27q0-.36.18-.45C25.89,96.74,26,96.59,26,96.34Zm0,5.41c.48,0,.72.07.72.18s-.18.34-.54.27S25.71,102,26,101.75Zm.36-2.34a2,2,0,0,1,.63.09,2,2,0,0,0,.63.09,2,2,0,0,1-1.26.72q.36-.36,0-.54T26.32,99.41Zm1.44-3.07q-.9-.16-1,0c-.06.13-.27.07-.63-.17.24-.37.42-.42.54-.19s.42.31.9.19a1.55,1.55,0,0,0,.63-.64q.27-.44.63-.27ZM28.84,92q-.54,0-.18-.36-.54.18-.27.27t.09.45q-.9-.18-.9.27a2.8,2.8,0,0,1-.36,1.17,1,1,0,0,0,.45-.36,1.41,1.41,0,0,1,.27-.36q.36.36.54.18t.54,0q0,.18-.9.18,0,.36.18.36a1.14,1.14,0,0,0-.72.9.6.6,0,0,1-.18-.45Q27.4,94,27,94l-.36.36c-.24.25-.24.36,0,.36-.6.25-.66-.09-.18-1s1-1.41,1.44-1.53q-.36-.9.72-1.44a8,8,0,0,1,2-.72q.18.36-.36.54t-.36,1.08l-.45-.45q-.09-.09-1,.09a.58.58,0,0,0,.54.36Q29.38,91.66,28.84,92Zm-2-4c0,.49-.06.73-.18.73l-.36.36v.18l.36.36A.52.52,0,0,0,27,89.5l.18-.36v-.36c0-.12,0-.19.09-.19s.09,0,.09-.18l.18-.18H27Zm-.54,1.27.36.36A.52.52,0,0,0,27,89.5l.18-.36v-.36c0-.12,0-.19.09-.19s.09,0,.09-.18l.18-.18H27l-.18-.18c0,.49-.06.73-.18.73l-.36.36Zm1.26,8.29q.72.18.18.9a1.45,1.45,0,0,1-1.08.72,3.5,3.5,0,0,1,.36-.81Q27,98.51,27.58,97.61ZM30.1,81.93l-.36-.19-.18.19-.36.36v.36A.52.52,0,0,0,29,83a.52.52,0,0,0-.18.36v.18l-.54,1.26h.18a.52.52,0,0,1,.18.36l.72-.72a4.19,4.19,0,0,0,.72-1.08v-.18h.18V83l.18-.36a1.6,1.6,0,0,1,.18-.72Zm0,0a.5.5,0,0,1-.36-.19l-.18.19-.36.36v.36A.52.52,0,0,0,29,83a.52.52,0,0,0-.18.36v.18l-.54,1.26h.18a.52.52,0,0,1,.18.36l.72-.72a4.19,4.19,0,0,0,.72-1.08v-.18h.18V83l.18-.36a1.6,1.6,0,0,1,.18-.72ZM28.48,94.72a.83.83,0,0,0-.09-.36,1.25,1.25,0,0,1-.09-.54q.18.18.27,0T29,94q.36.36,0,.36A.58.58,0,0,0,28.48,94.72ZM29.56,92q0,.72-.9.54Q28.66,92,29.56,92Zm.72-12.08q-.18,0-.18.09t-.18.09v.36q0,.18-.09.18c-.06,0-.09.07-.09.18v.54h.36l.18-.18a.83.83,0,0,0-.09-.36.64.64,0,0,1,.09-.54l.18-.36Zm0,0q-.18,0-.18.09t-.18.09v.36q0,.18-.09.18c-.06,0-.09.07-.09.18v.54h.36l.18-.18a.83.83,0,0,0-.09-.36.64.64,0,0,1,.09-.54l.18-.36Zm-.54,9.38A.33.33,0,0,1,30.1,89a.56.56,0,0,0,.54-.36,1.62,1.62,0,0,1-.27.82Q30.1,89.86,29.74,89.32Zm1.62-9.74a.16.16,0,0,1-.18.18h-.36a.16.16,0,0,0-.18.18v.36h.54q.36-.36.36-.54Zm0,0a.16.16,0,0,1-.18.18h-.36a.16.16,0,0,0-.18.18v.36h.54q.36-.36.36-.54Zm.36,3.25A3.63,3.63,0,0,1,31,85.17a3.09,3.09,0,0,1,.18-1.26Zm1.63-3.43a2.82,2.82,0,0,0-.54.72.59.59,0,0,1-.54.36Q32.44,79.4,33.35,79.4Zm1.26-6q-.18,0-.09-.18t-.09-.18l-.18-.18h-.18l-.54.36v.36h1.08l.18-.18Zm0,.18.18-.18h-.18q-.18,0-.09-.18t-.09-.18l-.18-.18h-.18l-.54.36v.36Zm0-1.62-.18.18Zm.9,1.08-.36.36a.54.54,0,0,0-.18.36V74h.36l.36-.36v-.18l.18-.36Zm0,0-.36.36a.54.54,0,0,0-.18.36V74h.36l.36-.36v-.18l.18-.36Z"/><path class="cls-1" d="M51.37,121.4a4.08,4.08,0,0,1,1.35-2.25,10.77,10.77,0,0,0,1.9-2.08,5.81,5.81,0,0,1-.63.82,2.17,2.17,0,0,0-.46,1,5.31,5.31,0,0,0,3.07-3.43c.48.36.9.25,1.26-.36a2.92,2.92,0,0,1,1.44-1.26l.18-.18a.64.64,0,0,0,.36-.63,1.83,1.83,0,0,1,.36-1,.29.29,0,0,0,.27-.18c.06-.12.21-.18.46-.18A1.88,1.88,0,0,1,62,110.5a2.17,2.17,0,0,0,1.08-.82q.18,0,.72-.54a7.3,7.3,0,0,1,2.88-1.8,5.52,5.52,0,0,0,2.71-2A18.75,18.75,0,0,0,73.72,103a22.67,22.67,0,0,1,4.51-2.53,25.72,25.72,0,0,0,.54-7,17,17,0,0,0-1.62-6.85c-.48.48-1.06,1-1.71,1.62a24.44,24.44,0,0,0-2.08,2.17l-2.16,2-2.52,2.34-3.25,2.89a28.34,28.34,0,0,1-2.52,2.25,9.34,9.34,0,0,1-2.16,1.35,13.86,13.86,0,0,1-2.35,2.44c-.72.54-1.38.39-2-.46a4.1,4.1,0,0,0-.72-.81.32.32,0,0,0-.36.09c-.12.13-.21.18-.27.18s-.27-.23-.63-.72c-.49,0-.76.16-.81.45s-.1.27-.1-.09a3.67,3.67,0,0,0,.28-.81q.07-.45.45-.27a13,13,0,0,0,2-1.62A3.91,3.91,0,0,0,57,98.15a4.1,4.1,0,0,1,.9-1.62,4.66,4.66,0,0,1,1.62-.91,3.68,3.68,0,0,0,1.63-1.08,1.68,1.68,0,0,0,.45-.9,1.55,1.55,0,0,1,.45-.9q.72-.54,1.44-1a6.25,6.25,0,0,0,1.08-.81,30.38,30.38,0,0,1,3-3.52,23,23,0,0,0,2.44-2.79c1.08-2.4,2.58-3.76,4.5-4.06s3.37,0,4.33.81a6.12,6.12,0,0,1,3.7.91,7.44,7.44,0,0,1,2.07,2.88,6.14,6.14,0,0,1,.9,2.16c.24,1,.45,2,.63,3.16s.36,2.25.54,3.33a17,17,0,0,1,.27,2.71,14.22,14.22,0,0,0,3.79-.91l5.68-1.89q3-1,5.58-1.8a14.77,14.77,0,0,1,3.7-.81q.18,0,.36-.36.18.36.45.27a2,2,0,0,1,.63-.09q1.26-.36,2.7-.63a5.46,5.46,0,0,0,2.53-1.17,1,1,0,0,0,.9-.09c.24-.19.54-.39.9-.64V89c.24,0,.36-.29.36-.9a13.43,13.43,0,0,0,3.25,0l2.7-.36a2.53,2.53,0,0,0,1.53.27,3.73,3.73,0,0,0,1.17-.27l2.53.54c0,.61.24.72.72.36-.12.25-.15.4-.09.46a.37.37,0,0,1,.09.27.16.16,0,0,0,.18.18q0,.18.36.18a.16.16,0,0,0,.18-.18,2.05,2.05,0,0,0,.45.81.75.75,0,0,1,.09.81,3.29,3.29,0,0,1-1.62.27,2.85,2.85,0,0,0-1.26.09c0,.24.05.36.18.36a.54.54,0,0,1,.36.18,2.86,2.86,0,0,1-2,.36q-1.08-.18-1.44,1.08a30,30,0,0,0-3,.81,15.06,15.06,0,0,1-3.34.63,1.5,1.5,0,0,0-.54.9,1.78,1.78,0,0,0-1.71-.18,8.64,8.64,0,0,1-1.53.55,7.43,7.43,0,0,0-2.89.9A10.25,10.25,0,0,1,106,98.15l-14.24,5.59-3.07,1.53a6.7,6.7,0,0,0-2.52,2.07A8.51,8.51,0,0,1,85,111.13a7.49,7.49,0,0,0-1.17,3.24q-.91.18-1.08.72t-.54,1.26q.35,0,.27-.45t.27-.09c-.25.61-.54,1.3-.91,2.08A5.91,5.91,0,0,1,80.21,120q.72.18,0,.63t-.18,1a5,5,0,0,0-.9.63q-.54.45-.18.81c-.24,0-.36.16-.36.45s-.18.34-.54.09c.24.36.24.61,0,.73s-.24.3,0,.54a16.34,16.34,0,0,0-1.89,2.25c-.54.78-1.12,1.53-1.72,2.25q-.18.18.09.09t.09.27a64.18,64.18,0,0,1-5.13,5,18.87,18.87,0,0,1-6.4,3.51q.18-.36-.45-.18c-.43.12-.63.12-.63,0s.12-.33.36-.27a1,1,0,0,0,.72-.09q-.54-.9-1.26-.54a2.9,2.9,0,0,1-1.27.36q0,.54-.18.54v-.36a5.92,5.92,0,0,0-1.44.18,3.28,3.28,0,0,1-1.8-.18.16.16,0,0,0-.18.18q0,.18-.36.18a11.12,11.12,0,0,1-6-1.17,10.94,10.94,0,0,1-3.87-3.51c-.24.12-.39.09-.46-.09s-.2-.21-.45-.09q-.36-.36-.09-.54c.18-.12.21-.43.09-.9q-.36.7-.72.54t-.72.36c-.36-.36-.33-.61.09-.72s.45-.36.09-.72q-.18-.37-.27,0c-.06.23-.09.11-.09-.37a5,5,0,0,1,.45-1q.27-.45,1.17-.45c0-1.8.36-3,1.09-3.6a1.25,1.25,0,0,1-.09.54,1.25,1.25,0,0,0-.09.54,2.82,2.82,0,0,0,1.44-1.71,19.71,19.71,0,0,0,.9-3q.9.54,1.26-.18A.87.87,0,0,1,51.37,121.4ZM52.81,120q0-.9.18-.9Q53,120,52.81,120Zm13.7-3.07a.38.38,0,0,1-.09.28.37.37,0,0,0-.09.27,13.69,13.69,0,0,0-3.06,2.88,25.64,25.64,0,0,1-3.07,3.24q0,.73-.36.36c-.12.25-.15.37-.09.37s.09.06.09.17a2.22,2.22,0,0,0-1.44,1.27.58.58,0,0,0-.54.36A6.26,6.26,0,0,1,56,128.16a4,4,0,0,0-1.53,2.61q.36.18.36.45a.63.63,0,0,0,.18.46c1.44-.49,2.79-1,4.05-1.54s2.55-1.11,3.88-1.71q-.18-.72,0-.81t.18-.45A37.89,37.89,0,0,0,69.58,120a54.5,54.5,0,0,0,5-9l-.18-.18a46.74,46.74,0,0,0-3.78,3.06A28.6,28.6,0,0,1,66.51,116.89ZM63.09,138a2.73,2.73,0,0,0,1.44-1.26,1.12,1.12,0,0,1-.81.36Q63.27,137.08,63.09,138Z"/><path class="cls-1" d="M191.07,107.7a1.57,1.57,0,0,0-1.62.81c-.49.67-1,1.3-1.45,1.9a1.47,1.47,0,0,1,.18-.55c-1,.73-1.86,1.48-2.7,2.26s-1.74,1.65-2.7,2.61h-.36v-.18a11.21,11.21,0,0,0-.82.9.67.67,0,0,1-1,.18,4,4,0,0,0-1.35,1.26,1.89,1.89,0,0,1-1.17.91q-.9.9-1.44,1.35L175,120.5q0-.18-.36-.18a3.86,3.86,0,0,1-2.34,1.08,27.28,27.28,0,0,0-3.51,2.25,5.14,5.14,0,0,1-3.16,1.18,19.77,19.77,0,0,0-2.34.36,3.68,3.68,0,0,1-1.62,0,10.7,10.7,0,0,0-3.61.81,5.14,5.14,0,0,1-3.6.27,2.22,2.22,0,0,0-1.27-1.26,18.13,18.13,0,0,0-1.71-.91,2.32,2.32,0,0,1-1.17-1.62,7.16,7.16,0,0,1-2.88-3.69,17.25,17.25,0,0,1-1-5.59,34.89,34.89,0,0,1,.46-6.58,57.6,57.6,0,0,1,1.44-6.67,32.64,32.64,0,0,0-4.87,4.78c-1.56,1.86-3.13,3.63-4.69,5.31a11.94,11.94,0,0,1-2,2.71q-1.08,1.08-2.16,2-3.08,3.61-5.77,6.31a.37.37,0,0,1-.09.27,2.08,2.08,0,0,0-.27.45c-1,.72-2.05,1.56-3.25,2.53a23,23,0,0,1-3.69,2.43,10.45,10.45,0,0,1-4,1.17,6.14,6.14,0,0,1-4.23-1.44,2.4,2.4,0,0,1-1.71-.81,4.76,4.76,0,0,0-1.36-1.18,4.2,4.2,0,0,1-2.43-2.16,15.19,15.19,0,0,1-.63-3.78,9.32,9.32,0,0,1,.27-3.25,15.19,15.19,0,0,1,1.17-3.42,24.15,24.15,0,0,1,2.7-6.4c1.2-2,2.35-3.82,3.43-5.5q3.06-4.14,6.22-7.66t6.58-6.94a14,14,0,0,0,2.25-1.44,10,10,0,0,1,2.61-1.44,2,2,0,0,0,2-.45c.72-.55,1.32-.39,1.8.45a18.81,18.81,0,0,1,6.67,1.8,7.77,7.77,0,0,1,4,4.68c.83-.6,1.62-1.14,2.34-1.62a8.31,8.31,0,0,1,2.34-1.08,1.73,1.73,0,0,0,.9-.72q.36-.54.72-.54a4.17,4.17,0,0,1,3.34.72,23.08,23.08,0,0,0,3,1.8.41.41,0,0,1,.45-.09,1.38,1.38,0,0,0,.81-.09c.24.36.42.63.55.81a4.69,4.69,0,0,1,.36.81,17.29,17.29,0,0,1-.81,7,32.11,32.11,0,0,1-2.62,6.31c-.48,2.77-1.14,5.77-2,9a15.72,15.72,0,0,0-.18,8.47,27.1,27.1,0,0,0,10.54-3.16q4.25-2.43,8.57-4.77c1.08-.84,2.07-1.56,3-2.17a13.33,13.33,0,0,0,2.61-2.34.52.52,0,0,1,.36.18v.18c.6,0,1.81-.75,3.61-2.25s3.63-3.07,5.5-4.69,3.6-3,5.22-4.23,2.56-1.63,2.8-1.27a.7.7,0,0,0,.9.09,1,1,0,0,1,.9-.09q.18.38.09.54a.31.31,0,0,0,.09.37V95.8c.12,0,.12.16,0,.46l-.36.9a1.93,1.93,0,0,1-.36.63q-.18.18,0-.36l-.81.81-.81.81a11.71,11.71,0,0,0-.45,1.26,11.71,11.71,0,0,1-.45,1.26,1,1,0,0,1-.72-.18,2.39,2.39,0,0,1-1,1.26,2.53,2.53,0,0,0-1,1.45q-.36,0-.72.9ZM141.86,92.2a10.75,10.75,0,0,0-1.35-4q-1-1.62-3.52-.36l-2.88,3.25a2.39,2.39,0,0,1-.9.81,3.49,3.49,0,0,0-.91.63,4.7,4.7,0,0,0-.72,1,13.16,13.16,0,0,1-.9,1.35l-2.52,2.89a54,54,0,0,0-3.88,5.68q-1.89,3.15-3.33,6a6.91,6.91,0,0,1-.9,1.63,6.14,6.14,0,0,0-.9,2.16c-.25-.12-.36-.09-.36.09s-.07.21-.18.09a8.94,8.94,0,0,1-1.27,3.33,6.27,6.27,0,0,0-.9,3.52c1-.6,2-1.2,3.07-1.8a11.82,11.82,0,0,0,2.7-2q5.22-5,10-10.54t9.47-11.27a2.88,2.88,0,0,0,.9-1,1.66,1.66,0,0,1,.9-.81v-.36A2.45,2.45,0,0,0,141.86,92.2Z"/><path class="cls-1" d="M392.59,10.54a16,16,0,0,0,1.8.27,2.29,2.29,0,0,1,1.44.64,1,1,0,0,1,.45.36,2.39,2.39,0,0,0,.46.54c.59.24,1.32.51,2.16.81a3.28,3.28,0,0,1,1.8,1.35,1.12,1.12,0,0,1,.36.81,1.12,1.12,0,0,0,.36.81,6.77,6.77,0,0,0,1.53,2,3.64,3.64,0,0,1,1.18,2.17q.17,0,.09-.27t.09-.27A19.13,19.13,0,0,0,404.4,22a8.81,8.81,0,0,0,.27,1.44,4.7,4.7,0,0,1,.18,1.17,12.66,12.66,0,0,1-.18,1.63c0,.24-.07.39-.18.45a.27.27,0,0,0-.18.27,1.12,1.12,0,0,0-.09.81,1.37,1.37,0,0,1-.09.81,37.07,37.07,0,0,1-.54,3.69,12.16,12.16,0,0,0-.19,3.7,3,3,0,0,1-.36,1.53,12.39,12.39,0,0,0-.72,1.53,1.54,1.54,0,0,1-.18.72,1.67,1.67,0,0,0-.18.73q-.18,1.26-.36,2.34a21.35,21.35,0,0,1-.54,2.34h.36a4.73,4.73,0,0,1-.45,1,2,2,0,0,0-.27,1,4.73,4.73,0,0,1-.45.72.93.93,0,0,0-.09.9,5.82,5.82,0,0,1-.27,2,9.8,9.8,0,0,0-.45,1.8c-.24,0-.36.07-.36.18l-.36.72c.12-.23.12.07,0,.91a.23.23,0,0,0,0,.36v.18a18.78,18.78,0,0,0-1.53,2.7c-.18.48-.52,1.56-1,3.25a32.08,32.08,0,0,1-.9,3.33q-.36,1-.63,1.8L394,67.86c-.24.73-.66,1.81-1.26,3.25a2.09,2.09,0,0,0,.36.54q.18.18-.18.54,0,.36.18.27t.18.09q0,.18-.9.18a1.87,1.87,0,0,1-.18,1.44l-.72,1.09a1.75,1.75,0,0,1,.72,1.08q.18.72-.9.9.18.72,0,.81a.38.38,0,0,1-.36,0,.38.38,0,0,0-.36,0q-.19.09.18.63a10.28,10.28,0,0,1-1.27,1.62h.37a6.07,6.07,0,0,0-.55,1.8,1.54,1.54,0,0,0,.55,1.63,2.64,2.64,0,0,0-.27.72,1.71,1.71,0,0,1-.46.72q.36.18.18.27a.29.29,0,0,0-.18.27q-.18,0-.18.09t-.36-.09q0,.18.27.27a.42.42,0,0,1,.27.45,1.22,1.22,0,0,0-.36.9l-.72.36c0,.12.09.16.27.09s.27,0,.27.27q-.54,0-.63.27a1.69,1.69,0,0,1-.45.63,2.39,2.39,0,0,1-1.62-.36v-.36q-.36-.17-.54,0t-.54,0a1.49,1.49,0,0,1,.18.63c0,.19.12.28.36.28a.73.73,0,0,1-.18.54.22.22,0,0,0,0,.36q1.08,0,1.08-.72a.88.88,0,0,1,.63-.1.77.77,0,0,0,.63-.08q-.72.72.18,1.08a4.25,4.25,0,0,1-.9,2,1.54,1.54,0,0,0,0,2,2.4,2.4,0,0,1-.45.63,2.05,2.05,0,0,0-.45.81,1.71,1.71,0,0,1-.18-2,9.26,9.26,0,0,0,.72-1.8.7.7,0,0,0-.72.45q-.18.45-.54.45a5,5,0,0,1-.45,1,2.25,2.25,0,0,0-.27,1.17q.18,0,.72-.54c.48.36.45.7-.09,1a3.37,3.37,0,0,1-1.71.45c0,.25.11.34.36.27a3.46,3.46,0,0,1,.72-.09q.18.19-.27.36a2.09,2.09,0,0,1-.81.19,6.37,6.37,0,0,1-.63,1.89,4.55,4.55,0,0,0-.46,2.25c.36,0,.66-.48.91-1.44q.36-.36.63-.09a.85.85,0,0,0,.63.27q-.72.36-.72.9a1.26,1.26,0,0,1-.36.9,2.73,2.73,0,0,0-1.45.72l.72.9c.24.13.37.09.37-.09s.11-.27.36-.27c0,.61-.27.94-.81,1a14.2,14.2,0,0,1-1.54.09q-.18.36.27.27t.27.27a.73.73,0,0,1-.54.18h-.72a1.45,1.45,0,0,0-.72,1.44,1,1,0,0,0,.81-.36q.27-.36,1-.18a.52.52,0,0,0-.18.36,1.38,1.38,0,0,1-.18.54,1.48,1.48,0,0,1-.09.45q-.09.27-.27.09-.36-.18-.09-.27t.09-.27a1.87,1.87,0,0,0-1.08-.18l.36.72q-.36.36-.36.18,0,.36,1.08.36a1.64,1.64,0,0,1-.9.9.83.83,0,0,0-.54.9,4.77,4.77,0,0,1,1.08.72c-1.2.25-1.74.85-1.62,1.81a.54.54,0,0,0,.54.09.44.44,0,0,1,.54.27l-1.26,1.62a3.09,3.09,0,0,0,1.26-.18,2.82,2.82,0,0,0,.72-.54q-.18-.18-.27.09t-.27.09a6.8,6.8,0,0,0,.36-2.16,1.6,1.6,0,0,0,.72-.18.77.77,0,0,1,.72,0q.18.36,0,.45t0,.27q-.36,0-.27-.18t-.27-.18q-.36,0-.45.81t.81.45a1.79,1.79,0,0,1-.54.63q-.36.27,0,.63h-.9a.37.37,0,0,1-.09.27.37.37,0,0,0-.09.27.32.32,0,0,0,.36.36,3.63,3.63,0,0,1-1.62.18q.72-.18.63-.54t-.63-.36a9.45,9.45,0,0,0-.54,2.07,5.64,5.64,0,0,1-.72,2.08,1.42,1.42,0,0,0,.9.18,9.79,9.79,0,0,0-1.35,5,7.17,7.17,0,0,1-1.53,4.69,1,1,0,0,0,.81,0,1,1,0,0,1,.81,0c-.25.36-.54.84-.9,1.44a1.6,1.6,0,0,0-.18,1.62c-.61.37-.82,1-.64,2.08a3.43,3.43,0,0,1-.27,2.43l-.54.72q.18.36.27.18t.45-.18l-.36.72a2.38,2.38,0,0,0-.36,1.35,1.23,1.23,0,0,1-.9,1.18,1.18,1.18,0,0,0,.54.54,1.18,1.18,0,0,1,.54.54H374q0,.36.9.36a.61.61,0,0,1-.45.18q-.27,0-.27.18a2.07,2.07,0,0,0-.54,1.89,3.9,3.9,0,0,1-.18,2.07q.18.18.27,0t.27,0q.18,0,.09.18a.29.29,0,0,0,.09.36.17.17,0,0,0,.18.19,1.11,1.11,0,0,0-.54.63c-.12.3-.36.38-.72.27,0,.11.18.36.54.72a8.23,8.23,0,0,0-.54,4.32c.24,1.2.48,1.69.72,1.45.12.11.06.3-.18.54v.9l-.54.36a2.45,2.45,0,0,1-.18,1.62,2.45,2.45,0,0,0-.18,1.62,1.6,1.6,0,0,0,.72-.18.36.36,0,0,1,.54.18.81.81,0,0,1-.09.81c-.18.3-.09.57.27.82h-.9q.72,2.7.9,3.33t0,.81a1.13,1.13,0,0,0-.27.45,9.13,9.13,0,0,0,.27,2.26v-.91a.6.6,0,0,1,.18.73c-.12.23,0,.36.36.36s.48.41.36.9a.9.9,0,0,0,.37,1.08,5,5,0,0,1-.55,1.08,1.19,1.19,0,0,0,0,1.26.5.5,0,0,1-.63-.09.86.86,0,0,0-.63-.27q-.18,0-.27.27a.41.41,0,0,0,.09.45l-2.88-1.08q.36.18-.36-.54a11.94,11.94,0,0,1-1.81-3.15,38,38,0,0,1-2.07-7.12,70.65,70.65,0,0,1-1.17-12.44,32.32,32.32,0,0,1,.45-5.5c.3-1.74.63-3.58,1-5.5l.54-3.6a5.36,5.36,0,0,0-.18-1.27,1.62,1.62,0,0,1,0-1.08,4.73,4.73,0,0,1,.45-.72.5.5,0,0,0-.09-.72,1,1,0,0,0,.72-.18,1,1,0,0,0-.36-.45,1.41,1.41,0,0,1-.36-.27,86.8,86.8,0,0,1,1.27-10.27c.6-3.25,1.26-6.43,2-9.56q.72,0,.9-.36-.18-.36-.36-.27t-.18-.09a44.56,44.56,0,0,1,1.26-9.46c.72-2.82,1.38-5.74,2-8.74h.18c-.12,0-.18-.06-.18-.19a20.42,20.42,0,0,0,1.54-3.6,10.39,10.39,0,0,0,.27-4.51l.18-.18h.18c.47-1.8.78-2.94.9-3.42a3.48,3.48,0,0,1,.36-1,6.1,6.1,0,0,0,.45-.9c.18-.42.57-1.47,1.17-3.16L380.33,69c.24-.6.45-1.2.63-1.81a5.7,5.7,0,0,0,.27-1.62,1.25,1.25,0,0,0-.09-.54.64.64,0,0,1,.09-.54.42.42,0,0,1,.27-.45,1.13,1.13,0,0,0,.45-.27,3.14,3.14,0,0,0,.45-1.44,6.14,6.14,0,0,0-.09-1.81c.84-.72,1.24-1.23,1.18-1.53s.2-.93.81-1.89q0,.72.36-.36l.18-.36v-.18l.72-2.34c.36-.84.66-1.63.9-2.35l.54-1.62a1.6,1.6,0,0,0,.18-.72c1-3.36,1.65-5.83,2.07-7.39s.75-2.89,1-4,.47-2.34.72-3.78.66-3.79,1.26-7a25.07,25.07,0,0,0,.63-3,3.82,3.82,0,0,0-.45-2.79,3.13,3.13,0,0,1-.63-1q-.27-.63-.63-.63a2,2,0,0,0-1.08-.09,6.54,6.54,0,0,0-1.27.27,24.61,24.61,0,0,0-7.39,2,11,11,0,0,0-3.6,2.34,11.76,11.76,0,0,0-.9,1.08,11.07,11.07,0,0,1-.9,1.09l-2,1.26-.72.9a14,14,0,0,1-3.06,2.88,8.78,8.78,0,0,0-2.71,2.89q-.18.18-.27,0A.29.29,0,0,0,367,34q-.54,0-.9.9t-.54,1.44q.18,0-.36-.54a9.89,9.89,0,0,1-2.34,3.06,8.31,8.31,0,0,0-2.17,2.89h-.9l-.54,1.62a.9.9,0,0,0-1.17.54,3.5,3.5,0,0,1-.81,1.26q-2.53,3.08-5.05,6.49t-4.51,6.49q-3.6,6-7.75,12.62t-8.11,12.8q-1.62,2.88-3.06,5.59a58.63,58.63,0,0,1-3.43,5.58,13.47,13.47,0,0,1-4.5,5,8.88,8.88,0,0,1-2.35.9,4.52,4.52,0,0,1-2.34.09A3.18,3.18,0,0,0,314,101l.36.36h-.54c-.48,0-.76-.12-.81-.36a5.27,5.27,0,0,0-.27-.72c0-.24-.07,0-.18.72s-.25,1.08-.37,1.08q-.54-.72-1.26.09c-.48.54-.9.82-1.26.82s-.39-.46-.45-1a2,2,0,0,0-.27-1q0-.18-.45.09t-.45.09l-.63-1.26a3.24,3.24,0,0,1-.27-1.44l.54-1.62a5.92,5.92,0,0,1,.45-1.54,5.79,5.79,0,0,0,.45-1.53l1.08-4a8.66,8.66,0,0,1,1.08-3.25,20.94,20.94,0,0,0,.81-2.61c.18-.78.39-1.77.63-3a1.1,1.1,0,0,1,.1-.54,1.43,1.43,0,0,0,.09-.54,2.36,2.36,0,0,1,.18-1.08l.36-.72a2.28,2.28,0,0,0,.63-1.44,3.14,3.14,0,0,1,.45-1.44c.12-.24.36-.66.72-1.27s.42-1,.18-1.26q2.34-5.94,4.78-13t4.41-13.88q.54-2.52,1-5c.3-1.68.51-3.31.63-4.87q0-.9-.09-2.25c-.06-.9-.39-1.36-1-1.36a4.24,4.24,0,0,0-1.26.37q-.9.36-1.26.54c-1.2.72-2.37,1.38-3.52,2a12.2,12.2,0,0,0-3,2.16,10.64,10.64,0,0,0-2.7,2,25.22,25.22,0,0,0-2.35,2.71q-1.08,1.44-2.16,2.7l-2.16,2.53A250.46,250.46,0,0,0,279,87.87l-1.62,3.07a11.13,11.13,0,0,1-.82,1.62q-.45.72-1,1.44c-.6,1-1.2,2-1.8,3a15.09,15.09,0,0,0-1.44,3.33c-.6,1.08-1.2,2.14-1.8,3.16a10.4,10.4,0,0,0-1.27,3.51c-.24,1.56-.42,3-.54,4.33a9,9,0,0,1-1.08,3.6,33.07,33.07,0,0,0-2.07,5.23q-.81,2.7-1.8,5.41c-.66,1.8-1.36,3.51-2.08,5.13a16.34,16.34,0,0,1-2.88,4.42,15,15,0,0,1-1.44.63,2.16,2.16,0,0,0-1.08.81c0-.12-.13-.18-.36-.18s-.4.09-.46.27a.82.82,0,0,1-.45.45,12.75,12.75,0,0,0-3.51-1.08,6.09,6.09,0,0,1-3.34-1.62,1.42,1.42,0,0,0-.18-.9v-.18a1.6,1.6,0,0,0,.72-1.35,8.87,8.87,0,0,1,.19-1.72,6.32,6.32,0,0,1,.18-1.8q.54-2.7,1.26-5.32t1.26-5.13q4.5-17.49,9.55-33.71t10.46-32.63q1.26-4.68,2.88-9.91l.72-2.53a9.17,9.17,0,0,1,.9-2.16,1.12,1.12,0,0,0,.36-.81,1.79,1.79,0,0,1,.18-.81L278,32.17q.54-1.44,1.08-3.33a12.83,12.83,0,0,0,.54-3.51V25a2.29,2.29,0,0,0-.36-.54,1.93,1.93,0,0,1-.36-.54,3,3,0,0,1,.18-.72,7,7,0,0,1,.36-.9,2,2,0,0,1,.9-.72.54.54,0,0,1,.54-.09,3,3,0,0,0,.72.09l1.26-.54a6.62,6.62,0,0,1,1.9-.09q1,.09,1.89.09l3.06.36q3.25.9,2.71,4.51-.18,1.44-.45,2.88c-.18,1-.4,2-.63,3.24l-.36,3.34a18.88,18.88,0,0,1-.55,2.79,16.23,16.23,0,0,1-1.17,2.53,9.6,9.6,0,0,0-1,2.52,76.71,76.71,0,0,0-2.43,8.65c-.66,3-1.35,6-2.08,8.84A71.19,71.19,0,0,0,288.22,55c1.32-1.86,2.71-3.76,4.15-5.68q.54-.9,1-1.62a8.65,8.65,0,0,1,1.17-1.45,46.39,46.39,0,0,0,3.61-4c1.08-1.38,2.22-2.8,3.42-4.24q1.62-1.8,3.61-3.69c1.32-1.26,2.58-2.5,3.78-3.7a13.52,13.52,0,0,0,1.26-1.44A3.28,3.28,0,0,1,311.65,28c1.09-.6,2.11-1.2,3.07-1.8s2-1.2,3.24-1.81a20.41,20.41,0,0,1,6-1.8,9.92,9.92,0,0,1,2-.36,1.67,1.67,0,0,1,.73.18l.72.36,1.8.36c1.2,1.44,2.37,2.83,3.51,4.15a10.44,10.44,0,0,1,2.26,5.22,2.26,2.26,0,0,1,.09,1.09,3.12,3.12,0,0,0,.09,1.26l.36.72a1.22,1.22,0,0,1,.36.9,8.82,8.82,0,0,1,0,2.52l-.36,2.89-.9,5.05a107.47,107.47,0,0,1-4.15,14.78q-2.7,7.56-4.87,14.06a.32.32,0,0,0,.36-.36,10.56,10.56,0,0,0,1.27-1.63,52.7,52.7,0,0,0,4.23-7.93,45.78,45.78,0,0,1,4.24-7.75,3.13,3.13,0,0,1,1-1.17,3.87,3.87,0,0,0,1-1A13.71,13.71,0,0,0,339,53.9c.42-.78.87-1.54,1.35-2.26l.73-1.08a7.15,7.15,0,0,1,.9-1.08l3.24-4a4.64,4.64,0,0,1,.9-1,3.58,3.58,0,0,0,.9-1.17l3.25-4,7.39-7.75A104.8,104.8,0,0,1,368.79,21,6.3,6.3,0,0,1,371,19.38l1.08-.73a.87.87,0,0,0,.45-.36,3.2,3.2,0,0,1,.45-.54A41.06,41.06,0,0,1,377,15.14q2.07-1.17,3.87-2.43L382,12a10.11,10.11,0,0,1,1.81-.54,9.52,9.52,0,0,0,1.8-.55q.9-.17,2-.27c.72-.06,1.44-.09,2.17-.09ZM314.9,101.21c.24,0,.36.25.36.72,0-.11-.3-.3-.9-.54A.73.73,0,0,1,314.9,101.21Zm.72.9c-.12.12-.24.07-.36-.18q.18,0,.18.09C315.44,102.09,315.5,102.11,315.62,102.11Zm58.58,41.46q.36,0,.45.63t-.81.45a.58.58,0,0,1,.36-.54Q374.56,143.93,374.2,143.57ZM376,146.1c-.37,0-.67-.25-.91-.72a.54.54,0,0,1,.82,0Q376.35,145.73,376,146.1Zm.36,6.3c-.13,0-.18-.18-.18-.54-.25,0-.36,0-.36.09s-.07.09-.19.09,0-.18-.09-.18-.08-.12-.08-.36a.4.4,0,0,1,.45-.09.41.41,0,0,0,.45-.09.59.59,0,0,1,.09.54A2,2,0,0,0,376.37,152.4Zm3.06-27.94c-1,.37-1.44.85-1.44,1.45a1.22,1.22,0,0,1-.9-.36c.84,0,1.14-.36.9-1.09Zm-1.26-4.14q-.18-.54.36-.45t.18.45Zm1.62-2.16-.54.27a1.87,1.87,0,0,1-.72.09q-.18-.54.36-.63A1,1,0,0,1,379.79,118.16Zm.9-3.07a2.88,2.88,0,0,0-.45,1.26,2.88,2.88,0,0,1-.45,1.27,1.23,1.23,0,0,0-.81-.09q-.45.09-.45-.27.18-.18.72,0c.24-.24.3-.42.18-.55s-.24-.18-.72-.18c-.12-.23-.06-.39.18-.45s.24-.21,0-.45q.9.36,1.08-.18A.5.5,0,0,1,380.69,115.09Zm-.54,3.07q-.18-.54,0-.72.72-.18.72.45T380.15,118.16Zm.72-8.48q.36-.34.36-.18a.16.16,0,0,0,.18.18c0,.73-.24,1-.72.73,0-.24.06-.37.18-.37S381,109.93,380.87,109.68Zm.72,10.1a1.94,1.94,0,0,1,0,1.17.73.73,0,0,1-.72.63,3.47,3.47,0,0,1,.54-1.8Zm3.25-16.59c.12.25,0,.49-.27.73s-.34.48-.09.72a2.9,2.9,0,0,1-.72-.09,1,1,0,0,0-.72.09.56.56,0,0,0,.54.36q.36,0,0,.36a2,2,0,0,1,.9-.18q0,.9-1.26.72l.36-.36-.54-.36c-.13.12-.09.18.09.18s.2.12.09.36a.82.82,0,0,1-.63.09c-.19-.06-.34,0-.46.27v1.08c.48-.24.73-.54.73-.9a.58.58,0,0,0,.72.18,1.6,1.6,0,0,1,.72-.18c0,.48-.43.72-1.26.72.11.24.36.3.72.18s.54-.06.54.18-.12.33-.36.27a.53.53,0,0,0-.54.09.48.48,0,0,1-.18-.36q-.37-.18-.45.09a.88.88,0,0,1-.46.45.29.29,0,0,1-.09-.36q.09-.18-.09-.18a.61.61,0,0,0-.54.27q-.18.27,0,.27-.36.36-.54,0a3,3,0,0,1,1.44-2.34,1.07,1.07,0,0,1,.46-1.62A6.86,6.86,0,0,1,384.84,103.19Zm-2.17,14.07a.73.73,0,0,1-.72.36h-.9Q381.41,116.9,382.67,117.26Zm1.27-9.2-.54.54a1,1,0,0,0-.36.72,1.66,1.66,0,0,0-.91-.09,1.39,1.39,0,0,1-.9-.09.52.52,0,0,1,.18-.36,1.19,1.19,0,0,1,.63.18.59.59,0,0,0,.63,0,1.2,1.2,0,0,0,.55-.54A.72.72,0,0,1,383.94,108.06Zm-.9,4.15c0,.36-.31.66-.91.9a1,1,0,0,0-.36-.72q0-.36.54-.36a.8.8,0,0,1,.36.09A.81.81,0,0,0,383,112.21Zm0,2.52c-.85.24-1.27,0-1.27-.72h.82C382.88,114,383,114.25,383,114.73Zm-.37.18q-.36.18-.36.9-.36.38-.54,0Q381.77,114.73,382.67,114.91Zm.19-4.5q.7.36.27.9a2.92,2.92,0,0,1-.82.72,1.92,1.92,0,0,1,.18-1C382.61,110.86,382.73,110.65,382.86,110.41Zm0-17.31q1.8.36,2.34-.36H385q.18-.54.36-1.17a1.83,1.83,0,0,0-.18-1.35,1.25,1.25,0,0,0-.54.09,1.25,1.25,0,0,1-.54.09.9.9,0,0,1,.45.72,1.61,1.61,0,0,0,.45.9,1.8,1.8,0,0,1-1.08.45A1.42,1.42,0,0,0,382.86,93.1Zm1.44,3.43a1.42,1.42,0,0,1-.72,2.16A3.87,3.87,0,0,1,384.3,96.53Zm.36,5.4a.16.16,0,0,1,.18.18c.12.25,0,.45-.36.63a.7.7,0,0,1-.9-.09c0-.23.18-.36.54-.36S384.66,102.18,384.66,101.93Zm0-2.52q.36-.18.36-1a4.32,4.32,0,0,1,.18-1.35,1.77,1.77,0,0,1,.54-1.27c.6.25.72.61.36,1.09a2.39,2.39,0,0,0-.54,1.44.37.37,0,0,0,.09.27.37.37,0,0,1,.09.27l-.36.72a4.27,4.27,0,0,0-.36,1.53q0,.63-.9.63Zm0-42.72-.36.36a1.6,1.6,0,0,1,.18-.72q.18-.36.36-.18a.52.52,0,0,0-.18.36Zm1.08,36.59a2,2,0,0,1-.72.9Q385,93.1,385.74,93.28Z"/><path class="cls-1" d="M482.35,107.7a1.58,1.58,0,0,0-1.62.81c-.48.67-1,1.3-1.44,1.9a1.47,1.47,0,0,1,.18-.55c-1,.73-1.86,1.48-2.7,2.26s-1.75,1.65-2.71,2.61h-.36v-.18q-.36.36-.81.9a.67.67,0,0,1-1,.18,4,4,0,0,0-1.35,1.26,1.92,1.92,0,0,1-1.17.91c-.61.6-1.09,1-1.45,1.35l-1.62,1.35q0-.18-.36-.18a3.86,3.86,0,0,1-2.34,1.08,26.74,26.74,0,0,0-3.52,2.25,5.09,5.09,0,0,1-3.15,1.18,19.43,19.43,0,0,0-2.34.36,3.73,3.73,0,0,1-1.63,0,10.7,10.7,0,0,0-3.6.81,5.17,5.17,0,0,1-3.61.27A2.17,2.17,0,0,0,444.5,125a18.13,18.13,0,0,0-1.71-.91,2.32,2.32,0,0,1-1.17-1.62,7.13,7.13,0,0,1-2.89-3.69,17.53,17.53,0,0,1-1-5.59,35.7,35.7,0,0,1,.45-6.58,59.76,59.76,0,0,1,1.44-6.67,33.07,33.07,0,0,0-4.86,4.78q-2.36,2.79-4.69,5.31a11.94,11.94,0,0,1-2,2.71c-.72.72-1.44,1.38-2.17,2q-3.06,3.61-5.76,6.31a.37.37,0,0,1-.09.27,1.49,1.49,0,0,0-.27.45c-1,.72-2.05,1.56-3.25,2.53a23,23,0,0,1-3.69,2.43,10.5,10.5,0,0,1-4,1.17,6.18,6.18,0,0,1-4.24-1.44,2.43,2.43,0,0,1-1.71-.81,4.57,4.57,0,0,0-1.35-1.18,4.2,4.2,0,0,1-2.43-2.16,15.19,15.19,0,0,1-.63-3.78,9.32,9.32,0,0,1,.27-3.25,15.19,15.19,0,0,1,1.17-3.42,24.15,24.15,0,0,1,2.7-6.4c1.2-2,2.35-3.82,3.43-5.5q3.06-4.14,6.21-7.66t6.58-6.94a14.06,14.06,0,0,0,2.26-1.44,10,10,0,0,1,2.61-1.44,2,2,0,0,0,2-.45c.72-.55,1.32-.39,1.81.45a18.87,18.87,0,0,1,6.67,1.8,7.72,7.72,0,0,1,4,4.68c.84-.6,1.62-1.14,2.35-1.62a8.31,8.31,0,0,1,2.34-1.08,1.73,1.73,0,0,0,.9-.72q.36-.54.72-.54a4.18,4.18,0,0,1,3.34.72,22.42,22.42,0,0,0,3,1.8.41.41,0,0,1,.45-.09,1.38,1.38,0,0,0,.81-.09l.54.81A3.53,3.53,0,0,1,453,89a17.29,17.29,0,0,1-.81,7,31.54,31.54,0,0,1-2.61,6.31c-.48,2.77-1.15,5.77-2,9a15.61,15.61,0,0,0-.17,8.47,27.1,27.1,0,0,0,10.54-3.16q4.23-2.43,8.56-4.77c1.08-.84,2.07-1.56,3-2.17a13.33,13.33,0,0,0,2.61-2.34.52.52,0,0,1,.36.18v.18c.6,0,1.8-.75,3.61-2.25s3.63-3.07,5.49-4.69,3.61-3,5.23-4.23,2.55-1.63,2.79-1.27a.71.71,0,0,0,.91.09,1,1,0,0,1,.9-.09c.11.25.15.43.09.54a.31.31,0,0,0,.09.37V95.8c.12,0,.12.16,0,.46l-.36.9a2.13,2.13,0,0,1-.36.63q-.18.18,0-.36l-.81.81-.82.81a11.71,11.71,0,0,0-.45,1.26,11.71,11.71,0,0,1-.45,1.26,1,1,0,0,1-.72-.18,2.33,2.33,0,0,1-1,1.26,2.53,2.53,0,0,0-1,1.45q-.36,0-.72.9ZM433.14,92.2a10.75,10.75,0,0,0-1.35-4q-1-1.62-3.51-.36l-2.89,3.25a2.32,2.32,0,0,1-.9.81,3.43,3.43,0,0,0-.9.63,4.7,4.7,0,0,0-.72,1,13.16,13.16,0,0,1-.9,1.35l-2.53,2.89a54,54,0,0,0-3.87,5.68c-1.26,2.1-2.38,4.11-3.34,6a6.91,6.91,0,0,1-.9,1.63,6.14,6.14,0,0,0-.9,2.16q-.36-.18-.36.09t-.18.09a8.77,8.77,0,0,1-1.26,3.33,6.27,6.27,0,0,0-.9,3.52q1.44-.9,3.06-1.8a11.89,11.89,0,0,0,2.71-2q5.22-5,10-10.54T433,94.72a3,3,0,0,0,.91-1,1.66,1.66,0,0,1,.9-.81v-.36A2.5,2.5,0,0,0,433.14,92.2Z"/><path class="cls-1" d="M479.29,121.4a4.08,4.08,0,0,1,1.35-2.25,10.43,10.43,0,0,0,1.89-2.08,5.14,5.14,0,0,1-.63.82,2.18,2.18,0,0,0-.45,1,5.34,5.34,0,0,0,3.07-3.43c.48.36.9.25,1.26-.36a2.92,2.92,0,0,1,1.44-1.26l.18-.18a.64.64,0,0,0,.36-.63,1.83,1.83,0,0,1,.36-1,.29.29,0,0,0,.27-.18q.09-.18.45-.18a1.91,1.91,0,0,1,1.08-1.17,2.25,2.25,0,0,0,1.09-.82c.11,0,.36-.18.72-.54a7.3,7.3,0,0,1,2.88-1.8,5.49,5.49,0,0,0,2.7-2,18.62,18.62,0,0,0,4.33-2.34,22.39,22.39,0,0,1,4.51-2.53,25.72,25.72,0,0,0,.54-7,17,17,0,0,0-1.62-6.85c-.49.48-1.06,1-1.72,1.62a25.94,25.94,0,0,0-2.07,2.17l-2.16,2-2.53,2.34-3.24,2.89a29.81,29.81,0,0,1-2.52,2.25,9.58,9.58,0,0,1-2.17,1.35,13.5,13.5,0,0,1-2.34,2.44c-.72.54-1.38.39-2-.46a4,4,0,0,0-.73-.81.32.32,0,0,0-.36.09c-.12.13-.21.18-.27.18s-.27-.23-.63-.72c-.48,0-.75.16-.81.45s-.09.27-.09-.09a3.21,3.21,0,0,0,.27-.81q.09-.45.45-.27a13.54,13.54,0,0,0,2-1.62,3.91,3.91,0,0,0,.72-1.44,4.1,4.1,0,0,1,.9-1.62,4.66,4.66,0,0,1,1.62-.91A3.61,3.61,0,0,0,489,94.54a1.61,1.61,0,0,0,.45-.9,1.61,1.61,0,0,1,.45-.9c.48-.36,1-.69,1.45-1a7.15,7.15,0,0,0,1.08-.81,30.38,30.38,0,0,1,3-3.52,24,24,0,0,0,2.44-2.79c1.08-2.4,2.58-3.76,4.5-4.06s3.36,0,4.33.81a6.06,6.06,0,0,1,3.69.91,7.55,7.55,0,0,1,2.08,2.88,6.14,6.14,0,0,1,.9,2.16c.24,1,.45,2,.63,3.16s.36,2.25.54,3.33a17,17,0,0,1,.27,2.71,14.09,14.09,0,0,0,3.78-.91l5.68-1.89c2-.66,3.85-1.26,5.59-1.8a14.68,14.68,0,0,1,3.7-.81c.11,0,.24-.12.36-.36.11.24.27.33.45.27a2,2,0,0,1,.63-.09q1.26-.36,2.7-.63a5.51,5.51,0,0,0,2.53-1.17,1,1,0,0,0,.9-.09c.24-.19.54-.39.9-.64V89c.24,0,.36-.29.36-.9a13.34,13.34,0,0,0,3.24,0l2.71-.36a2.53,2.53,0,0,0,1.53.27,3.73,3.73,0,0,0,1.17-.27l2.52.54c0,.61.24.72.73.36-.13.25-.16.4-.09.46a.41.41,0,0,1,.09.27c0,.12.05.18.18.18s.11.18.36.18a.16.16,0,0,0,.18-.18,1.94,1.94,0,0,0,.45.81.77.77,0,0,1,.09.81,3.32,3.32,0,0,1-1.62.27,2.88,2.88,0,0,0-1.27.09q0,.36.18.36a.52.52,0,0,1,.36.18,2.83,2.83,0,0,1-2,.36q-1.08-.18-1.44,1.08c-1.08.24-2.07.51-3,.81a15,15,0,0,1-3.33.63,1.5,1.5,0,0,0-.54.9,1.78,1.78,0,0,0-1.71-.18,8.72,8.72,0,0,1-1.54.55,7.38,7.38,0,0,0-2.88.9,10.25,10.25,0,0,1-2.88,1.08l-14.24,5.59-3.07,1.53a6.7,6.7,0,0,0-2.52,2.07,8.51,8.51,0,0,1-1.17,3.79,7.49,7.49,0,0,0-1.18,3.24q-.9.18-1.08.72a9.88,9.88,0,0,1-.54,1.26q.36,0,.27-.45t.27-.09c-.24.61-.54,1.3-.9,2.08a5.91,5.91,0,0,1-1.62,2.07q.72.18,0,.63t-.18,1a5,5,0,0,0-.9.63q-.54.45-.18.81c-.24,0-.36.16-.36.45s-.18.34-.54.09c.24.36.24.61,0,.73s-.25.3,0,.54a16.43,16.43,0,0,0-1.9,2.25q-.81,1.17-1.71,2.25-.18.18.09.09t.09.27a62.63,62.63,0,0,1-5.14,5,18.72,18.72,0,0,1-6.39,3.51q.17-.36-.45-.18c-.43.12-.64.12-.64,0s.12-.33.36-.27a1,1,0,0,0,.73-.09c-.37-.6-.79-.78-1.27-.54a2.9,2.9,0,0,1-1.26.36q0,.54-.18.54v-.36a5.92,5.92,0,0,0-1.44.18,3.28,3.28,0,0,1-1.8-.18.16.16,0,0,0-.18.18q0,.18-.36.18a10.6,10.6,0,0,1-9.92-4.68q-.36.18-.45-.09t-.45-.09q-.36-.36-.09-.54c.18-.12.21-.43.09-.9q-.36.7-.72.54t-.72.36c-.36-.36-.33-.61.09-.72s.45-.36.09-.72q-.18-.37-.27,0c-.06.23-.09.11-.09-.37a5,5,0,0,1,.45-1q.27-.45,1.17-.45,0-2.7,1.08-3.6a1.25,1.25,0,0,1-.09.54,1.25,1.25,0,0,0-.09.54A2.82,2.82,0,0,0,476,125.1a19.69,19.69,0,0,0,.91-3q.9.54,1.26-.18A.87.87,0,0,1,479.29,121.4Zm1.44-1.44q0-.9.18-.9Q480.91,120,480.73,120Zm13.7-3.07a.38.38,0,0,1-.09.28.37.37,0,0,0-.09.27,13.69,13.69,0,0,0-3.06,2.88,27.15,27.15,0,0,1-3.07,3.24q0,.73-.36.36c-.12.25-.15.37-.09.37s.09.06.09.17a2.22,2.22,0,0,0-1.44,1.27.58.58,0,0,0-.54.36,6.26,6.26,0,0,1-1.89,2.07,3.92,3.92,0,0,0-1.54,2.61q.36.18.36.45a.63.63,0,0,0,.18.46c1.45-.49,2.8-1,4.06-1.54s2.55-1.11,3.88-1.71q-.19-.72,0-.81c.11-.06.18-.21.18-.45a37.51,37.51,0,0,0,6.48-7.21,53.82,53.82,0,0,0,5.05-9l-.18-.18a46.74,46.74,0,0,0-3.78,3.06A29.15,29.15,0,0,1,494.43,116.89ZM491,138a2.76,2.76,0,0,0,1.44-1.26,1.15,1.15,0,0,1-.81.36Q491.17,137.08,491,138Z"/><path class="cls-1" d="M538.05,121.4a4.08,4.08,0,0,1,1.35-2.25,10.43,10.43,0,0,0,1.89-2.08,5.14,5.14,0,0,1-.63.82,2.18,2.18,0,0,0-.45,1,5.34,5.34,0,0,0,3.07-3.43c.48.36.9.25,1.26-.36a2.92,2.92,0,0,1,1.44-1.26l.18-.18a.64.64,0,0,0,.36-.63,1.83,1.83,0,0,1,.36-1,.29.29,0,0,0,.27-.18q.09-.18.45-.18a1.9,1.9,0,0,1,1.09-1.17,2.22,2.22,0,0,0,1.08-.82q.18,0,.72-.54a7.3,7.3,0,0,1,2.88-1.8,5.52,5.52,0,0,0,2.71-2A18.75,18.75,0,0,0,560.4,103a22.39,22.39,0,0,1,4.51-2.53,25.72,25.72,0,0,0,.54-7,17,17,0,0,0-1.62-6.85c-.48.48-1.06,1-1.72,1.62A25.94,25.94,0,0,0,560,90.4l-2.16,2-2.52,2.34-3.25,2.89a28.34,28.34,0,0,1-2.52,2.25,9.58,9.58,0,0,1-2.17,1.35,13.5,13.5,0,0,1-2.34,2.44c-.72.54-1.38.39-2-.46a4.47,4.47,0,0,0-.72-.81.32.32,0,0,0-.36.09c-.13.13-.21.18-.27.18s-.27-.23-.64-.72c-.48,0-.75.16-.81.45s-.09.27-.09-.09a3.21,3.21,0,0,0,.27-.81q.09-.45.45-.27a13,13,0,0,0,2-1.62,3.91,3.91,0,0,0,.72-1.44,4.1,4.1,0,0,1,.9-1.62,4.66,4.66,0,0,1,1.62-.91,3.61,3.61,0,0,0,1.62-1.08,1.69,1.69,0,0,0,.46-.9,1.49,1.49,0,0,1,.45-.9c.47-.36,1-.69,1.44-1a6.25,6.25,0,0,0,1.08-.81,30.38,30.38,0,0,1,3-3.52,24,24,0,0,0,2.44-2.79c1.08-2.4,2.58-3.76,4.5-4.06s3.37,0,4.33.81a6.06,6.06,0,0,1,3.69.91,7.45,7.45,0,0,1,2.08,2.88,6.14,6.14,0,0,1,.9,2.16c.24,1,.45,2,.63,3.16s.36,2.25.54,3.33a17,17,0,0,1,.27,2.71,14.22,14.22,0,0,0,3.79-.91L583,93.73q3-1,5.59-1.8a14.77,14.77,0,0,1,3.7-.81q.18,0,.36-.36.18.36.45.27a2,2,0,0,1,.63-.09q1.26-.36,2.7-.63A5.46,5.46,0,0,0,599,89.14a1,1,0,0,0,.9-.09c.24-.19.54-.39.9-.64V89c.24,0,.36-.29.36-.9a13.34,13.34,0,0,0,3.24,0l2.71-.36a2.53,2.53,0,0,0,1.53.27,3.73,3.73,0,0,0,1.17-.27l2.53.54c0,.61.24.72.72.36-.12.25-.16.4-.09.46a.37.37,0,0,1,.09.27.16.16,0,0,0,.18.18q0,.18.36.18a.16.16,0,0,0,.18-.18,2.05,2.05,0,0,0,.45.81.75.75,0,0,1,.09.81,3.31,3.31,0,0,1-1.62.27,2.88,2.88,0,0,0-1.27.09q0,.36.18.36A.56.56,0,0,1,612,92a2.86,2.86,0,0,1-2,.36q-1.08-.18-1.44,1.08a30,30,0,0,0-3,.81,15.17,15.17,0,0,1-3.34.63,1.5,1.5,0,0,0-.54.9,1.78,1.78,0,0,0-1.71-.18,8.93,8.93,0,0,1-1.53.55,7.38,7.38,0,0,0-2.89.9,10.25,10.25,0,0,1-2.88,1.08l-14.24,5.59-3.07,1.53a6.7,6.7,0,0,0-2.52,2.07,8.51,8.51,0,0,1-1.17,3.79,7.49,7.49,0,0,0-1.17,3.24c-.61.12-1,.36-1.09.72a9.88,9.88,0,0,1-.54,1.26q.36,0,.27-.45t.27-.09c-.24.61-.54,1.3-.9,2.08a5.91,5.91,0,0,1-1.62,2.07q.72.18,0,.63t-.18,1a5,5,0,0,0-.9.63q-.54.45-.18.81c-.24,0-.36.16-.36.45s-.18.34-.54.09c.24.36.24.61,0,.73s-.24.3,0,.54a16.34,16.34,0,0,0-1.89,2.25c-.55.78-1.12,1.53-1.72,2.25q-.18.18.09.09t.09.27a64.18,64.18,0,0,1-5.13,5,18.87,18.87,0,0,1-6.4,3.51q.18-.36-.45-.18c-.43.12-.63.12-.63,0s.11-.33.36-.27a1,1,0,0,0,.72-.09c-.36-.6-.79-.78-1.26-.54a3,3,0,0,1-1.27.36q0,.54-.18.54v-.36a5.92,5.92,0,0,0-1.44.18,3.28,3.28,0,0,1-1.8-.18.16.16,0,0,0-.18.18q0,.18-.36.18a10.6,10.6,0,0,1-9.92-4.68q-.36.18-.45-.09t-.45-.09q-.36-.36-.09-.54c.18-.12.21-.43.09-.9q-.36.7-.72.54t-.72.36c-.36-.36-.33-.61.09-.72s.45-.36.09-.72q-.18-.37-.27,0c-.06.23-.09.11-.09-.37a5,5,0,0,1,.45-1q.27-.45,1.17-.45,0-2.7,1.08-3.6a1.12,1.12,0,0,1-.09.54,1.43,1.43,0,0,0-.09.54,2.8,2.8,0,0,0,1.45-1.71,19.71,19.71,0,0,0,.9-3q.9.54,1.26-.18A.87.87,0,0,1,538.05,121.4Zm1.44-1.44q0-.9.18-.9Q539.67,120,539.49,120Zm13.7-3.07a.38.38,0,0,1-.09.28.37.37,0,0,0-.09.27,13.69,13.69,0,0,0-3.06,2.88,27.15,27.15,0,0,1-3.07,3.24q0,.73-.36.36c-.12.25-.15.37-.09.37s.09.06.09.17a2.22,2.22,0,0,0-1.44,1.27.58.58,0,0,0-.54.36,6.26,6.26,0,0,1-1.89,2.07,3.92,3.92,0,0,0-1.54,2.61c.24.12.37.27.37.45a.6.6,0,0,0,.18.46c1.44-.49,2.79-1,4.05-1.54s2.55-1.11,3.88-1.71q-.18-.72,0-.81c.11-.06.18-.21.18-.45a37.89,37.89,0,0,0,6.49-7.21,54.5,54.5,0,0,0,5-9l-.18-.18a46.74,46.74,0,0,0-3.78,3.06A29.15,29.15,0,0,1,553.19,116.89ZM549.77,138a2.73,2.73,0,0,0,1.44-1.26,1.12,1.12,0,0,1-.81.36Q550,137.08,549.77,138Z"/><path class="cls-1" d="M677.75,107.7a1.59,1.59,0,0,0-1.63.81c-.48.67-1,1.3-1.44,1.9a1.47,1.47,0,0,1,.18-.55c-1,.73-1.86,1.48-2.7,2.26s-1.74,1.65-2.7,2.61h-.37v-.18q-.36.36-.81.9a.67.67,0,0,1-1,.18,4,4,0,0,0-1.35,1.26,1.89,1.89,0,0,1-1.17.91q-.9.9-1.44,1.35l-1.63,1.35q0-.18-.36-.18A3.86,3.86,0,0,1,659,121.4a26.6,26.6,0,0,0-3.51,2.25,5.14,5.14,0,0,1-3.16,1.18,19.77,19.77,0,0,0-2.34.36,3.68,3.68,0,0,1-1.62,0,10.7,10.7,0,0,0-3.61.81,5.17,5.17,0,0,1-3.61.27,2.17,2.17,0,0,0-1.26-1.26,18.13,18.13,0,0,0-1.71-.91,2.32,2.32,0,0,1-1.17-1.62,7.18,7.18,0,0,1-2.89-3.69,17.53,17.53,0,0,1-1-5.59,35.7,35.7,0,0,1,.45-6.58A57.61,57.61,0,0,1,635,100a32.64,32.64,0,0,0-4.87,4.78c-1.56,1.86-3.13,3.63-4.69,5.31a11.94,11.94,0,0,1-2,2.71q-1.08,1.08-2.16,2-3.08,3.61-5.77,6.31a.37.37,0,0,1-.09.27,2.08,2.08,0,0,0-.27.45c-1,.72-2.05,1.56-3.25,2.53a23,23,0,0,1-3.69,2.43,10.45,10.45,0,0,1-4,1.17,6.14,6.14,0,0,1-4.23-1.44,2.43,2.43,0,0,1-1.72-.81,4.57,4.57,0,0,0-1.35-1.18,4.2,4.2,0,0,1-2.43-2.16,15.19,15.19,0,0,1-.63-3.78,9.32,9.32,0,0,1,.27-3.25,15.19,15.19,0,0,1,1.17-3.42,24.15,24.15,0,0,1,2.7-6.4c1.2-2,2.35-3.82,3.43-5.5q3.06-4.14,6.22-7.66t6.58-6.94a14,14,0,0,0,2.25-1.44,10,10,0,0,1,2.61-1.44,2,2,0,0,0,2-.45c.72-.55,1.32-.39,1.8.45a18.81,18.81,0,0,1,6.67,1.8,7.72,7.72,0,0,1,4,4.68c.84-.6,1.63-1.14,2.35-1.62a8.31,8.31,0,0,1,2.34-1.08,1.73,1.73,0,0,0,.9-.72q.36-.54.72-.54a4.17,4.17,0,0,1,3.34.72,23.08,23.08,0,0,0,3,1.8.41.41,0,0,1,.45-.09,1.38,1.38,0,0,0,.81-.09l.54.81a4,4,0,0,1,.37.81,17.48,17.48,0,0,1-.82,7,31.54,31.54,0,0,1-2.61,6.31c-.48,2.77-1.14,5.77-2,9a15.72,15.72,0,0,0-.18,8.47,27.1,27.1,0,0,0,10.54-3.16q4.23-2.43,8.56-4.77c1.09-.84,2.08-1.56,3-2.17a13.33,13.33,0,0,0,2.61-2.34.52.52,0,0,1,.36.18v.18c.6,0,1.8-.75,3.61-2.25s3.63-3.07,5.5-4.69,3.6-3,5.22-4.23,2.55-1.63,2.8-1.27a.7.7,0,0,0,.9.09,1,1,0,0,1,.9-.09q.18.38.09.54a.31.31,0,0,0,.09.37V95.8c.12,0,.12.16,0,.46l-.36.9a1.93,1.93,0,0,1-.36.63q-.18.18,0-.36l-.81.81-.81.81a8.42,8.42,0,0,0-.45,1.26q-.1.36-.45,1.26a1.06,1.06,0,0,1-.73-.18,2.33,2.33,0,0,1-1,1.26,2.53,2.53,0,0,0-1,1.45q-.36,0-.72.9ZM628.54,92.2a10.75,10.75,0,0,0-1.36-4q-1-1.62-3.51-.36l-2.88,3.25a2.35,2.35,0,0,1-.91.81,3.43,3.43,0,0,0-.9.63,4.7,4.7,0,0,0-.72,1,13.16,13.16,0,0,1-.9,1.35l-2.52,2.89a52.51,52.51,0,0,0-3.88,5.68q-1.89,3.15-3.33,6a7.29,7.29,0,0,1-.9,1.63,6.13,6.13,0,0,0-.91,2.16q-.36-.18-.36.09t-.18.09A8.77,8.77,0,0,1,604,116.8a6.27,6.27,0,0,0-.9,3.52q1.44-.9,3.06-1.8a11.67,11.67,0,0,0,2.71-2q5.22-5,10-10.54t9.47-11.27a2.88,2.88,0,0,0,.9-1,1.66,1.66,0,0,1,.9-.81v-.36A2.45,2.45,0,0,0,628.54,92.2Z"/><path class="cls-1" d="M735.61,98.15a1,1,0,0,0,.72-.36,1.22,1.22,0,0,0,.36-.9q.36.18.9-.45a3.27,3.27,0,0,0,.72-1.36,3.26,3.26,0,0,1,.81-.18,1.73,1.73,0,0,0,.81-.36v.36a10,10,0,0,1,2.26-1.44,2.7,2.7,0,0,0,1.53-1.62q.18.18,1.35-.36a22.3,22.3,0,0,0,2.34-1.26c.78-.48,1.54-1,2.26-1.44s1.08-.79,1.08-.91a1.2,1.2,0,0,0,.72-.27.64.64,0,0,1,.72-.09,5.08,5.08,0,0,1,3.6-1.62,5.51,5.51,0,0,0,3.61-1.44q.36,1.26-.18,1.17t-1.08.81a1.17,1.17,0,0,0,1-.36q.27-.36.81,0,0,.18-.72.18V87l-.36-.36q-.36,0-.09.36a.64.64,0,0,1,.09.72c-.24-.11-.33-.21-.27-.27a.37.37,0,0,0,.09-.27q-.72.18-.27.81t.81.27a.92.92,0,0,1-.72,1.18q-.9.27-.72,1.71a6.89,6.89,0,0,0-3.25,1.62,2.77,2.77,0,0,0-2.07,1.17,6.54,6.54,0,0,1-2.07,1.71.29.29,0,0,1-.18.28c-.12.06-.12.21,0,.44A5.55,5.55,0,0,0,749,97c-.73.42-1.51.84-2.35,1.26a25.17,25.17,0,0,0-2.25,1.26,10,10,0,0,0-1.17.81v-.54a1.13,1.13,0,0,0-.54.54,2.78,2.78,0,0,1-.36.54c-.25-.36-.64-.36-1.18,0a2.18,2.18,0,0,0-1,1.26v-.18a11.77,11.77,0,0,0-1.17,1.36,3,3,0,0,1-1.35,1q-.18,0-.18-.54-.72,0-.72,1.26a2.92,2.92,0,0,0-1.53.81,16.94,16.94,0,0,0-1.36,1.53l-.18-.9a2,2,0,0,1-.36.72q-.18.18,0,.54-.36-.36-.72.36t-.72.36a5,5,0,0,1-2.07,2,4,4,0,0,0-1.89,2c-.13-.24-.31-.27-.55-.09a6.76,6.76,0,0,0-.72.63q-1.08,1.08-.9,1.08a1.41,1.41,0,0,0-1.26,1.26q-.36-.36-1.08.45a7.27,7.27,0,0,0-1.08,1.54c-.12,0-.18-.06-.18-.19a.82.82,0,0,0-.72.82q0,.63-.9.63a3.41,3.41,0,0,1-1.72,1.8,2.7,2.7,0,0,0-1.53,1.62.71.71,0,0,0-.45.09.37.37,0,0,1-.27.09,41.59,41.59,0,0,1-5.41,6.31,2,2,0,0,1-.18,1.44,10.12,10.12,0,0,1-.27,1.81,2.06,2.06,0,0,1-1.17,1.62,1.51,1.51,0,0,1,0,1.44,3,3,0,0,0-.36,1.62.73.73,0,0,0-.72.36.77.77,0,0,1,0,1.17c-.36.42-.48.75-.36,1h-.36v.36c0,.11,0,.18.09.18s.09-.07.09-.18a3.24,3.24,0,0,1-.27,1.44,3.24,3.24,0,0,0-.27,1.44q-.18.18-.18-.18v-.36a7.16,7.16,0,0,0-.82,1,4,4,0,0,0-.63,1.35,1.33,1.33,0,0,0,.63-.9.88.88,0,0,1,.64-.72,8.54,8.54,0,0,1-.18,1.71,1.65,1.65,0,0,1-1.09,1.17v.36c-.36,0-.63.24-.81.73a6.22,6.22,0,0,0-.36,1.53,6.33,6.33,0,0,1-.36,1.53,1.37,1.37,0,0,1-.81.9,6.81,6.81,0,0,1-.45,2.44,3.28,3.28,0,0,1-1.35,1.71q0,.18.54.18a9.46,9.46,0,0,0-.9,1.44,2.35,2.35,0,0,1-1.08,1.08q-.18.72,0,.81a.3.3,0,0,1,.18.27,4.36,4.36,0,0,0-.73.45c-.24.18-.3.51-.17,1q-.2-.19-.27.18a.42.42,0,0,0,.27.54q0-.54.27-.27c.18.18.33,0,.45-.45.24.23.2.41-.09.54s-.34.29-.09.54a2.26,2.26,0,0,0-1.63,1.26c.36,0,.72-.3,1.09-.9a2.22,2.22,0,0,1-1.27,1.44,1.85,1.85,0,0,0-1.08,1.62q0,.18.09.18t.09.18h.36l.18-.18q-.36-.36-.09-.54a1.36,1.36,0,0,0,.45-.54q.36.36.45.18a.29.29,0,0,1,.27-.18q0,.72-.54.72-.18.18.09.18t.09.36a2.1,2.1,0,0,0-1.71,1.71c-.18.91-.39,1.78-.63,2.62a1.89,1.89,0,0,0-1,.27q-.45.27-.09.63.36,0,.36-.18t.36-.36q.36.54-.27,1.08a1.62,1.62,0,0,0-.63,1.26q-.36,0-.54.63a.83.83,0,0,1-.9.63c.36,1,.24,1.56-.36,1.81s-.79.6-.54,1.08c-.25,0-.4.06-.46.18a.29.29,0,0,1-.27.18c.12.24.19.3.19.18a.61.61,0,0,1-.28.54,1.36,1.36,0,0,0-.45.54q.36,0,.36-.18c0-.12.12-.06.37.18,0,.24-.1.33-.28.27s-.39,0-.63.27a10.43,10.43,0,0,1-1.62,3.25.22.22,0,0,0,0,.36h.18a1.29,1.29,0,0,1-.9.54c-.48.11-.6.48-.36,1.08a.52.52,0,0,0,.36-.18q.18-.18.18.18a4.42,4.42,0,0,0-1.35,1.17q-.45.63-1.17,1.53h.18a14.84,14.84,0,0,0-2.71,4h-.54a28.72,28.72,0,0,1-2.88,3.42c-1,1-2.11,2-3.43,3.07h-.72a1.14,1.14,0,0,1-.63.54,1.73,1.73,0,0,0-.81.9q-1.26.36-1.8.54a12.45,12.45,0,0,1-1.44.36l-2.71-.36a8.82,8.82,0,0,0-2.52,0,9.52,9.52,0,0,0-2.53-.81,12.84,12.84,0,0,1-2.7-.81,1.22,1.22,0,0,1-1.35-.45,1.52,1.52,0,0,1-.09-1.53,1.08,1.08,0,0,0,.36.72l.36.36c.24,0,.36-.25.36-.72,0-.13-.18-.19-.54-.19a6.69,6.69,0,0,0,.18-1.62V191.7h-.18a59.24,59.24,0,0,1,2.25-8.29c.9-2.52,1.84-5,2.8-7.39q.36,0,.18.27a1.11,1.11,0,0,0-.18.63,4.53,4.53,0,0,0,1.44-2.7,12.35,12.35,0,0,1,2.52-5.23,9.71,9.71,0,0,1-1.26,3.06,6.71,6.71,0,0,0-.9,3.61,1.14,1.14,0,0,0,.27-.54.42.42,0,0,1,.45-.36,1.46,1.46,0,0,1-.27.9,3.29,3.29,0,0,0-.45,1.26q.36-.54.81-1.26t-.09-1.08q1.08-2.54,2.07-4.33a16.39,16.39,0,0,0,1.54-4q.72-.18.72-1.26a1.45,1.45,0,0,1,.72-1.44v.18q.36-.18.18-1.08a1.87,1.87,0,0,1,.18-1.44q.18-.18,0,.27t.18.45q.36-1.08.54-1.08v.18c1.08-.12,1.8-.9,2.16-2.35q.36.18.72-1a2.78,2.78,0,0,1,.9-1.53,3.68,3.68,0,0,1-1.35,2.7,2.49,2.49,0,0,0-1,2.53,19.31,19.31,0,0,0-2.7,4.41q-1.08,2.44-2.17,5l2.08-3.78c.66-1.21,1.29-2.47,1.89-3.79a1.82,1.82,0,0,0,.72-.81,8.25,8.25,0,0,0,.36-1.53q.36.36.27.18t.27-.18a7.62,7.62,0,0,1,1.53-2.53,6.12,6.12,0,0,0,1.36-3.06,4.36,4.36,0,0,1,.63-.54,1.36,1.36,0,0,0,.45-.54,1.57,1.57,0,0,0,.45-.81,3.21,3.21,0,0,1,.27-.81,13.57,13.57,0,0,0-1.53,1.8,8.05,8.05,0,0,0-1,1.8h.18v.36c-.49-.24-.58-.48-.28-.72a1.12,1.12,0,0,0,.46-.9l-.36.72a.76.76,0,0,1,.09-.81.75.75,0,0,1,.63-.45,2.8,2.8,0,0,1,1.08-1.71,2.14,2.14,0,0,0,.9-1.54,2.13,2.13,0,0,1,.36-1.35,3.16,3.16,0,0,0,.54-1.35.86.86,0,0,0,1.26-.54,6.84,6.84,0,0,1,.9-1.62,2.81,2.81,0,0,1-1,2.7,4.14,4.14,0,0,0-1.53,2.34,3.94,3.94,0,0,0,1.44-1.53,6.65,6.65,0,0,1,1.62-1.89,8.69,8.69,0,0,1-1.89,2.52,6.3,6.3,0,0,0-1.71,3.07q0,.16.18,0c.12.24.12.38,0,.45s-.12.21,0,.45a5.24,5.24,0,0,0,.36-1.26v.18L683,151.5a1.31,1.31,0,0,1,1.26-1.44q0-.18.36-.54c.12.24.28.24.45,0a1.4,1.4,0,0,0,.27-.9c-.12-.24-.17-.15-.17.27s-.19.57-.55.45a4.06,4.06,0,0,0,.72-1.44,1.61,1.61,0,0,1,1.09-1.08,2.5,2.5,0,0,0,.54-.81.71.71,0,0,1,.72-.46,2.72,2.72,0,0,1-.63.73.8.8,0,0,0-.27.72,4.8,4.8,0,0,0,1.17-1.26,5.79,5.79,0,0,1,1.35-1.45q-1.08-.18-.54-.72a.16.16,0,0,1-.18-.18,2.32,2.32,0,0,0-.81.9,11.26,11.26,0,0,1-.63,1.09.84.84,0,0,1,.27-1.18A1.38,1.38,0,0,0,688,143a7.65,7.65,0,0,0-.72,1.08.82.82,0,0,1,.18-.9,1.22,1.22,0,0,0,.36-.9,5.7,5.7,0,0,0,2.43-2.61,28.33,28.33,0,0,1,1.72-3.16,1.36,1.36,0,0,1-.55,1.44,1.35,1.35,0,0,0-.54,1.45.83.83,0,0,0-.54.9,6.27,6.27,0,0,1-1.26,1.26A3.28,3.28,0,0,0,688,143h.18a7.19,7.19,0,0,0,1.71-1.53l1.35-1.71a3.62,3.62,0,0,1-1.08,2,4.91,4.91,0,0,0-1.26,2.34,1.89,1.89,0,0,0,1.17-1.17,1.12,1.12,0,0,1,1.17-.81,3.51,3.51,0,0,1,.81-1.44,14.61,14.61,0,0,0,1-1.26q.16,0,.54-.36v.18c.48,0,.72-.31.72-.91a25,25,0,0,0,3.15-3.42A17,17,0,0,1,701,131.5a11.64,11.64,0,0,1,.09-1.45,4.45,4.45,0,0,1,.45-1.44A4.16,4.16,0,0,0,700,130.5a10.08,10.08,0,0,0-.82,2.26q-.36-.54-.81,0a1.56,1.56,0,0,0-.45.9.68.68,0,0,0-.63-.09q-.45.09-.45.45-.36-.36.27-.63t.63-.63a2.59,2.59,0,0,0-1.35,1.17,4.24,4.24,0,0,1-1.17,1.35q.36.36.63,0a6.76,6.76,0,0,1,.63-.72,1.79,1.79,0,0,1-.54.63,1.72,1.72,0,0,0-.54,1q0-.18.54,0a.32.32,0,0,1-.36.36q-.36,0-.18.36l-.18-.18a.71.71,0,0,0-.72.54v-.72q-.18,0-.18.36t-.72.18a2.78,2.78,0,0,1,.27-1.26l.45-.9a1.16,1.16,0,0,1,.9-1.62.43.43,0,0,1-.36.45q-.36.09-.18.81a5.19,5.19,0,0,0,1.71-1.89,8.67,8.67,0,0,1,1.53-2.08q.36,0,.36.18a1.52,1.52,0,0,0,.9-1.26,4.28,4.28,0,0,1,.55-1.8q.36-.18.36.54a3.69,3.69,0,0,0,1.62-2.43,25.92,25.92,0,0,1,.54-2.8q.9-3.24,1.89-6.85T706,109q-1.62,1.46-3.06,3a31.22,31.22,0,0,1-3.24,3,2.46,2.46,0,0,1-1.45,2.16,42.35,42.35,0,0,1-4.86,5.41A67,67,0,0,1,688,127a41.75,41.75,0,0,0-4.87,1.71,9,9,0,0,1-5.23.45,11.3,11.3,0,0,1-2.16-.72q-1.26-.54-2.34-.9a7.44,7.44,0,0,1-3.61-2.88,4.17,4.17,0,0,0-.72-2.35,28,28,0,0,1-.18-3.42,5.48,5.48,0,0,1,.9-3.25A31.92,31.92,0,0,1,675,104.1q3.6-4.87,6.67-9.92,2.16-2.16,4.15-4.41a26.07,26.07,0,0,1,4.5-4.06,11.76,11.76,0,0,1,3.79-2.7,3.46,3.46,0,0,1,2.52-.36q.18,0,.54-.36c1.92.36,3.82.63,5.68.81s3.63,1.41,5.32,3.69q2.34.72,2.88,1.62a7.43,7.43,0,0,0,2.16-1.53A9.83,9.83,0,0,1,716.32,85a5.08,5.08,0,0,0,2.79,1.08,4.13,4.13,0,0,1,2.8,1.44,16.44,16.44,0,0,1-.54,6q-.92,3.89-1.27,6.4c-.48,1.68-.9,3.49-1.26,5.41a25.55,25.55,0,0,1-1.44,5,23.55,23.55,0,0,0,3.79-2.62q1.8-1.53,3.78-3l.36.36a25.55,25.55,0,0,1,3.34-2.44,18.31,18.31,0,0,0,3.33-2.61,1.6,1.6,0,0,1,.72.18q.18-.18.09-.18t.09-.36a1.81,1.81,0,0,0,1.72-.72q.81-.9,1.53-1.62.36.18-.09.27T735.61,98.15Zm-75,95.35a3.41,3.41,0,0,0-.18,1.09.88.88,0,0,0,.45-.64Q661,193.5,660.62,193.5Zm4-11.89a1.83,1.83,0,0,1,.36-1.18,2.13,2.13,0,0,0,.36-1.35q-.36.72-.72,1.35A1.06,1.06,0,0,0,664.59,181.61Zm.72-2.71q.36.18.36-.27t-.36-.45Zm4.32,7.21a13,13,0,0,1-.81,3.07,2.88,2.88,0,0,0,.27,2.88q.72.36.9,0a1.23,1.23,0,0,1,.54-.54,4.07,4.07,0,0,1,1.18-1.08,4.7,4.7,0,0,0,1-.72q.72-1.26.9-1.26c.84-.25,1.32-.61,1.44-1.09a1.21,1.21,0,0,1,1.08-.54v-.72a2.82,2.82,0,0,1,.72-.54l.72-.36A28.82,28.82,0,0,1,680.9,180a21.65,21.65,0,0,0,3.15-5.4,1.93,1.93,0,0,0,.82-1.27,1.41,1.41,0,0,1,.63-1.08c0-.12,0-.18.09-.18s.09-.12.09-.36a21.19,21.19,0,0,0,2.07-3.69c.54-1.26,1.17-2.56,1.89-3.88a14.51,14.51,0,0,1,1.8-4.77,12.63,12.63,0,0,0,1.63-5,2.27,2.27,0,0,0,.81-1.35c.18-.67.39-1.48.63-2.44a38.78,38.78,0,0,0,1.62-4.23,28.13,28.13,0,0,1,1.62-4.06,1.54,1.54,0,0,0-1.17.72,2.32,2.32,0,0,1-.81.9q0-.36-.18-.36l-.36.72a.73.73,0,0,1-.72.36,27.5,27.5,0,0,1-2.35,3,14.4,14.4,0,0,0-2,2.79q-.36-.18-.54.27a1.73,1.73,0,0,1-.9.81v.81c0,.3-.12.46-.36.46a.56.56,0,0,0,.18-.37.73.73,0,0,0-.18-.54,9.84,9.84,0,0,1-1.53,2.08,9.77,9.77,0,0,0-1.54,2.07l-.36-.18a13.55,13.55,0,0,0-1.71,3,30.24,30.24,0,0,1-1.53,3.16q0-.9-.27-.36l-.45.9v-.18h-.18a8,8,0,0,1-1.08,2.52,8,8,0,0,0-1.08,2.53.24.24,0,0,1-.36,0,6.3,6.3,0,0,1-1.27,3.06v-.18a.52.52,0,0,0-.18-.36,8.54,8.54,0,0,1-1.35,2.43,8,8,0,0,0-1.35,2.8c0-.25-.06-.36-.18-.36a54.28,54.28,0,0,0-3.06,8.83c-.24,0-.33-.06-.28-.18s0-.12-.27,0l-.54,2.34a.37.37,0,0,1-.09.27.37.37,0,0,0-.09.27Zm0-.18.18-.18q0,.18-.09.18t-.09.18Zm.9-15a1.26,1.26,0,0,0-.36.9.57.57,0,0,0,.18-.45A.65.65,0,0,1,670.53,171Zm37.32-81.65a9.81,9.81,0,0,0-5.77.63,24.6,24.6,0,0,0-4.69,2.61,32.69,32.69,0,0,0-4.5,3.78A39.33,39.33,0,0,0,690,99.59a39.28,39.28,0,0,1-2.88,3.24l-.81.82-.63.63a.57.57,0,0,0-.18.45.62.62,0,0,1-.19.45q-.36.36-.54.36a.52.52,0,0,0-.36.18,40.32,40.32,0,0,0-3.24,5.41q-1.44,2.88-2.88,5.94a12.28,12.28,0,0,0-.82,3.07,12,12,0,0,0-.09,3.24,14.8,14.8,0,0,0,2.8-1,18.42,18.42,0,0,0,2.43-1.35,40.62,40.62,0,0,1,4.33-3.78q2-2,4-3.79c1.38-1.2,2.74-2.46,4.06-3.79a4.64,4.64,0,0,0,1.8-1.62q.72-1.08,1.44-2c1.56-1.68,3.13-3.34,4.69-5a36.63,36.63,0,0,0,4.33-5.5,4,4,0,0,1,.63-2.88,10.06,10.06,0,0,0,1.35-2.52.66.66,0,0,1-.81-.18A6.76,6.76,0,0,0,707.85,89.32ZM678.47,156q.16,0,0,.18Zm1.62-.72q0-.36-.09-.36t-.09-.18q-.18.36-.45.81t.09.63l1.44-1.62a.42.42,0,0,0-.45.27A.82.82,0,0,1,680.09,155.29Zm2.88-2.52q.18.16.18,0V152q-.18-.18-.27.27C682.82,152.61,682.85,152.77,683,152.77Zm2.34-4.51c.37,0,.55-.06.55-.18s.11-.3.36-.54c-.36,0-.58.06-.63.18S685.43,148,685.31,148.26Zm7.94-9.37a.4.4,0,0,1-.09.27.33.33,0,0,0-.09.27h-.18C692.89,139.31,693,139.13,693.25,138.89Zm.18-.19-.18.19Zm.18.19.18-.19Zm.9-4.15a.16.16,0,0,0-.18.18.52.52,0,0,0,.18-.36Zm2,31.73-.18.36h.18C696.73,166.58,696.73,166.47,696.49,166.47Zm0-27.94.81-.82a1.24,1.24,0,0,0,.45-.81q-.36.36-.9.81C696.49,138,696.37,138.28,696.49,138.53Zm2.89-3.43a.56.56,0,0,0,.36-.18c.11-.12,0-.3-.19-.54,0,.24,0,.36-.08.36S699.38,134.86,699.38,135.1Zm27.93-25.42a.77.77,0,0,0,.64-.36c.18-.24.14-.36-.09-.36,0,.12-.09.22-.27.27A.43.43,0,0,0,727.31,109.68Zm1.09-.72a1.53,1.53,0,0,0,1.26-.9A1.28,1.28,0,0,0,728.4,109Zm4.86-5.4c.24.24.36.12.36-.37s-.06-.59-.18-.36a.34.34,0,0,1-.09.27A.77.77,0,0,0,733.26,103.56Zm.54-1.09c-.12,0-.18.16-.18.45a.89.89,0,0,0,.18.64,5.35,5.35,0,0,1,.45-.73C734.43,102.6,734.28,102.47,733.8,102.47Zm.91-.54c0,.12-.09.25-.28.36s-.15.31.09.54a2.2,2.2,0,0,1,.37-.54c.11-.11.18.07.18.54a2.29,2.29,0,0,0,1.44-1.08,2.72,2.72,0,0,1,.9-1.08v-.54a2.77,2.77,0,0,0-1.17,1A1.9,1.9,0,0,1,734.71,101.93Zm3.06-2.34q.18.18,0,.45t.18.27q.36-.18.63.45t.27.09q-.36,0-.54-.54A1.16,1.16,0,0,0,737.77,99.59Zm5.59-2.7q.18,0,.54-.36c.24-.24.18-.42-.18-.55C743.36,96.34,743.24,96.65,743.36,96.89Zm9.37-6.13q0,.54-.81.63t-.63.81a4.19,4.19,0,0,1,1.08-.72Q753.09,91.12,752.73,90.76Z"/><path class="cls-1" d="M811.49,104.1q.36.54-1.26,1.8a34.93,34.93,0,0,0-3.24,2.88,11.31,11.31,0,0,0-1.63,1.26,7.62,7.62,0,0,0-1.44,1.45l-1.08.9-3.06,2.34-1.45.9-2.52,1.63c-2,1.32-4,2.58-5.77,3.78a31.66,31.66,0,0,1-6.67,3.25,2.28,2.28,0,0,0-.63.17c-.3.13-.63.25-1,.37s-.9.24-1.26.36a2.78,2.78,0,0,0-1.26.27,3.24,3.24,0,0,1-1.44.27q-.19,0,.18-.36l-1.45.27a3.07,3.07,0,0,0-1.26.63.71.71,0,0,0-1,.09.93.93,0,0,1-1.17.09.91.91,0,0,1-1.08.36,1.25,1.25,0,0,0-1.26.36q-.37-.18-.18-.27t-.18-.27a3.26,3.26,0,0,1-1.36.09,2.73,2.73,0,0,0-1.71.45q-.54-.36-.81-.18t-1.17-.18l-.18.36a13.16,13.16,0,0,0-4-.36,5.58,5.58,0,0,1-1.08-.36.59.59,0,0,0-.72.18c-1.32-.24-2.56-.51-3.7-.81a22.53,22.53,0,0,1-3.69-1.36,11.09,11.09,0,0,1-3.79-2.61,37,37,0,0,1-3.06-3.69,11.46,11.46,0,0,1-1.08-2.53q-.36-1.26-.72-2.34a9.68,9.68,0,0,1,0-5.23q.36-2,1.17-5.41a15.11,15.11,0,0,1,2.79-5.94L751.47,92l2.7-3.61c1-.72,1.74-1.32,2.35-1.8a18.07,18.07,0,0,0,2.16-2.16,8.23,8.23,0,0,1,2.16-1.53A8,8,0,0,0,763,81.38a16.94,16.94,0,0,0,2.53-2,29.65,29.65,0,0,1,2.7-1.71,12.53,12.53,0,0,1,2.71-1.17,2.54,2.54,0,0,1,1.44-.36,2.56,2.56,0,0,0,1.44-.36l.72-.36a2,2,0,0,1,.9-.18,7.75,7.75,0,0,0,2.44,2.43,7.93,7.93,0,0,1,2.43,2.43q1.26.36,1.44,1.26A2.78,2.78,0,0,0,782.83,83a5.2,5.2,0,0,1,.09,2.52,9.38,9.38,0,0,1-1,2.34,1.06,1.06,0,0,0-.36.72,1.61,1.61,0,0,1-.18.73,3.62,3.62,0,0,1-1.17,1.53,9.22,9.22,0,0,0-1.53,1.53,2.88,2.88,0,0,0-.63,1.08c-.18.48-.4,1-.63,1.44l-1.81,1.81q-1.08,1.08-2,2.16a5,5,0,0,1-2.25,1.8,5.53,5.53,0,0,0-2.26,1.62,1.24,1.24,0,0,0-.54,1.09,18.31,18.31,0,0,1-3.33,2.61,18.39,18.39,0,0,0-3.34,2.61,14,14,0,0,0-5.31,2.17,7.09,7.09,0,0,1-5.68.9c-.25.12-.27.24-.09.36a1.47,1.47,0,0,0,.81.18q-.54.9-.09,1.35a2.53,2.53,0,0,1,.63,1,20,20,0,0,0,3.42,2.71,11.15,11.15,0,0,0,4.33,1.62,21.58,21.58,0,0,0,12.62.18q2-.36,3.69-.72a26.32,26.32,0,0,0,4.06-1.27,43.33,43.33,0,0,0,5.23-2.34l2.34-1.08q.54-.36.63-.27a.11.11,0,0,1,0,.18.26.26,0,0,0-.09.18q0,.09.54-.27l4.69-2.16c1.32-1,2.4-1.72,3.24-2.26s2.1-1.47,3.79-2.79a11.42,11.42,0,0,1,1.08-.81l1.89-1.35,1.89-1.36a12.77,12.77,0,0,1,1.27-.81l1.8-1.8q2.16-1.44,3.69-2.43c1-.66,1.78-1.11,2.26-1.36a2.88,2.88,0,0,1,.72,1.54q.18,1,.72,1-1.08,1.62-1.53,2.43a11.1,11.1,0,0,1-.72,1.17,2.46,2.46,0,0,1-.72.63C812.72,103.29,812.21,103.62,811.49,104.1ZM773.28,83.91q-.54.36-1.26.9t-1.26.9c-.49,0-.79.12-.91.36a5.88,5.88,0,0,0-.63.36,5.88,5.88,0,0,1-.63.36l-1.44,1.08a6.61,6.61,0,0,1-1.8,1.35,10.88,10.88,0,0,0-1.8,1.18,13.33,13.33,0,0,1-2.08,2.25,12.92,12.92,0,0,0-2.07,2.25A11.51,11.51,0,0,0,756.15,98q-2,2-3.6,3.87a16.46,16.46,0,0,0-2.52,3.88,21.06,21.06,0,0,0,6.49-3.43q3.06-2.34,6.48-4.86l2.17-1.81a11.46,11.46,0,0,0,2-2.16,18,18,0,0,0,3.7-3,33.68,33.68,0,0,0,3.51-4.06,10.2,10.2,0,0,1,.81-1.62,1.39,1.39,0,0,0,.09-1.44,7.44,7.44,0,0,0-1,.09A1.69,1.69,0,0,0,773.28,83.91Z"/></svg>