<svg id="Layer_1" data-name="Layer 1" xmlns="http://www.w3.org/2000/svg" width="560" height="136" viewBox="0 0 560 136"><defs><style>.cls-1{fill:#f8f1e7;}</style></defs><title>Artboard 1</title><path class="cls-1" d="M4.68,106.65a2.21,2.21,0,0,0,.13,1.91,1.37,1.37,0,0,1-.13,1.67c.42.17.62.41.62.74a1,1,0,0,0,.25.74,2.14,2.14,0,0,0,.62-.06.69.69,0,0,1,.49.06c-.41.42-.54.79-.37,1.12a1.17,1.17,0,0,1-.49-.07,1.21,1.21,0,0,0-.38-.06.38.38,0,0,0-.24.13q-.12.12.12.24a5,5,0,0,1-2.22-.92l-1.6-1.27a3.21,3.21,0,0,0-.43-1.11l-.69-1.12a1.18,1.18,0,0,0,.25-1.24l-.5-1.26q.62-3.72,1.17-7.24A55.35,55.35,0,0,1,3.2,91.07c.32-1.33.74-2.75,1.24-4.21s1-3,1.48-4.7A2.56,2.56,0,0,0,6,81.38a2.25,2.25,0,0,1,.37-1L6.78,80c.09-.07,0-.24-.12-.49H7a.28.28,0,0,0-.19-.31.3.3,0,0,1-.18-.31l4.42-14.61c0-.16.11-.21.31-.12A.33.33,0,0,0,11.8,64c.09-.13.14-.22-.07-.18s-.31,0-.31-.19a38.29,38.29,0,0,1,2-6.17q1.37-3.35,2.34-6.18a14.33,14.33,0,0,0,.69-1.55c.21-.54.39-1.09.56-1.66l.25-.25h-.12a41,41,0,0,1,2.09-6q1.38-3.15,1.86-4.63a34.65,34.65,0,0,1,2.47-5,.77.77,0,0,0,.06-.56,2.6,2.6,0,0,1-.06-.56.12.12,0,0,1,.1-.12h0q.24,0,.24-.12a8.46,8.46,0,0,0,.74-2.35,3.85,3.85,0,0,0,1-2.29,3.5,3.5,0,0,1,1.55-2.41l.37-1.49a5,5,0,0,1,.38-1,8.24,8.24,0,0,0,.92-2,8.68,8.68,0,0,1,.93-2.06,16.47,16.47,0,0,1,1.48-2.78,7.19,7.19,0,0,0,1.12-2.66.65.65,0,0,0,.24-.5v-.49A8.3,8.3,0,0,1,34.22,7.7a7,7,0,0,0,1.37-3.21l-.37.24a2,2,0,0,1,.12-.68,2.21,2.21,0,0,0,.12-.81c0-.08.13-.24.38-.5.57-.49,1.09-.94,1.55-1.37A12.89,12.89,0,0,0,38.68,0a.82.82,0,0,1,.43.12.76.76,0,0,0,.44.13,7.43,7.43,0,0,0,1.86,1,13.05,13.05,0,0,0,2.22.62h.12L44,2.1a3.25,3.25,0,0,1,.18.43,1.25,1.25,0,0,0,.31.44,4.4,4.4,0,0,1-.24,2.84c-.17.67-.29,1.27-.38,1.79a6.38,6.38,0,0,1-.61,1.8,5.36,5.36,0,0,1-1,1.73,3.83,3.83,0,0,0-.94,1.79,2.57,2.57,0,0,0,.06.68,1,1,0,0,1-.06.55,5.8,5.8,0,0,1-.93,1.92c-.46.61-.89,1.26-1.3,1.92a16.29,16.29,0,0,0-.62,2.06,8.82,8.82,0,0,1-.74,2.05c-.42.69-.79,1.22-1.11,1.68s-.89,1.13-1.37,1.66l-7.39,17.4a.35.35,0,0,1-.19.49c-.19.08-.18.21.07.38a.5.5,0,0,1-.5.24,2,2,0,0,1-.33,1.18,8.7,8.7,0,0,1-.68.8c-.09.17,0,.31.18.44s.23.26.06.43c-.49.16-.78.74-.86,1.73a4.49,4.49,0,0,1-1.11,2.6,1,1,0,0,1-.62-.19c-.16-.13-.16-.27,0-.44-.16-.16-.29-.18-.37-.06s-.25.15-.49.06a.28.28,0,0,0-.07.31c.05.13,0,.24-.18.32h.37a1.85,1.85,0,0,1-.37.31c-.08,0,0,.18.25.43a2.92,2.92,0,0,1,.49-.19c.16,0,.25-.22.25-.55a.55.55,0,0,1,.31,0,.75.75,0,0,0,.3.07,10,10,0,0,1-.24,1A3.11,3.11,0,0,0,24,53a1.27,1.27,0,0,0-.68.37.79.79,0,0,1-.93.13A1.23,1.23,0,0,0,23,52c-.25-.08-.39-.06-.43.06s-.15.15-.31.07c.24.16.32.28.24.37s0,.28.13.61a1.29,1.29,0,0,1-.75.31.92.92,0,0,0-.74.56c0,.08.08.1.25.06a.54.54,0,0,1,.49.18,1,1,0,0,0,.62-.37l-.3.62a2.29,2.29,0,0,0-.2,1c.26,0,.33-.12.26-.37.41.25.45.48.12.68a1.26,1.26,0,0,1-1,.19c0,.16.08.23.24.19a.36.36,0,0,1,.37.06c-.08.16-.33.24-.74.24.09.42-.16.87-.74,1.38a2.12,2.12,0,0,0-.83,1.61c0,.08.1,0,.3-.19a.89.89,0,0,0,.31-.68.41.41,0,0,1,.37-.06,4.24,4.24,0,0,0,.5.18,5.83,5.83,0,0,0,.61-.8,4.67,4.67,0,0,0,.51-.93l.24.5-.62,1a1.3,1.3,0,0,0-.43,1q.06.56-.81.81a3.19,3.19,0,0,0,.5-1.49c-.33.09-.52.25-.56.5a1.05,1.05,0,0,1-.31.62,1.12,1.12,0,0,0-.86.37.5.5,0,0,0,.12.37.5.5,0,0,1,.13.37c.32.17.47.15.43-.07s.06-.21.31-.05a.75.75,0,0,1-.69.69,7.26,7.26,0,0,0-.93.06q-.36.24,0,.18c.25,0,.29,0,.13.19-.33-.08-.52-.08-.56,0s-.14,0-.31-.13l-.73,1a.76.76,0,0,0,.74-.13.74.74,0,0,1,.74-.12A2.62,2.62,0,0,0,18,63.72q-.49-.12-.18-.24c.2-.09.22-.21.06-.37s-.27-.09-.31,0-.15.08-.31,0a.38.38,0,0,0,0,.43c.07.12,0,.18-.25.18a.22.22,0,0,0,.17.25h.57a.77.77,0,0,1-.43.8,1.38,1.38,0,0,0-.68.8l.37.2a1.06,1.06,0,0,0,.5,0l-.69.32c-.29.12-.43.43-.43.92-.17.17-.17.25,0,.25a.22.22,0,0,1,.25.19h0v.06a5.94,5.94,0,0,0-1.24,2.22,8.28,8.28,0,0,1-1,2.23c0,.08.17.12.5.12a10.18,10.18,0,0,0-1.42,3.34,11.75,11.75,0,0,1-1.68,3.71c0,.17.11.2.31.12a.68.68,0,0,1,.56,0A7,7,0,0,0,12,80.36c-.33.53-.42.88-.25,1a1.18,1.18,0,0,0-.49.74,4.22,4.22,0,0,0-.13,1,4.21,4.21,0,0,1-.12,1,1.11,1.11,0,0,1-.62.75l-.18.18a.79.79,0,0,1,.43-.07,1.45,1.45,0,0,0-.56,1.12,1.43,1.43,0,0,1-.55,1.11c-.09.17,0,.31.18.43a2.93,2.93,0,0,1,.56.44c-.33-.09-.52-.07-.56.06s.06.18.31.18a1.2,1.2,0,0,0-.74,1,15,15,0,0,1-.37,1.61c0,.17,0,.21.12.13a.34.34,0,0,1,.25-.13c-.25.25-.21.37.12.37a.74.74,0,0,0-.24.5c0,.16-.21.2-.62.12,0,.17.06.25.18.25a.39.39,0,0,1,.31.12,2.43,2.43,0,0,0-1,1.37A9.3,9.3,0,0,1,7.54,95c-.42-.08-.5-.18-.25-.3s.29-.24.13-.32c-.34.08-.52.23-.57.44s-.18.26-.43.18c0-.08.08-.12.25-.12,0-.17-.06-.23-.19-.18a.3.3,0,0,1-.3-.07,1.74,1.74,0,0,0,.11-.87q-.24,0-.18.24a2.07,2.07,0,0,1,.06.5,2.07,2.07,0,0,0-.5.06.29.29,0,0,0-.24.31.35.35,0,0,0,.46-.15h0a.11.11,0,0,0,0-.08c.25.24.33.43.25.55a.61.61,0,0,0,0,.56,1.45,1.45,0,0,0,.92-.06,2,2,0,0,1,1.31.06,3.11,3.11,0,0,0-.5.74c-.17.33-.54.41-1.11.25a2.11,2.11,0,0,1,0,1c-.09.25-.21.58-.37,1,.16.17.28.17.37,0a.23.23,0,0,1,.3-.15h.07c.41.16.45.35.12.55s-.29.44.13.69a1.43,1.43,0,0,0-1,.06.67.67,0,0,0-.25.56v.8a1,1,0,0,1-.25.69c-.25.08-.31,0-.18-.19s0-.31-.31-.31l-.25.5c-.08.16-.25.16-.49,0q-.14.24,0,.24c.08,0,.08,0,0,.13.16.16.29.18.37.06s.16-.15.24-.06c-.08.24-.18.35-.3.31l-.56-.19a7.23,7.23,0,0,0,.25,1.73c.16.69.33,1,.49.87Zm0-6.18a.67.67,0,0,0,.13-.49,1.08,1.08,0,0,0,.12-.5c-.16.16-.25.29-.25.37l-.37.5a.82.82,0,0,1-.24.37.33.33,0,0,0-.25.12l-.12.25h.86l.25.25a.34.34,0,0,0-.13-.25Zm.13.87a.34.34,0,0,0-.13-.25v-.62a.67.67,0,0,0,.13-.49,1.08,1.08,0,0,0,.12-.5c-.16.16-.25.29-.25.37l-.37.5a.82.82,0,0,1-.24.37.33.33,0,0,0-.25.12l-.12.25h.86Zm.37-8.79c-.17,0-.25,0-.25-.06s0-.06-.12-.06h.1a.51.51,0,0,0,.25-.49.12.12,0,0,1-.13-.1H5c-.24,0-.37.17-.37.5h-.1l-.25.24a.49.49,0,0,0,.5.25c.24,0,.37-.09.37-.25Zm0,0c-.17,0-.25,0-.25-.06s0-.06-.12-.06h.1a.51.51,0,0,0,.25-.49.12.12,0,0,1-.13-.1H5c-.24,0-.37.17-.37.5h-.1l-.25.24a.49.49,0,0,0,.5.25c.24,0,.37-.09.37-.25Zm-.74-1.37h.24a.33.33,0,0,0,.25-.12c.17-.08.25-.19.25-.31a.67.67,0,0,1,.24-.43H5.18Zm0,0h.24a.33.33,0,0,0,.25-.12c.17-.08.25-.19.25-.31a.67.67,0,0,1,.24-.43H5.18Zm.61,6.06a.54.54,0,0,1-.3.31.28.28,0,0,0-.19.31c.17.16.29.16.37,0s.17-.17.25,0L5.05,98v.25l-.37.37H4.56v.25q0,.12-.06.12c-.06,0-.06,0-.06.12s.16.13.49.13v-.13l-.25-.24c.42.08.6-.07.56-.44a3.37,3.37,0,0,1,.06-1q-.12,0-.12-.06c0-.06,0-.06-.13,0Zm0,0a.54.54,0,0,1-.3.31.28.28,0,0,0-.19.31c.17.16.29.16.37,0s.17-.17.25,0L5.05,98v.25l-.37.37H4.56v.25q0,.12-.06.12c-.06,0-.06,0-.06.12s.16.13.49.13v-.13l-.25-.24c.42.08.6-.07.56-.44a3.37,3.37,0,0,1,.06-1q-.12,0-.12-.06c0-.06,0-.06-.13,0Zm0-9.52a1.59,1.59,0,0,0-.18.8,1.54,1.54,0,0,1,.06.43l.12-.12a.34.34,0,0,0,.13-.25.81.81,0,0,1,.12-.37v-.12c0-.08-.08-.2-.25-.36Zm0,0a1.59,1.59,0,0,0-.18.8,1.54,1.54,0,0,1,.06.43l.12-.12a.34.34,0,0,0,.13-.25.81.81,0,0,1,.12-.37v-.12c0-.08-.08-.2-.25-.36Zm.62,8.07a.37.37,0,0,1-.12-.25q0-.12.06-.12c.06,0,.06,0,.06-.13a.23.23,0,0,1-.18-.06.22.22,0,0,0-.19-.06c.08,0,.12.07.12.25s0,.12-.06.12-.06,0-.06.12l-.12.13v.12H5.8Zm0,0a.37.37,0,0,1-.12-.25q0-.12.06-.12c.06,0,.06,0,.06-.13a.23.23,0,0,1-.18-.06.22.22,0,0,0-.19-.06c.08,0,.12.07.12.25s0,.12-.06.12-.06,0-.06.12l-.12.13v.12H5.8Zm-.49,5.31c.08,0,.22-.18.43-.55a1.2,1.2,0,0,0,.19-.94V99.5H5.42a2,2,0,0,1-.06.49,2.07,2.07,0,0,0-.06.5,1.33,1.33,0,0,0-.12.59Zm.18-1.1a2.07,2.07,0,0,0-.06.5,1.28,1.28,0,0,0-.12.61c.08,0,.22-.18.43-.55a1.2,1.2,0,0,0,.19-.94V99.5H5.42a1.84,1.84,0,0,1-.06.47Zm.69-7.92v-.4c0-.16-.08-.16-.25,0H5.67l-.12.12H5.42c-.16.17-.16.29,0,.37H6L6.17,92Zm0,.13.12-.13H6v-.4q0-.24-.24,0H5.67l-.12.12H5.42c-.16.17-.16.29,0,.37ZM5.93,91a2.16,2.16,0,0,1,.24-.61l.13-.25a.33.33,0,0,0-.25.12l-.12.13c-.25,0-.37.07-.37.24l-.13.13.13.12a.28.28,0,0,1,.18.06.28.28,0,0,0,.18,0Zm0,0a2.16,2.16,0,0,1,.24-.61l.13-.25a.33.33,0,0,0-.25.12l-.12.13c-.25,0-.37.07-.37.24l-.13.13.13.12a.28.28,0,0,1,.18.06.28.28,0,0,0,.18,0Zm0,11.38c.24.08.26.26.06.55s-.39.39-.56.31a.4.4,0,0,1,.19-.37.92.92,0,0,0,.3-.51Zm.49,2.23c.16.15,0,.28-.43.37s-.48,0-.06-.37a.42.42,0,0,0,.3.12.16.16,0,0,0,.18-.12v0Zm-.25-6.44q0-.12.06-.12c.06,0,.06-.06,0-.17H5.92a.23.23,0,0,0-.25.19v.06a.11.11,0,0,1,.13.09h0v.15L6,98.5a.38.38,0,0,0,.13-.25Zm0,0q0-.12.06-.12c.06,0,.06-.06,0-.17H5.92a.23.23,0,0,0-.25.19v.06a.11.11,0,0,1,.13.09h0v.15L6,98.5a.38.38,0,0,0,.13-.25Zm.37-8.66H6.17c-.17.17-.25.29-.25.38L6,90a.26.26,0,0,0,.19-.07.2.2,0,0,1,.18-.06c0-.09,0-.12.06-.12s.07,0,.07-.13Zm-.37,0c-.16.17-.24.29-.24.38l.12.13A.24.24,0,0,0,6.23,90a.22.22,0,0,1,.19-.06c0-.09,0-.12.06-.12s.06,0,.06-.13v-.13Zm.11-5a.33.33,0,0,0,.37-.28.14.14,0,0,0,0-.09.5.5,0,0,0,.13-.37l-.13-.13a.5.5,0,0,0-.12.37H6.41c-.16.18-.24.3-.24.37v.13Zm0,0a.33.33,0,0,0,.37-.28.14.14,0,0,0,0-.09.5.5,0,0,0,.13-.37l-.13-.13a.5.5,0,0,0-.12.37H6.41c-.16.18-.24.3-.24.37v.13Zm.5,4.57a.85.85,0,0,1,.12-.74V88.1a.22.22,0,0,0-.19-.25H6.65l-.24.25a.75.75,0,0,0,.24.86Zm0,0a.85.85,0,0,1,.12-.74V88.1a.22.22,0,0,0-.19-.25H6.65l-.24.25a.75.75,0,0,0,.24.86Zm-.13,3.84.25-.12.1-.13-.12-.12H6.66l-.12.25v.12l.12.12Zm0,0,.25-.12.1-.13-.12-.12H6.66l-.12.25v.12l.12.12Zm.5,2.35c.25,0,.28.06.12.19a1,1,0,0,1-.62.18C6.65,95.39,6.82,95.27,7.15,95.27Zm1.37-19-.12.12-.25.5v.86l.12.12c-.17,0-.25,0-.25.07S8,78,7.9,78H7.65l-.12-.13c-.17.17-.21.25-.12.25v.12h.37v.13h-.5l-.5.24.13.13a.74.74,0,0,0,.5-.13,2,2,0,0,0,.74-.24h.12l.25-.13h.12v-.12a.54.54,0,0,0,.06-.43.59.59,0,0,1,.07-.43c0-.09,0-.13.06-.13s.06,0,.06-.12a.25.25,0,0,0-.19,0,.2.2,0,0,1-.18.06A.1.1,0,0,1,8.4,77H8.27v-.12H8.4a.74.74,0,0,0,.12-.5l.12-.12Zm0,0-.12.12-.25.5v.86l.12.12h0a.24.24,0,0,0-.18.07A.33.33,0,0,1,7.9,78H7.65l-.12-.13c-.17.17-.21.25-.12.25v.12h.37v.13h-.5l-.5.24.13.13a.74.74,0,0,0,.5-.13,2,2,0,0,0,.74-.24h.12l.25-.13h.12v-.12a.54.54,0,0,0,.06-.43.59.59,0,0,1,.07-.43c0-.09,0-.13.06-.13s.06,0,.06-.12a.25.25,0,0,0-.19,0,.2.2,0,0,1-.18.06A.1.1,0,0,1,8.4,77H8.27v-.12H8.4a.74.74,0,0,0,.12-.5l.12-.12Zm-.37,11.5a.12.12,0,0,0,.12-.1h0l.13-.12h.24V86.11l-.24-.37v.12a.41.41,0,0,1-.13.25v.24a.5.5,0,0,0-.12.37.33.33,0,0,1-.06.19.24.24,0,0,0-.07.18v.75Zm.88-13a2.07,2.07,0,0,1-.5-.06c-.16,0-.2,0-.12.18A.12.12,0,0,0,8.5,75h0c.17.09.29.06.37-.07s.21-.13.37-.06a2.31,2.31,0,0,1,.25-.61l.25-1,.24-.87.5-1.11.12-.12a1.2,1.2,0,0,0-.86.25l-.37.37a.11.11,0,0,0-.13.09h0l-.24.4a.26.26,0,0,1-.07.19.28.28,0,0,0-.06.18v.12l.62.37v.13a.22.22,0,0,0-.25.19h0a.29.29,0,0,0-.06.31.56.56,0,0,1-.06.44v.27a.36.36,0,0,1-.12.27ZM8.9,83.15A.3.3,0,0,0,9,82.74v0a.09.09,0,0,0-.06-.06l-.12-.13c-.17.17-.21.29-.12.37v.37a.38.38,0,0,0,.24.13Zm0,0A.3.3,0,0,0,9,82.74v0a.09.09,0,0,0-.06-.06l-.12-.13c-.17.17-.21.29-.12.37v.37a.38.38,0,0,0,.24.13ZM10,78.57a.42.42,0,0,0-.12.25,2,2,0,0,0-.25.74.11.11,0,0,0-.12.1h0v.15a.33.33,0,0,1-.12.25v.25a.34.34,0,0,1-.13.25v.24l-.38,1.27v.12q0-.12.06-.12C9,82.07,9,82,9,81.94l.62-1.11v-.14a.37.37,0,0,1,.12-.24v-.13L10,79.7v-.12a.54.54,0,0,1,.06-.25.54.54,0,0,0,.06-.25v-.62Zm0,0a.42.42,0,0,0-.12.25,2,2,0,0,0-.25.74.11.11,0,0,0-.12.1h0v.15a.33.33,0,0,1-.12.25v.25a.34.34,0,0,1-.13.25v.24l-.38,1.27v.12q0-.12.06-.12C9,82.07,9,82,9,81.94l.62-1.11v-.14a.37.37,0,0,1,.12-.24v-.13L10,79.7v-.12a.54.54,0,0,1,.06-.25.54.54,0,0,0,.06-.25v-.62Zm-.6-2.22-.13.13a.5.5,0,0,0-.12.37.54.54,0,0,0,.12.74l-.12-.25.12-.12A.29.29,0,0,1,9.33,77a.24.24,0,0,0,.07-.18l.12-.13a.4.4,0,0,0,.12-.49v-.1Zm0,0-.13.13a.5.5,0,0,0-.12.37.54.54,0,0,0,.12.74l-.12-.25.12-.12A.29.29,0,0,1,9.33,77a.24.24,0,0,0,.07-.18l.12-.13a.4.4,0,0,0,.12-.49v-.1ZM9.15,90.94a.34.34,0,0,1,.12-.31.67.67,0,0,0,.25-.3,2,2,0,0,1-.06.49c-.05.16-.16.21-.32.12Zm.74,4.21a.66.66,0,0,0-.12.49c-.09,0-.13-.12-.13-.37H9.4q0-.12.48-.12ZM9.77,69.92a.11.11,0,0,0-.13.09h0v.39c0,.17,0,.25.13.25h.12v-.13L10,70.4H9.89V70Zm0,0a.11.11,0,0,0-.13.09h0v.39c0,.17,0,.25.13.25h.12v-.13L10,70.4H9.89V70Zm1.85,5.81a.38.38,0,0,0-.25.13l-.12.12a.22.22,0,0,0-.25.19h0v.06l-.24.25c-.17.32-.33.67-.5,1a3.09,3.09,0,0,1-.62.93c.09.08.29,0,.62-.12h.14V78.2l.49-1.2a.52.52,0,0,0,.11-.4c.16-.17.24-.29.24-.37l.25-.37Zm-2,7.67L9.89,82l.12-.24a2.34,2.34,0,0,0,.19-.5,2,2,0,0,1,.31-.61l.12-.13.13-.12v.12c0,.09,0,.11-.07.06s-.06,0-.06.07V81q0,.12-.06.12c-.06,0-.06,0-.06.12v.37l-.25.75a1.93,1.93,0,0,1-.63,1Zm0,0L9.89,82l.12-.24a2.34,2.34,0,0,0,.19-.5,2,2,0,0,1,.31-.61l.12-.13.13-.12v.12c0,.09,0,.11-.07.06s-.06,0-.06.07V81q0,.12-.06.12c-.06,0-.06,0-.06.12v.37l-.25.75a1.93,1.93,0,0,1-.63,1Zm.76,8.53c-.41-.16-.62-.29-.62-.37a.57.57,0,0,1,.69-.06c.28.11.26.26,0,.43Zm-.13-22.51-.12.13v.12l.12.12c.09,0,.25-.12.5-.37V69.3q0-.12.06-.12c.06,0,.06-.05.06-.13a.5.5,0,0,0-.12-.37l-.25.25h-.25Zm.25-.49h-.25v.49l-.12.13v.12l.12.12c.09,0,.25-.12.5-.37V69.3q0-.12.06-.12c.06,0,.06-.05.06-.13a.5.5,0,0,0-.12-.37Zm.5,11a.34.34,0,0,1-.25-.13h-.12a.12.12,0,0,0-.13.1v.4h.37v-.12H11Zm0,0a.34.34,0,0,1-.25-.13h-.12a.12.12,0,0,0-.13.1v.4h.37v-.12H11Zm0-12c0,.09-.09.21-.25.37v.25h.12l.13-.12a.37.37,0,0,0,.12-.25V68Zm0,0c0,.09-.09.21-.25.37v.25h.12l.13-.12a.37.37,0,0,0,.12-.25V68Zm.49,6.43q-.12,0-.12.06c0,.06,0,.07-.13.07v.12l-.24.62v.25a.66.66,0,0,0,.49.12l.12-.12h-.12v-.13a.39.39,0,0,1,.12-.25V75l.13-.25v-.19l-.13-.12v-.13Zm0,0q-.12,0-.12.06c0,.06,0,.07-.13.07v.12l-.24.62v.25a.66.66,0,0,0,.49.12l.12-.12h-.12v-.13a.39.39,0,0,1,.12-.25V75l.13-.25v-.19l-.13-.12v-.13Zm.49-9-.12.13h-.12c0,.09,0,.12-.07.12s-.06,0-.06.13,0,.12.13.12l.12-.12.1-.09.12-.24v-.25H12Zm0,0-.12.13h-.12c0,.09,0,.12-.07.12s-.06,0-.06.13,0,.12.13.12l.12-.12.1-.09.12-.24v-.25H12Zm.25,10.4c.08-.17.19-.35.32-.57a.42.42,0,0,0-.07-.55l-.12-.12-.28.74v.5l.12.12Zm0,0c.08-.17.19-.35.32-.57a.42.42,0,0,0-.07-.55l-.12-.12-.28.74v.5l.12.12Zm0-13.24c0-.08,0-.12.13-.12a.39.39,0,0,0,.25-.12.45.45,0,0,1,.12-.37c.17-.17.17-.37,0-.62v-.1h-.12v.13a1.05,1.05,0,0,0-.13.49.31.31,0,0,1-.06.19.2.2,0,0,0-.06.18.34.34,0,0,0-.13.25Zm0,0c0-.08,0-.12.13-.12a.39.39,0,0,0,.25-.12.45.45,0,0,1,.12-.37c.17-.17.17-.37,0-.62v-.1h-.12v.13a1.05,1.05,0,0,0-.13.49.31.31,0,0,1-.06.19.2.2,0,0,0-.06.18.34.34,0,0,0-.13.25Zm.38,14.72.12-.25-.12-.25-.17-.11a.13.13,0,0,0-.1-.13h0v.75q.27.27.27,0Zm-.25,0c.16.16.25.16.25,0l.12-.25-.12-.25-.17-.11a.13.13,0,0,0-.1-.13h0Zm1.61-.5q-.26-.12.18-.06a5.29,5.29,0,0,0,.8.06,2.33,2.33,0,0,0-1.14,1.51.58.58,0,0,1-.5-.61.61.61,0,0,0,.56-.31.56.56,0,0,0,.07-.56ZM15.2,73.9a.67.67,0,0,0-.49-.13c-.09-.24,0-.35.24-.3s.33.19.23.46Zm0-1.85a.66.66,0,0,1,.49.24c-.24.25-.41.33-.49.25.08-.17.08-.25,0-.25s-.09-.07,0-.22Zm1.61-2a1.8,1.8,0,0,0-.37.94,1.5,1.5,0,0,1-.75,1c-.32-.17-.41-.33-.24-.5q.24,0,.18.06c-.06.06.11,0,.44-.18,0-.17-.13-.25-.38-.25-.08-.25-.06-.41.07-.49s.1-.21-.07-.38q.75.25.81-.06c0-.22.13-.27.28-.16ZM16,68.9a.56.56,0,0,0,.56-.06l.68-.43q.12-.25-.12-.06c-.17.12-.3.1-.38-.07a1.37,1.37,0,0,0,.43-.8,1.45,1.45,0,0,1,.44-.8c.17.08.29.08.37,0s.21-.08.37,0a.42.42,0,0,1-.06.31,1.92,1.92,0,0,0-.18.31c-.17,0-.19-.07-.06-.19S18.12,67,18,67c-.33.17-.49.37-.49.62s.16.41.49.5a1.28,1.28,0,0,1-.43.3c-.12,0-.15.19-.06.44-.09.08-.29.08-.62,0a.56.56,0,0,1-.25.43c-.17.12-.12.22.12.31,0,.08-.29.12-.86.12.41-.07.6-.21.55-.37a.71.71,0,0,0-.46-.39Zm.13,3c.32,0,.47.11.43.31s-.23.23-.56.06V72s.06,0,0-.1Zm.61,1.73c.08-.08.11.12.06.62s-.18.7-.43.62a2.25,2.25,0,0,1,.35-1.21Zm1.12-1.73c-.08.17-.25.23-.49.19A3.73,3.73,0,0,0,16.7,72a.49.49,0,0,1,.5-.25,1.2,1.2,0,0,1,.59.15Zm.33-1.9a.42.42,0,0,0-.18.5c0,.25-.11.29-.44.13a3,3,0,0,0,.19-.5c0-.14.16-.17.4-.1Zm-.25-4.17c.17,0,.21.15.13.43s-.21.35-.37.19c0-.17,0-.27.12-.31a.39.39,0,0,0,.12-.3Zm0,3.71c.33,0,.5,0,.5.12s-.13.23-.37.19-.32-.13-.13-.3Zm.25-1.61a1.54,1.54,0,0,1,.43.06,1.09,1.09,0,0,0,.44.06,1.39,1.39,0,0,1-.87.5c.17-.17.17-.29,0-.37S18,68,18.19,67.93Zm1-2.1q-.61-.12-.69,0c0,.08-.18,0-.43-.12.17-.26.29-.29.37-.13s.29.21.62.13a1.07,1.07,0,0,0,.43-.44c.12-.2.27-.26.43-.19Zm.71-3c-.24,0-.29-.08-.12-.25-.25.08-.31.15-.19.19s.15.14.07.31c-.42-.09-.62,0-.62.18a1.88,1.88,0,0,1-.25.8.73.73,0,0,0,.31-.24.79.79,0,0,1,.19-.25c.16.16.28.2.37.12s.2-.08.37,0c0,.08-.21.13-.62.13q0,.24.12.24a.79.79,0,0,0-.49.62.44.44,0,0,1-.13-.31c0-.11-.09-.17-.27-.17l-.25.25c-.16.17-.16.24,0,.24-.41.18-.45-.06-.12-.68a1.91,1.91,0,0,1,1-1.05c-.17-.41,0-.74.49-1a5.46,5.46,0,0,1,1.37-.49c.09.16,0,.28-.24.37s-.33.33-.25.74l-.31-.31a5.4,5.4,0,0,0-.69.06.43.43,0,0,0,.38.25c.15,0,.12.12-.13.28Zm-1.37-2.75c0,.34,0,.5-.12.5l-.25.25V61l.25.24a.32.32,0,0,0,.23-.09l.12-.24v-.25c0-.08,0-.13.07-.13s.06,0,.06-.12l.12-.13h-.37Zm-.37.88.25.24a.32.32,0,0,0,.23-.09l.12-.24v-.25c0-.08,0-.13.07-.13s.06,0,.06-.12l.12-.13h-.37l-.12-.12c0,.33,0,.5-.13.5l-.24.25ZM19,66.67c.33.08.37.29.13.62a1,1,0,0,1-.74.49,2.7,2.7,0,0,1,.24-.55c0,.06.12-.11.39-.52ZM20.76,56l-.25-.13-.12.13-.25.25v.24a.33.33,0,0,0-.14.24.42.42,0,0,0-.12.25v.12l-.37.87h.12a.38.38,0,0,1,.13.25l.49-.5a2.8,2.8,0,0,0,.49-.74v-.12h.13v-.13l.12-.24a1.08,1.08,0,0,1,.12-.5Zm0,0a.34.34,0,0,1-.25-.13l-.12.13-.25.25v.24a.33.33,0,0,0-.14.24.42.42,0,0,0-.12.25v.12l-.37.87h.12a.38.38,0,0,1,.13.25l.49-.5a2.8,2.8,0,0,0,.49-.74v-.12h.13v-.13l.12-.24a1.08,1.08,0,0,1,.12-.5Zm-1.11,8.77a.67.67,0,0,0-.07-.24,1.15,1.15,0,0,1-.06-.37c.08.08.15.08.19,0s.14,0,.29.12.17.25,0,.25a.39.39,0,0,0-.35.19Zm.74-1.86c0,.33-.21.45-.62.37,0-.28.23-.42.62-.42Zm.49-8.29q-.12,0-.12.06c0,.06,0,.06-.13.06V55c0,.08,0,.13-.06.13s-.06,0-.06.12v.37h.25l.12-.12a.54.54,0,0,0-.06-.25.44.44,0,0,1,.06-.37l.12-.25Zm0,0q-.12,0-.12.06c0,.06,0,.06-.13.06V55c0,.08,0,.13-.06.13s-.06,0-.06.12v.37h.25l.12-.12a.54.54,0,0,0-.06-.25.44.44,0,0,1,.06-.37l.12-.25ZM20.51,61a.22.22,0,0,1,.23-.21h0a.36.36,0,0,0,.37-.25,1.17,1.17,0,0,1-.19.57c-.12.18-.27.15-.43-.1Zm1.11-6.69a.11.11,0,0,1-.09.13h-.28a.1.1,0,0,0-.12.08h0v.28h.37c.16-.17.24-.29.24-.37Zm0,0a.11.11,0,0,1-.09.13h-.28a.1.1,0,0,0-.12.08h0v.28h.37c.16-.17.24-.29.24-.37Zm.25,2.23a2.48,2.48,0,0,1-.5,1.62,2.1,2.1,0,0,1,.13-.86ZM23,54.2a1.76,1.76,0,0,0-.37.49.4.4,0,0,1-.37.25c.07-.48.32-.73.74-.73Zm.86-4.12q-.12,0-.06-.12t-.06-.12l-.13-.13h-.12l-.37.25v.25h.74l.12-.13Zm0,.13.12-.13h-.12q-.12,0-.06-.12t-.06-.12l-.13-.13h-.12l-.37.25v.25Zm0-1.11-.12.12Zm.62.74-.25.24a.42.42,0,0,0-.12.25v.18h.24l.25-.25v-.12l.13-.25Zm0,0-.25.24a.42.42,0,0,0-.12.25v.18h.24l.25-.25v-.12l.13-.25Z"/><path class="cls-1" d="M35.35,83a2.82,2.82,0,0,1,.92-1.55A7.07,7.07,0,0,0,37.58,80a4.63,4.63,0,0,1-.43.56,1.34,1.34,0,0,0-.32.68A3.63,3.63,0,0,0,38.94,79c.33.25.61.17.86-.25a2,2,0,0,1,1-.86l.12-.12a.44.44,0,0,0,.25-.44,1.2,1.2,0,0,1,.25-.68.2.2,0,0,0,.18-.12c0-.09.14-.13.32-.13a1.29,1.29,0,0,1,.73-.8,1.47,1.47,0,0,0,.74-.56c.08,0,.25-.13.49-.37a5,5,0,0,1,2-1.24A3.7,3.7,0,0,0,47.71,72a12.57,12.57,0,0,0,3-1.61,15.87,15.87,0,0,1,3.09-1.73,17.19,17.19,0,0,0,.37-4.8A11.4,11.4,0,0,0,53,59.17c-.33.33-.72.68-1.17,1.11a16.77,16.77,0,0,0-1.43,1.49L49,63.14l-1.73,1.6-2.23,2a18.11,18.11,0,0,1-1.73,1.54,6.15,6.15,0,0,1-1.48.93,9.79,9.79,0,0,1-1.61,1.67.87.87,0,0,1-1.37-.31,2.67,2.67,0,0,0-.5-.56.22.22,0,0,0-.24.06.3.3,0,0,1-.19.12,3,3,0,0,1-.43-.49c-.34,0-.52.11-.56.31s-.06.18-.06-.06a2.84,2.84,0,0,0,.19-.56c0-.2.13-.27.31-.18a9.78,9.78,0,0,0,1.37-1.11,2.66,2.66,0,0,0,.52-1,2.7,2.7,0,0,1,.57-1.1,3.14,3.14,0,0,1,1.11-.63,2.56,2.56,0,0,0,1.12-.74,1.22,1.22,0,0,0,.31-.62,1.1,1.1,0,0,1,.3-.61c.33-.25.66-.48,1-.69a3.35,3.35,0,0,0,.74-.56,21.48,21.48,0,0,1,2.06-2.41,16.06,16.06,0,0,0,1.68-1.91A4.21,4.21,0,0,1,51.22,55a3.6,3.6,0,0,1,3,.56,4.21,4.21,0,0,1,2.54.62,5.06,5.06,0,0,1,1.42,2,4.2,4.2,0,0,1,.62,1.48c.16.68.31,1.37.43,2.17s.25,1.54.37,2.28A13.39,13.39,0,0,1,59.76,66a9.69,9.69,0,0,0,2.6-.63L66.25,64c1.37-.46,2.65-.87,3.83-1.24a10,10,0,0,1,2.54-.55c.08,0,.16-.08.25-.25.08.17.18.23.3.19a1.31,1.31,0,0,1,.44-.07c.57-.16,1.19-.3,1.85-.43a3.72,3.72,0,0,0,1.73-.8.68.68,0,0,0,.62-.06l.62-.44v.41c.16,0,.25-.2.25-.62a9.24,9.24,0,0,0,2.23,0l1.85-.24a1.74,1.74,0,0,0,1,.18,2.81,2.81,0,0,0,.8-.18l1.74.37c0,.41.16.49.49.24-.08.17-.1.28-.06.32a.3.3,0,0,1,.06.18.11.11,0,0,0,.09.13h0c0,.08.08.12.25.12a.1.1,0,0,0,.12-.08h0a1.5,1.5,0,0,0,.31.55.52.52,0,0,1,.06.56,2.23,2.23,0,0,1-1.11.18,1.93,1.93,0,0,0-.86.07c0,.16,0,.24.12.24a.34.34,0,0,1,.25.13,2,2,0,0,1-1.37.24c-.5-.08-.83.17-1,.74a20.88,20.88,0,0,0-2.06.56,10.41,10.41,0,0,1-2.29.43,1.11,1.11,0,0,0-.37.62,1.2,1.2,0,0,0-1.17-.12,7,7,0,0,1-1,.37,5.24,5.24,0,0,0-2,.62,7.45,7.45,0,0,1-2,.71L63,70.9,61,72a4.68,4.68,0,0,0-1.73,1.42,5.82,5.82,0,0,1-.8,2.6,5.09,5.09,0,0,0-.8,2.22c-.42.09-.67.25-.75.5a5.07,5.07,0,0,1-.37.86c.16,0,.23-.1.19-.31s0-.22.18-.06c-.17.42-.37.89-.62,1.43a4.08,4.08,0,0,1-1.12,1.45c.33.08.33.22,0,.43s-.37.43-.12.68a3.86,3.86,0,0,0-.62.44c-.25.2-.29.39-.12.55-.17,0-.25.11-.25.31s-.12.23-.37.06c.17.25.17.42,0,.5s-.16.21,0,.37A10.49,10.49,0,0,0,52.35,87c-.37.53-.76,1-1.18,1.54-.08.08-.06.1.07.06s.14,0,.06.19a45.56,45.56,0,0,1-3.52,3.43,12.91,12.91,0,0,1-4.39,2.41c.08-.17,0-.21-.31-.13s-.43.08-.43,0a.2.2,0,0,1,.19-.19h0a.72.72,0,0,0,.5-.06c-.25-.42-.54-.54-.87-.38a1.9,1.9,0,0,1-.87.25c0,.25,0,.37-.12.37v-.24a4.21,4.21,0,0,0-1,.12,2.35,2.35,0,0,1-1.23-.12.11.11,0,0,0-.13.09h0q0,.12-.24.12a7.63,7.63,0,0,1-4.12-.8,7.51,7.51,0,0,1-2.66-2.41c-.16.08-.26.06-.31-.06s-.14-.14-.31-.06c-.16-.17-.18-.29-.06-.37s.14-.3.06-.62c-.16.32-.33.44-.49.37s-.33,0-.5.25c-.24-.25-.22-.42.06-.5s.31-.24.07-.49-.15-.17-.19,0-.06.08-.06-.25a3.55,3.55,0,0,1,.31-.69c.12-.21.39-.31.8-.31a3.14,3.14,0,0,1,.75-2.47.93.93,0,0,1-.06.37.94.94,0,0,0-.07.37,1.94,1.94,0,0,0,1-1.17,13.56,13.56,0,0,0,.62-2.06c.41.25.7.21.86-.12a.61.61,0,0,1,.72-.45Zm1-1c0-.42,0-.62.12-.62,0,.48,0,.69-.13.69Zm9.38-2a.22.22,0,0,1-.06.19.33.33,0,0,0-.06.19,9.27,9.27,0,0,0-2.1,2,17.71,17.71,0,0,1-2.1,2.23c0,.33-.09.41-.25.24-.08.17-.1.26-.06.26s.06,0,.06.11a1.52,1.52,0,0,0-1,.87.4.4,0,0,0-.37.25,4.26,4.26,0,0,1-1.28,1.39,2.79,2.79,0,0,0-1,1.79c.17.09.25.19.25.31a.42.42,0,0,0,.13.32c1-.34,1.91-.69,2.77-1.06l2.67-1.17c-.09-.33-.09-.52,0-.56s.12-.14.12-.31a25.84,25.84,0,0,0,4.43-4.91A38.44,38.44,0,0,0,51.26,76l-.12-.12a30.6,30.6,0,0,0-2.6,2.1A19,19,0,0,1,45.72,80ZM43.39,94.41a1.88,1.88,0,0,0,1-.86.85.85,0,0,1-.56.25C43.61,93.79,43.47,94,43.39,94.41Z"/><path class="cls-1" d="M131.18,73.63a1.08,1.08,0,0,0-1.11.55c-.34.46-.69.9-1,1.31a.89.89,0,0,1,.12-.38,19.71,19.71,0,0,0-1.85,1.55c-.58.54-1.2,1.13-1.86,1.79h-.24v-.12a5.4,5.4,0,0,0-.56.61.46.46,0,0,1-.63.17H124a2.84,2.84,0,0,0-.93.86,1.3,1.3,0,0,1-.8.63c-.32.32-.65.63-1,.92l-1.12.93c0-.08-.08-.12-.25-.12a2.68,2.68,0,0,1-1.6.74,17.89,17.89,0,0,0-2.41,1.54,3.52,3.52,0,0,1-2.17.81,12.53,12.53,0,0,0-1.61.25,2.6,2.6,0,0,1-1.11,0,7.21,7.21,0,0,0-2.47.55,3.51,3.51,0,0,1-2.47.19,1.55,1.55,0,0,0-.87-.87,11.07,11.07,0,0,0-1.18-.62,1.61,1.61,0,0,1-.8-1.11,5,5,0,0,1-2-2.53,12.22,12.22,0,0,1-.68-3.84,24.32,24.32,0,0,1,.31-4.51,39.76,39.76,0,0,1,1-4.58,23.54,23.54,0,0,0-3.34,3.28c-1.07,1.28-2.15,2.49-3.22,3.64a7.77,7.77,0,0,1-1.37,1.86,15.3,15.3,0,0,1-1.48,1.37q-2.11,2.49-4,4.33a.26.26,0,0,1-.06.19,1,1,0,0,0-.18.31c-.69.49-1.41,1.07-2.23,1.73a15.25,15.25,0,0,1-2.54,1.67,7.11,7.11,0,0,1-2.74.8,4.15,4.15,0,0,1-2.9-1,1.56,1.56,0,0,1-1.1-.53,3.32,3.32,0,0,0-.94-.81,2.85,2.85,0,0,1-1.66-1.48,10.41,10.41,0,0,1-.44-2.6,6.45,6.45,0,0,1,.19-2.23,10.11,10.11,0,0,1,.8-2.34,16.78,16.78,0,0,1,1.85-4.39c.83-1.37,1.62-2.62,2.36-3.77q2.1-2.85,4.26-5.26c1.45-1.61,3-3.2,4.52-4.76a9.66,9.66,0,0,0,1.54-1,7.32,7.32,0,0,1,1.79-1,1.38,1.38,0,0,0,1.37-.3c.5-.38.91-.27,1.24.3a12.94,12.94,0,0,1,4.57,1.24,5.37,5.37,0,0,1,2.75,3.21c.57-.41,1.11-.78,1.6-1.11a5.73,5.73,0,0,1,1.61-.74,1.27,1.27,0,0,0,.62-.5c.16-.24.32-.37.49-.37a2.84,2.84,0,0,1,2.29.5,15.78,15.78,0,0,0,2.06,1.23.29.29,0,0,1,.31-.06.94.94,0,0,0,.55-.06c.17.25.29.43.38.55a4,4,0,0,1,.25.56,12,12,0,0,1-.56,4.8,21.05,21.05,0,0,1-1.8,4.33c-.33,1.9-.78,4-1.37,6.17a10.82,10.82,0,0,0-.12,5.81,18.59,18.59,0,0,0,7.23-2.16c1.94-1.11,3.9-2.21,5.88-3.28.74-.57,1.42-1.07,2.06-1.48a9.77,9.77,0,0,0,1.79-1.61.37.37,0,0,1,.24.12v.13a5.86,5.86,0,0,0,2.48-1.55c1.23-1,2.49-2.1,3.77-3.21s2.47-2.06,3.58-2.9,1.76-1.12,1.92-.88a.49.49,0,0,0,.62.07.68.68,0,0,1,.62-.07c.08.18.1.3.06.37a.23.23,0,0,0,.06.26v-.24c.09,0,.09.11,0,.32l-.24.62a1.43,1.43,0,0,1-.25.43c-.08.08-.08,0,0-.25l-.56.56-.55.55a8.14,8.14,0,0,0-.31.87,8.82,8.82,0,0,1-.31.86.66.66,0,0,1-.49-.12,1.68,1.68,0,0,1-.69.86,1.81,1.81,0,0,0-.69,1c-.16,0-.32.2-.49.62ZM97.42,63a7.46,7.46,0,0,0-.92-2.75c-.46-.74-1.26-.82-2.42-.25l-2,2.23a1.67,1.67,0,0,1-.62.56,2.45,2.45,0,0,0-.62.43,3.37,3.37,0,0,0-.5.69,7.06,7.06,0,0,1-.62.92l-1.72,2a38.25,38.25,0,0,0-2.67,3.89c-.86,1.44-1.62,2.82-2.28,4.12A4.7,4.7,0,0,1,82.46,76a4.2,4.2,0,0,0-.62,1.48c-.17-.08-.24-.06-.24.06s0,.14-.13.06a6.14,6.14,0,0,1-.87,2.29,4.17,4.17,0,0,0-.6,2.36c.68-.41,1.37-.82,2.1-1.23A8,8,0,0,0,84,79.64q3.58-3.42,6.86-7.23t6.5-7.73a1.93,1.93,0,0,0,.62-.68,1.13,1.13,0,0,1,.62-.56v-.25A1.7,1.7,0,0,0,97.42,63Z"/><path class="cls-1" d="M269.42,7c.41.08.82.14,1.24.18a1.63,1.63,0,0,1,1,.44.75.75,0,0,1,.31.25,1.56,1.56,0,0,0,.31.37c.41.16.91.35,1.48.55A2.31,2.31,0,0,1,275,9.7a.8.8,0,0,1,.24.56.81.81,0,0,0,.25.55,4.36,4.36,0,0,0,1,1.37,2.53,2.53,0,0,1,.81,1.49q.12,0,.06-.18c0-.13,0-.19.06-.19a13.23,13.23,0,0,0,.07,1.54,5.67,5.67,0,0,0,.18,1,2.72,2.72,0,0,1,.12.8,7,7,0,0,1-.12,1.12.36.36,0,0,1-.12.31.18.18,0,0,0-.13.18.77.77,0,0,0-.06.56.87.87,0,0,1-.06.55,24.1,24.1,0,0,1-.37,2.53,8.34,8.34,0,0,0-.13,2.54,2,2,0,0,1-.25,1,8.33,8.33,0,0,0-.49,1.05A.92.92,0,0,1,276,27a1.14,1.14,0,0,0-.13.51c-.08.57-.16,1.11-.25,1.6a12.92,12.92,0,0,1-.37,1.61h.25a2.79,2.79,0,0,1-.31.68,1.39,1.39,0,0,0-.18.69,3.12,3.12,0,0,1-.31.49.63.63,0,0,0-.06.62,4,4,0,0,1-.19,1.37,7.5,7.5,0,0,0-.31,1.24q-.24,0-.24.12l-.25.49c.08-.15.08,0,0,.63a.16.16,0,0,0,0,.22h0v.13a13.53,13.53,0,0,0-1,1.85c-.12.33-.36,1.07-.69,2.23a22.54,22.54,0,0,1-.61,2.28c-.17.46-.31.87-.44,1.24l-.45,1.27c-.16.5-.45,1.24-.86,2.23a1.47,1.47,0,0,0,.24.37c.09.08,0,.2-.12.37q0,.24.12.18c.09,0,.13,0,.13.07s-.21.12-.62.12a1.34,1.34,0,0,1-.12,1l-.5.74a1.21,1.21,0,0,1,.5.75c.08.32-.13.53-.62.61.08.33.08.52,0,.56a.28.28,0,0,1-.25,0,.26.26,0,0,0-.24,0c-.09,0-.05.18.12.43a6.65,6.65,0,0,1-.87,1.11h.25a4.15,4.15,0,0,0-.38,1.24,1.06,1.06,0,0,0,.38,1.11,2.3,2.3,0,0,0-.18.5,1.08,1.08,0,0,1-.32.49c.17.09.21.15.12.19a.2.2,0,0,0-.12.18q-.12,0-.12.06c0,.06-.09,0-.25-.06,0,.09.06.15.19.19a.3.3,0,0,1,.18.31.86.86,0,0,0-.25.61l-.49.25c0,.08.06.11.18.06s.19,0,.19.19c-.25,0-.39.06-.43.18a1.25,1.25,0,0,1-.31.44,1.67,1.67,0,0,1-1.11-.25v-.25c-.17-.08-.29-.08-.37,0s-.21.08-.37,0a1.06,1.06,0,0,1,.12.43c0,.13.08.2.25.2a.5.5,0,0,1-.13.37.15.15,0,0,0,0,.21h0c.5,0,.74-.16.74-.49a.61.61,0,0,1,.44-.07.5.5,0,0,0,.43,0c-.33.33-.29.57.12.74a2.93,2.93,0,0,1-.61,1.37,1,1,0,0,0,0,1.37,1.62,1.62,0,0,1-.31.43,1.35,1.35,0,0,0-.31.56A1.17,1.17,0,0,1,264.7,64a6.07,6.07,0,0,0,.5-1.24.49.49,0,0,0-.5.31c-.08.21-.2.31-.37.31a4.23,4.23,0,0,1-.3.69,1.48,1.48,0,0,0-.19.8c.08,0,.25-.13.49-.37.33.24.31.48-.06.68a2.18,2.18,0,0,1-1.17.31c0,.17.07.24.25.19a2,2,0,0,1,.49-.06c.08.08,0,.17-.19.24a1.31,1.31,0,0,1-.55.13,4.62,4.62,0,0,1-.43,1.3,3.06,3.06,0,0,0-.32,1.54c.25,0,.45-.33.63-1,.16-.17.3-.19.43-.07a.59.59,0,0,0,.43.19c-.33.16-.49.37-.49.62a.86.86,0,0,1-.25.61,1.91,1.91,0,0,0-1,.5l.5.61c.16.09.25.07.25-.06s.08-.18.25-.18a.59.59,0,0,1-.49.67h-.07c-.35,0-.7.06-1.05.07-.09.16,0,.22.18.18s.27,0,.19.19a.5.5,0,0,1-.37.12H261a1,1,0,0,0-.49,1,.68.68,0,0,0,.55-.25c.13-.16.36-.21.69-.12a.33.33,0,0,0-.12.24,1,1,0,0,1-.13.37.81.81,0,0,1-.06.31q-.06.19-.18.06t-.06-.18c.12,0,.14-.1.06-.19a1.35,1.35,0,0,0-.74-.12l.24.49c-.16.17-.24.21-.24.13,0,.16.24.25.74.25a1.12,1.12,0,0,1-.62.61.56.56,0,0,0-.37.62A3.59,3.59,0,0,1,261,75c-.82.18-1.19.59-1.11,1.25a.38.38,0,0,0,.37.06.3.3,0,0,1,.37.18l-.86,1.11a2.11,2.11,0,0,0,.86-.12,2,2,0,0,0,.49-.37q-.12-.12-.18.06c0,.13-.1.15-.19.06a4.69,4.69,0,0,0,.25-1.48,1,1,0,0,0,.49-.12.55.55,0,0,1,.5,0c.08.16.08.27,0,.31s-.08.1,0,.18c-.17,0-.23,0-.19-.12s0-.12-.18-.12-.27.18-.31.55.14.47.55.31a1.09,1.09,0,0,1-.37.43c-.16.13-.16.27,0,.43h-.61a.26.26,0,0,1-.07.19.3.3,0,0,0-.06.18.23.23,0,0,0,.19.25H261a2.33,2.33,0,0,1-1.11.12c.33-.08.47-.2.43-.37s-.18-.24-.43-.24a6.32,6.32,0,0,0-.37,1.42,3.77,3.77,0,0,1-.5,1.42,1,1,0,0,0,.62.13,6.66,6.66,0,0,0-.92,3.43,5,5,0,0,1-1.05,3.22.75.75,0,0,0,.55,0,.68.68,0,0,1,.56,0c-.17.24-.37.57-.62,1a1.09,1.09,0,0,0-.12,1.11c-.42.26-.57.69-.44,1.43a2.36,2.36,0,0,1-.19,1.67L257,93c.08.17.15.21.19.13s.14-.13.31-.13l-.25.5a1.68,1.68,0,0,0-.25.92.83.83,0,0,1-.62.81.83.83,0,0,0,.37.37.8.8,0,0,1,.38.37h-.5c0,.17.21.25.62.25a.39.39,0,0,1-.31.12c-.12,0-.19,0-.19.13a1.43,1.43,0,0,0-.37,1.29,2.64,2.64,0,0,1-.12,1.42c.08.09.14.09.19,0s.1-.08.18,0,.1,0,.06.13a.2.2,0,0,0,.06.24.12.12,0,0,0,.11.13h0a.73.73,0,0,0-.37.44c-.08.2-.25.26-.5.18,0,.08.13.25.37.49a5.8,5.8,0,0,0-.37,3c.17.82.33,1.16.5,1,.08.08,0,.21-.13.37v.62L256,106a1.64,1.64,0,0,1-.12,1.11,1.64,1.64,0,0,0-.12,1.11,1,1,0,0,0,.49-.12.25.25,0,0,1,.34.05h0v.06a.56.56,0,0,1-.06.56c-.12.2-.06.39.18.56h-.61l.61,2.28c.09.29.09.48,0,.56a1,1,0,0,0-.18.31,6.77,6.77,0,0,0,.18,1.55v-.63a.4.4,0,0,1,.13.5c-.08.16,0,.25.25.25s.32.28.24.62a.62.62,0,0,0,.26.74,4,4,0,0,1-.38.74.79.79,0,0,0,0,.86.34.34,0,0,1-.43-.06.6.6,0,0,0-.44-.18q-.12,0-.18.18a.27.27,0,0,0,.06.31l-2-.74c.16.08.08,0-.25-.37a8.14,8.14,0,0,1-1.24-2.16,26,26,0,0,1-1.42-4.88,49,49,0,0,1-.81-8.54,22.74,22.74,0,0,1,.31-3.77c.21-1.2.43-2.46.69-3.77L252,90.7a4.34,4.34,0,0,0-.12-.88,1,1,0,0,1,0-.74,2.48,2.48,0,0,1,.3-.49.34.34,0,0,0,0-.48h0a.68.68,0,0,0,.5-.13.75.75,0,0,0-.25-.31.88.88,0,0,1-.25-.18,58.7,58.7,0,0,1,.87-7c.42-2.23.87-4.41,1.38-6.55.33,0,.53-.09.61-.25-.08-.17-.16-.23-.24-.19s-.13,0-.13-.06a30.9,30.9,0,0,1,.87-6.49c.49-1.93.94-3.94,1.37-6H257c-.08,0-.12,0-.12-.13a14.94,14.94,0,0,0,1.06-2.47,7.22,7.22,0,0,0,.18-3.1l.12-.12h.13c.32-1.24.53-2,.62-2.35a2,2,0,0,1,.24-.68,4.48,4.48,0,0,0,.31-.62c.12-.29.39-1,.8-2.17l.72-2.18c.17-.41.31-.82.44-1.24a4.16,4.16,0,0,0,.18-1.11.78.78,0,0,0-.06-.37.41.41,0,0,1,.06-.37.28.28,0,0,1,.19-.31.77.77,0,0,0,.31-.19,2.2,2.2,0,0,0,.3-1,4.31,4.31,0,0,0-.06-1.24c.58-.49.85-.82.81-1a3,3,0,0,1,.56-1.29c0,.33.08.24.24-.25l.13-.25V38.3l.49-1.61c.25-.57.45-1.11.62-1.61l.37-1.11a1,1,0,0,0,.12-.49c.69-2.31,1.13-4,1.42-5.07s.52-2,.69-2.75.32-1.6.49-2.59.46-2.6.87-4.8a18.39,18.39,0,0,0,.43-2.06,2.66,2.66,0,0,0-.31-1.91,2.06,2.06,0,0,1-.43-.69c-.13-.29-.27-.43-.43-.43a1.34,1.34,0,0,0-.74-.06,4.44,4.44,0,0,0-.88.18,16.87,16.87,0,0,0-5.07,1.37,7.64,7.64,0,0,0-2.47,1.61,7.27,7.27,0,0,0-.61.74,8.81,8.81,0,0,1-.62.75l-1.37.86-.5.62a9.23,9.23,0,0,1-2.09,2,5.94,5.94,0,0,0-1.86,2c-.09.08-.15.08-.19,0a.19.19,0,0,0-.17-.14c-.25,0-.45.21-.62.62s-.29.74-.37,1c.08,0,0-.13-.25-.37a6.63,6.63,0,0,1-1.68,2,5.64,5.64,0,0,0-1.49,2h-.62l-.37,1.11a.61.61,0,0,0-.79.35h0a2.33,2.33,0,0,1-.56.86c-1.15,1.41-2.31,2.9-3.46,4.45s-2.18,3-3.09,4.46q-2.48,4.11-5.32,8.65t-5.56,8.79c-.74,1.31-1.44,2.59-2.1,3.83a38.6,38.6,0,0,1-2.36,3.83,9.32,9.32,0,0,1-3.08,3.43,6.31,6.31,0,0,1-1.61.62,3.14,3.14,0,0,1-1.61.06,2.2,2.2,0,0,0-1.49.18l.25.25h-.37c-.33,0-.52-.08-.56-.25a4.09,4.09,0,0,0-.18-.49c0-.17,0,0-.13.49s-.17.74-.25.74c-.25-.33-.54-.31-.86.06a1.34,1.34,0,0,1-.87.57c-.25,0-.27-.32-.31-.69A1.36,1.36,0,0,0,212,69c0-.09-.11-.07-.31.06s-.31.14-.31.06l-.43-.87a2.15,2.15,0,0,1-.19-1l.37-1.11a4.31,4.31,0,0,1,.31-1.06,3.87,3.87,0,0,0,.31-1l.74-2.74a6.12,6.12,0,0,1,.74-2.23,15.49,15.49,0,0,0,.56-1.79c.12-.54.27-1.22.43-2.06a.67.67,0,0,1,.07-.37,1.15,1.15,0,0,0,.06-.37,1.56,1.56,0,0,1,.12-.74l.25-.5a1.57,1.57,0,0,0,.43-1,2.21,2.21,0,0,1,.31-1c.08-.17.25-.46.5-.88s.28-.68.12-.86q1.6-4.08,3.28-8.92t3-9.52c.25-1.15.48-2.3.69-3.43a31.18,31.18,0,0,0,.43-3.34,15,15,0,0,0-.06-1.54c-.06-.61-.27-.94-.69-.94a2.86,2.86,0,0,0-.86.26c-.41.16-.7.29-.87.37-.82.49-1.62.94-2.41,1.37a8.63,8.63,0,0,0-2.06,1.48,7.53,7.53,0,0,0-1.85,1.37,16.78,16.78,0,0,0-1.61,1.86c-.5.66-1,1.28-1.48,1.85l-1.49,1.74A172.13,172.13,0,0,0,191.5,60l-1.11,2.11a6.41,6.41,0,0,1-.56,1.11c-.21.33-.44.66-.69,1l-1.23,2.06a10.53,10.53,0,0,0-1,2.28c-.41.74-.82,1.47-1.24,2.17a7.42,7.42,0,0,0-.87,2.41c-.16,1.07-.28,2.06-.37,3a6.11,6.11,0,0,1-.74,2.47,23.1,23.1,0,0,0-1.42,3.59c-.37,1.23-.78,2.47-1.23,3.71s-.94,2.4-1.43,3.52a11.39,11.39,0,0,1-2,3,10,10,0,0,1-1,.43,1.47,1.47,0,0,0-.74.56c0-.09-.09-.13-.25-.13a.3.3,0,0,0-.32.19.59.59,0,0,1-.31.31,8.79,8.79,0,0,0-2.4-.74,4.24,4.24,0,0,1-2.29-1.12,1,1,0,0,0-.13-.61V91.2a1.1,1.1,0,0,0,.5-.92,5.2,5.2,0,0,1,.13-1.18,4.32,4.32,0,0,1,.12-1.24c.25-1.23.53-2.45.86-3.65s.62-2.37.87-3.52q3.09-12,6.55-23.12t7.18-22.38c.57-2.15,1.23-4.41,2-6.8l.49-1.74a6.19,6.19,0,0,1,.62-1.48.75.75,0,0,0,.25-.56,1.3,1.3,0,0,1,.12-.55l.94-2.25c.24-.65.49-1.42.74-2.28a8.91,8.91,0,0,0,.37-2.41V16.9a1.85,1.85,0,0,0-.25-.37,1.34,1.34,0,0,1-.25-.37,2.17,2.17,0,0,1,.13-.5,6.62,6.62,0,0,1,.24-.62,1.42,1.42,0,0,1,.62-.49.36.36,0,0,1,.37-.06,2.07,2.07,0,0,0,.5.06l.86-.37a4.73,4.73,0,0,1,1.3-.06c.46,0,.89.06,1.3.06l2.1.25a2.45,2.45,0,0,1,1.91,2.89,1.46,1.46,0,0,1-.05.2c-.08.66-.19,1.32-.31,2s-.28,1.37-.43,2.22L199.72,24a12.42,12.42,0,0,1-.38,1.91,10.14,10.14,0,0,1-.8,1.74,6.66,6.66,0,0,0-.69,1.73,52.63,52.63,0,0,0-1.66,5.93c-.46,2.06-.93,4.12-1.43,6.07,1.09-1.25,2.11-2.56,3.07-3.91s1.86-2.58,2.84-3.9l.69-1.11a6.38,6.38,0,0,1,.8-1,30.65,30.65,0,0,0,2.48-2.74q1.11-1.42,2.34-2.91c.75-.82,1.57-1.67,2.48-2.53s1.77-1.72,2.59-2.54a10.39,10.39,0,0,0,.87-1,2.33,2.33,0,0,1,1-.81c.75-.41,1.45-.82,2.11-1.23a24.14,24.14,0,0,1,2.22-1.24,14.06,14.06,0,0,1,4.11-1.24,6.43,6.43,0,0,1,1.38-.24,1.08,1.08,0,0,1,.5.12l.49.25,1.24.24q1.23,1.48,2.4,2.85A7.08,7.08,0,0,1,229.9,22a1.48,1.48,0,0,1,.07.75,2.08,2.08,0,0,0,.06.86l.24.5a.79.79,0,0,1,.25.61,6.27,6.27,0,0,1,0,1.73l-.25,2-.61,3.46a74.46,74.46,0,0,1-2.85,10.14q-1.84,5.19-3.34,9.64a.22.22,0,0,0,.25-.18v-.06a8.6,8.6,0,0,0,.87-1.12,36.38,36.38,0,0,0,2.9-5.44,31.54,31.54,0,0,1,2.91-5.32,2.19,2.19,0,0,1,.68-.8,2.52,2.52,0,0,0,.69-.69,8.42,8.42,0,0,0,.89-1.39c.29-.53.6-1,.93-1.55l.5-.74a4.87,4.87,0,0,1,.62-.74L236.93,31a3.13,3.13,0,0,1,.62-.69,2.28,2.28,0,0,0,.61-.8l2.23-2.75,5.07-5.31a72.7,72.7,0,0,1,7.64-7.25,4.64,4.64,0,0,1,1.51-1.2l.74-.5a.55.55,0,0,0,.31-.25,2.76,2.76,0,0,1,.31-.37,28.9,28.9,0,0,1,2.76-1.79c.95-.53,1.83-1.09,2.65-1.66l.78-.49a6.79,6.79,0,0,1,1.24-.37,6.82,6.82,0,0,0,1.24-.38A12.28,12.28,0,0,1,266,7.05c.5,0,1-.06,1.5,0ZM216.13,69.2c.16,0,.25.17.25.49,0-.08-.21-.21-.62-.37a.47.47,0,0,1,.37-.14Zm.49.61q-.12.14-.24-.12.12,0,.12.06c0,.06,0,0,.12,0Zm40.19,28.45c.16,0,.27.14.31.43s-.15.39-.56.31a.4.4,0,0,1,.25-.37c.19-.11.19-.23,0-.39ZM258,100c-.25,0-.46-.17-.62-.49a.36.36,0,0,1,.51,0h0C258.18,99.64,258.2,99.8,258,100Zm.25,4.32c-.09,0-.12-.12-.12-.37-.17,0-.25,0-.25.06s-.05.07-.13.07,0-.13-.06-.13-.06-.08-.06-.25a.29.29,0,0,1,.31-.06.27.27,0,0,0,.31-.06.41.41,0,0,1,.06.37,1.57,1.57,0,0,0-.05.37Zm2.1-19.16c-.69.25-1,.58-1,1a.81.81,0,0,1-.62-.25c.58,0,.79-.24.62-.74Zm-.86-2.84c-.09-.25,0-.35.24-.31s.29.14.13.31Zm1.11-1.49-.37.19a1.4,1.4,0,0,1-.5.06c-.08-.25,0-.39.25-.43A.68.68,0,0,1,260.6,80.83Zm.61-2.1a1.89,1.89,0,0,0-.3.86,2.07,2.07,0,0,1-.31.87.9.9,0,0,0-.56-.06c-.21,0-.31,0-.31-.18s.25-.09.5,0c.16-.17.2-.29.12-.38s-.17-.12-.49-.12a.2.2,0,0,1,.12-.31c.12,0,.16-.15,0-.31.41.16.66.12.74-.13a.36.36,0,0,1,.39-.28h.11Zm-.37,2.1c-.08-.24-.08-.41,0-.49.33-.08.5,0,.5.31s-.17.35-.49.18Zm.5-5.81c.16-.16.24-.2.24-.13a.13.13,0,0,0,.1.13h0c0,.5-.17.68-.5.5,0-.17,0-.26.13-.26s.09-.07,0-.24Zm.49,6.93a1.36,1.36,0,0,1,0,.8.5.5,0,0,1-.49.43,2.22,2.22,0,0,1,.37-1.23Zm2.23-11.39c.08.18,0,.34-.18.51s-.24.32-.07.49a2,2,0,0,1-.49-.06.69.69,0,0,0-.49.06.39.39,0,0,0,.37.25q.24,0,0,.24a1.28,1.28,0,0,1,.61-.12c0,.41-.28.58-.86.49l.25-.24-.37-.25q-.13.12.06.12c.12,0,.13.09.06.25a.54.54,0,0,1-.43.06.28.28,0,0,0-.32.19v.74c.33-.17.5-.37.5-.62a.39.39,0,0,0,.5.12,1,1,0,0,1,.49-.12c0,.33-.29.49-.86.49.07.17.24.21.49.13s.37,0,.37.12a.19.19,0,0,1-.25.19.36.36,0,0,0-.37.06.33.33,0,0,1-.12-.25c-.17-.08-.27-.06-.31.06a.59.59,0,0,1-.31.31.2.2,0,0,1-.07-.25q.06-.12-.06-.12a.4.4,0,0,0-.37.19q-.12.18,0,.18c-.16.17-.29.17-.37,0a2,2,0,0,1,1-1.6.74.74,0,0,1,.16-1l.15-.08a4.76,4.76,0,0,1,1.31-.51Zm-1.49,9.66a.49.49,0,0,1-.49.24h-.62c.17-.33.54-.41,1.12-.24Zm.87-6.31-.37.37a.66.66,0,0,0-.24.49,1.13,1.13,0,0,0-.63-.06,1,1,0,0,1-.62-.06.38.38,0,0,1,.13-.25.82.82,0,0,1,.43.12.38.38,0,0,0,.43,0,.8.8,0,0,0,.38-.37.48.48,0,0,1,.5-.24Zm-.61,2.84c0,.25-.22.45-.63.62a.67.67,0,0,0-.25-.49c0-.17.13-.25.38-.25a.5.5,0,0,1,.24.06.5.5,0,0,0,.24.06Zm0,1.73c-.59.17-.88,0-.88-.49h.57c.2,0,.29.16.29.49Zm-.26.12c-.16.09-.24.29-.24.62-.17.18-.29.18-.38,0,0-.49.22-.7.63-.62Zm.13-3.08c.32.16.38.37.19.61a2.21,2.21,0,0,1-.56.5,1.25,1.25,0,0,1,.12-.69,3,3,0,0,0,.26-.42Zm0-11.88c.83.17,1.36.09,1.61-.24h-.13q.12-.37.24-.81a1.23,1.23,0,0,0-.12-.92.78.78,0,0,0-.37.06.78.78,0,0,1-.37.06.63.63,0,0,1,.31.49,1.05,1.05,0,0,0,.31.62,1.29,1.29,0,0,1-.74.31,1,1,0,0,0-.73.43Zm1,2.36a1,1,0,0,1-.24,1.35.85.85,0,0,1-.25.13,2.63,2.63,0,0,1,.5-1.48Zm.25,3.7a.1.1,0,0,1,.12.08h0c.08.18,0,.31-.25.44a.47.47,0,0,1-.61-.07c0-.15.12-.24.37-.24s.37-.08.37-.25ZM264,68c.16-.08.24-.31.24-.68a3.26,3.26,0,0,1,.13-.93,1.19,1.19,0,0,1,.37-.87c.41.17.49.42.25.75a1.65,1.65,0,0,0-.38,1,.26.26,0,0,0,.07.19.3.3,0,0,1,.06.18l-.25.5a2.89,2.89,0,0,0-.25,1c0,.29-.2.43-.61.43Zm0-29.3-.25.24a1,1,0,0,1,.12-.49c.09-.17.17-.21.25-.12a.33.33,0,0,0-.12.24Zm.74,25.1a1.3,1.3,0,0,1-.5.61C264.19,63.89,264.36,63.68,264.69,63.77Z"/><path class="cls-1" d="M331,73.63a1.08,1.08,0,0,0-1.11.55c-.33.46-.69.9-1,1.31a1.29,1.29,0,0,1,.12-.38,22.65,22.65,0,0,0-1.85,1.55c-.57.54-1.2,1.13-1.86,1.79h-.24v-.12c-.17.16-.35.37-.56.61a.46.46,0,0,1-.63.17h-.06a2.71,2.71,0,0,0-.92.86,1.38,1.38,0,0,1-.81.63c-.41.41-.74.68-1,.92l-1.11.93c0-.08-.08-.12-.25-.12a2.68,2.68,0,0,1-1.6.74,17.39,17.39,0,0,0-2.42,1.54,3.5,3.5,0,0,1-2.16.81,12.38,12.38,0,0,0-1.6.25,2.64,2.64,0,0,1-1.12,0,7.51,7.51,0,0,0-2.47.55,3.54,3.54,0,0,1-2.48.19,1.48,1.48,0,0,0-.86-.87,13.18,13.18,0,0,0-1.17-.63,1.58,1.58,0,0,1-.8-1.11,4.82,4.82,0,0,1-2-2.53,12,12,0,0,1-.69-3.84,24.32,24.32,0,0,1,.31-4.51,40.23,40.23,0,0,1,1-4.58,23.54,23.54,0,0,0-3.34,3.28c-1.08,1.28-2.15,2.49-3.21,3.65a8.4,8.4,0,0,1-1.38,1.86c-.49.49-1,.94-1.49,1.37-1.39,1.65-2.7,3.1-3.95,4.33a.2.2,0,0,1-.06.18,1,1,0,0,0-.18.31c-.69.49-1.41,1.07-2.23,1.74a16.22,16.22,0,0,1-2.53,1.66,7.4,7.4,0,0,1-2.75.81,4.28,4.28,0,0,1-2.91-1,1.65,1.65,0,0,1-1.17-.56,3.15,3.15,0,0,0-.93-.81,2.85,2.85,0,0,1-1.66-1.48,10.33,10.33,0,0,1-.44-2.59,6.45,6.45,0,0,1,.19-2.23,10.35,10.35,0,0,1,.8-2.35,17.13,17.13,0,0,1,1.85-4.39c.83-1.37,1.62-2.62,2.36-3.77,1.4-1.89,2.82-3.65,4.26-5.26s2.94-3.19,4.51-4.76a9.32,9.32,0,0,0,1.55-1,6.84,6.84,0,0,1,1.79-1,1.38,1.38,0,0,0,1.37-.31c.5-.38.91-.27,1.25.31A12.73,12.73,0,0,1,298,57.56a5.37,5.37,0,0,1,2.75,3.21c.57-.41,1.11-.78,1.61-1.11a5.55,5.55,0,0,1,1.6-.74,1.16,1.16,0,0,0,.62-.49c.16-.25.33-.37.49-.37a2.9,2.9,0,0,1,2.3.49,16.36,16.36,0,0,0,2.05,1.23.29.29,0,0,1,.31-.06.9.9,0,0,0,.56-.06l.37.56a2.48,2.48,0,0,1,.25.58,12,12,0,0,1-.56,4.8,21.83,21.83,0,0,1-1.79,4.33q-.49,2.85-1.37,6.17a10.66,10.66,0,0,0-.12,5.82,18.78,18.78,0,0,0,7.23-2.17c1.94-1.11,3.89-2.2,5.87-3.27.74-.58,1.42-1.07,2.06-1.49A9.34,9.34,0,0,0,324,73.38a.37.37,0,0,1,.25.12v.13c.41,0,1.23-.52,2.47-1.55s2.49-2.1,3.77-3.21,2.48-2.06,3.59-2.9,1.75-1.12,1.91-.88a.5.5,0,0,0,.63.07.69.69,0,0,1,.61-.07c.08.18.11.3.07.37a.22.22,0,0,0,.06.26v-.26c.08,0,.08.11,0,.32l-.25.62a1.43,1.43,0,0,1-.25.43c-.08.08-.08,0,0-.25l-.55.56-.56.55a6.41,6.41,0,0,0-.31.87,8.82,8.82,0,0,1-.31.86.67.67,0,0,1-.5-.12,1.49,1.49,0,0,1-.68.86,1.76,1.76,0,0,0-.69,1c-.16,0-.33.2-.49.62ZM297.24,63a7.46,7.46,0,0,0-.92-2.75c-.46-.74-1.26-.82-2.41-.25l-2,2.23a1.57,1.57,0,0,1-.61.56,2.45,2.45,0,0,0-.62.43,3.33,3.33,0,0,0-.49.69,9.86,9.86,0,0,1-.62.92l-1.74,2a38.07,38.07,0,0,0-2.65,3.89c-.87,1.44-1.63,2.82-2.29,4.12a5.33,5.33,0,0,1-.62,1.12,4.2,4.2,0,0,0-.62,1.48q-.24-.12-.24.06c0,.12-.05.14-.13.06a6.13,6.13,0,0,1-.86,2.29,4.24,4.24,0,0,0-.62,2.41q1-.62,2.1-1.23a8.1,8.1,0,0,0,1.86-1.38q3.58-3.42,6.86-7.23t6.52-7.69a2,2,0,0,0,.62-.68,1.13,1.13,0,0,1,.62-.56v-.24A1.64,1.64,0,0,0,297.24,63Z"/><path class="cls-1" d="M328.9,83a2.8,2.8,0,0,1,.93-1.55A7,7,0,0,0,331.12,80a3.33,3.33,0,0,1-.43.56,1.46,1.46,0,0,0-.31.68A3.68,3.68,0,0,0,332.49,79c.33.25.62.17.86-.25a2,2,0,0,1,1-.86l.12-.12a.43.43,0,0,0,.25-.44,1.2,1.2,0,0,1,.25-.68.2.2,0,0,0,.18-.12c0-.09.15-.13.31-.13a1.33,1.33,0,0,1,.74-.8A1.6,1.6,0,0,0,337,75c.08,0,.25-.13.49-.37a5,5,0,0,1,2-1.24A3.72,3.72,0,0,0,341.26,72a12.57,12.57,0,0,0,3-1.61,15.66,15.66,0,0,1,3.1-1.73,18,18,0,0,0,.37-4.8,11.74,11.74,0,0,0-1.11-4.7c-.34.33-.73.68-1.18,1.11a17,17,0,0,0-1.44,1.5l-1.49,1.37-1.73,1.6-2.22,2a22.92,22.92,0,0,1-1.73,1.54,7.43,7.43,0,0,1-1.49.93,9.79,9.79,0,0,1-1.61,1.67c-.49.37-.94.27-1.37-.31a2.67,2.67,0,0,0-.5-.56.23.23,0,0,0-.25.06c-.08.09-.14.12-.18.12s-.19-.15-.43-.49c-.33,0-.52.11-.56.31s-.06.18-.06-.06a2.81,2.81,0,0,0,.18-.56.19.19,0,0,1,.31-.18,9.78,9.78,0,0,0,1.37-1.11,2.94,2.94,0,0,0,.5-1,2.84,2.84,0,0,1,.62-1.11,3.14,3.14,0,0,1,1.11-.63,2.49,2.49,0,0,0,1.1-.76,1.05,1.05,0,0,0,.31-.62,1,1,0,0,1,.31-.61c.33-.25.68-.48,1-.69a4.11,4.11,0,0,0,.74-.56A21.57,21.57,0,0,1,340,59.71a16.06,16.06,0,0,0,1.68-1.91,4.21,4.21,0,0,1,3.05-2.8,3.6,3.6,0,0,1,3,.56,4.18,4.18,0,0,1,2.53.62,5.19,5.19,0,0,1,1.43,2,4.2,4.2,0,0,1,.62,1.48c.16.68.31,1.37.43,2.17s.25,1.54.37,2.28A12.89,12.89,0,0,1,353.3,66a9.62,9.62,0,0,0,2.59-.63l3.9-1.29c1.37-.45,2.64-.87,3.83-1.24a10,10,0,0,1,2.54-.55c.07,0,.16-.08.25-.25.07.17.18.23.3.19a1.31,1.31,0,0,1,.44-.07c.57-.16,1.19-.3,1.85-.43a3.72,3.72,0,0,0,1.73-.8.68.68,0,0,0,.62-.06l.62-.44v.41c.16,0,.25-.2.25-.62a9.16,9.16,0,0,0,2.22,0L376.3,60a1.73,1.73,0,0,0,1.05.18,2.81,2.81,0,0,0,.8-.18l1.73.37c0,.41.16.49.5.24-.09.17-.11.28-.06.32a.3.3,0,0,1,.06.18c0,.09,0,.13.12.13s.08.12.25.12a.1.1,0,0,0,.12-.08h0a1.5,1.5,0,0,0,.31.55.52.52,0,0,1,.06.56,2.23,2.23,0,0,1-1.11.18,2,2,0,0,0-.87.07c0,.16,0,.24.13.24a.38.38,0,0,1,.24.13,1.93,1.93,0,0,1-1.37.24c-.49-.08-.82.17-1,.74-.74.17-1.42.35-2.06.56a10.43,10.43,0,0,1-2.28.43,1.11,1.11,0,0,0-.37.62,1.2,1.2,0,0,0-1.17-.12,6.66,6.66,0,0,1-1.06.37,5.24,5.24,0,0,0-2,.62,6.79,6.79,0,0,1-2,.74L356.58,71l-2.11,1a4.55,4.55,0,0,0-1.72,1.42,5.83,5.83,0,0,1-.81,2.6,5.1,5.1,0,0,0-.81,2.22c-.41.08-.66.25-.74.49a5.54,5.54,0,0,1-.37.87c.17,0,.23-.11.19-.31s0-.23.18-.06c-.16.41-.37.89-.61,1.42a4,4,0,0,1-1.12,1.42c.33.09.33.23,0,.44s-.37.43-.12.68a3.81,3.81,0,0,0-.62.43c-.24.21-.29.39-.12.56-.17,0-.25.11-.25.31s-.12.23-.37.06c.17.25.17.42,0,.5s-.17.21,0,.37a11.91,11.91,0,0,0-1.3,1.54c-.37.54-.76,1.05-1.17,1.55q-.13.12.06.06t.06.18a42.31,42.31,0,0,1-3.53,3.43,13,13,0,0,1-4.38,2.41c.08-.16,0-.2-.31-.12s-.44.08-.44,0a.2.2,0,0,1,.2-.2h.05a.62.62,0,0,0,.5-.06c-.25-.41-.54-.53-.87-.37a2,2,0,0,1-.87.25c0,.25,0,.37-.12.37v-.25a3.76,3.76,0,0,0-1,.13,2.25,2.25,0,0,1-1.23-.13.12.12,0,0,0-.13.1h0q0,.12-.24.12a7.28,7.28,0,0,1-6.81-3.21c-.16.08-.27.06-.31-.06s-.14-.15-.31-.07c-.16-.16-.18-.28-.06-.37s.15-.29.06-.61c-.16.32-.32.44-.49.37s-.33,0-.49.24c-.25-.24-.23-.41.06-.49s.31-.25.06-.49q-.12-.25-.18,0c-.05.15-.07.07-.07-.26a3.22,3.22,0,0,1,.31-.68c.13-.21.39-.31.8-.31a3.14,3.14,0,0,1,.75-2.47.94.94,0,0,1-.07.37,1.15,1.15,0,0,0-.06.37,1.89,1.89,0,0,0,1-1.24,14.06,14.06,0,0,0,.63-2c.41.24.7.2.86-.13a.6.6,0,0,1,.77-.36h0Zm1-1c0-.41,0-.62.12-.62,0,.43,0,.65-.12.65Zm9.4-2.11a.26.26,0,0,1-.07.19.33.33,0,0,0-.06.19,9.5,9.5,0,0,0-2.1,2,19.15,19.15,0,0,1-2.1,2.22c0,.33-.08.41-.25.25-.08.17-.1.25-.06.25s.06,0,.06.12a1.5,1.5,0,0,0-1,.87.39.39,0,0,0-.37.24,4.39,4.39,0,0,1-1.29,1.42A2.7,2.7,0,0,0,331,89.45c.16.09.25.19.25.31a.43.43,0,0,0,.12.32c1-.34,1.92-.69,2.78-1.06l2.67-1.17c-.09-.33-.09-.52,0-.56s.12-.14.12-.31a25.72,25.72,0,0,0,4.45-5,36.33,36.33,0,0,0,3.46-6.18l-.12-.12c-.9.66-1.77,1.36-2.6,2.1a19.41,19.41,0,0,1-2.84,2.09Zm-2.36,14.48a1.84,1.84,0,0,0,1-.86.81.81,0,0,1-.55.25c-.24,0-.39.24-.46.65Z"/><path class="cls-1" d="M369.21,83a2.8,2.8,0,0,1,.93-1.55A7,7,0,0,0,371.43,80a3.33,3.33,0,0,1-.43.56,1.46,1.46,0,0,0-.31.68A3.68,3.68,0,0,0,372.8,79c.33.25.61.17.86-.25a2,2,0,0,1,1-.86l.12-.12a.44.44,0,0,0,.25-.44,1.2,1.2,0,0,1,.25-.68.2.2,0,0,0,.18-.12c0-.09.15-.13.31-.13a1.29,1.29,0,0,1,.75-.8,1.53,1.53,0,0,0,.74-.56c.08,0,.25-.13.49-.37a5,5,0,0,1,2-1.24A3.7,3.7,0,0,0,381.58,72a12.57,12.57,0,0,0,3-1.61,15.66,15.66,0,0,1,3.1-1.73,18,18,0,0,0,.37-4.8,11.59,11.59,0,0,0-1.12-4.7c-.33.33-.72.68-1.18,1.11a16.77,16.77,0,0,0-1.44,1.48l-1.48,1.37-1.73,1.61-2.23,2a22.92,22.92,0,0,1-1.73,1.54,6.21,6.21,0,0,1-1.49.93A8.94,8.94,0,0,1,374,70.86c-.49.37-.94.27-1.37-.31a2.63,2.63,0,0,0-.49-.56.23.23,0,0,0-.25.06c-.09.09-.14.13-.18.13s-.19-.16-.44-.5c-.33,0-.52.11-.56.31s-.06.19-.06-.06a2.11,2.11,0,0,0,.19-.55c0-.21.14-.27.3-.19a8.19,8.19,0,0,0,1.38-1.11,2.67,2.67,0,0,0,.49-1,2.84,2.84,0,0,1,.62-1.11,3.11,3.11,0,0,1,1.11-.62,2.64,2.64,0,0,0,1.11-.75,1.1,1.1,0,0,0,.32-.61,1,1,0,0,1,.3-.62c.33-.25.69-.47,1-.69a3.65,3.65,0,0,0,.74-.55,19.8,19.8,0,0,1,2.06-2.42,15.13,15.13,0,0,0,1.67-1.91A4.22,4.22,0,0,1,385,55a3.64,3.64,0,0,1,3,.56,4.18,4.18,0,0,1,2.53.62,5.19,5.19,0,0,1,1.43,2,4.2,4.2,0,0,1,.62,1.48c.16.69.31,1.37.43,2.17s.25,1.54.37,2.28a12.89,12.89,0,0,1,.19,1.86,10.16,10.16,0,0,0,2.6-.62L400,64l3.84-1.23a10.49,10.49,0,0,1,2.54-.56q.12,0,.24-.24c.09.16.19.22.31.18a1.61,1.61,0,0,1,.44-.06c.57-.16,1.19-.31,1.85-.43a3.83,3.83,0,0,0,1.76-.8.68.68,0,0,0,.62-.07c.16-.13.37-.26.62-.43v.4c.16,0,.24-.2.24-.62a9.24,9.24,0,0,0,2.23,0l1.85-.24a1.73,1.73,0,0,0,1,.18,2.8,2.8,0,0,0,.81-.18l1.73.37c0,.41.17.49.5.24-.09.17-.11.28-.07.32a.24.24,0,0,1,.07.18.11.11,0,0,0,.09.13h0c0,.08.08.12.25.12a.1.1,0,0,0,.12-.08h0a1.5,1.5,0,0,0,.31.55.52.52,0,0,1,.06.56,2.23,2.23,0,0,1-1.11.18,2,2,0,0,0-.87.07q0,.24.12.24a.38.38,0,0,1,.27.08,2,2,0,0,1-1.37.25c-.5-.09-.83.16-1,.74a20.83,20.83,0,0,0-2.06.55,9.85,9.85,0,0,1-2.29.43,1.11,1.11,0,0,0-.37.62,1.2,1.2,0,0,0-1.17-.12,6.59,6.59,0,0,1-1.05.38,5.06,5.06,0,0,0-2,.61,6.79,6.79,0,0,1-2,.74l-9.77,3.84-2.11,1A4.55,4.55,0,0,0,393,73.31a5.83,5.83,0,0,1-.81,2.6,5.22,5.22,0,0,0-.8,2.22c-.42.08-.69.25-.75.49a6.68,6.68,0,0,1-.37.87c.17,0,.23-.1.19-.31s0-.23.18-.06c-.16.42-.37.89-.62,1.42A3.73,3.73,0,0,1,389,82c.33.09.33.23,0,.44s-.37.43-.12.68a3.32,3.32,0,0,0-.62.44c-.24.2-.29.39-.12.55-.17,0-.25.11-.25.31s-.12.23-.37.06c.17.25.17.42,0,.5s-.16.21,0,.37a10.11,10.11,0,0,0-1.29,1.55c-.38.53-.77,1-1.18,1.54q-.14.12.06.06c.12,0,.14,0,.06.19a45.56,45.56,0,0,1-3.52,3.43,12.72,12.72,0,0,1-4.39,2.4c.08-.16,0-.2-.31-.12s-.43.08-.43,0a.2.2,0,0,1,.19-.19h.06a.65.65,0,0,0,.49-.07c-.25-.41-.54-.53-.87-.37a2,2,0,0,1-.87.25c0,.25,0,.37-.12.37v-.25a4.22,4.22,0,0,0-1,.13,2.25,2.25,0,0,1-1.23-.13.13.13,0,0,0-.13.1h0q0,.12-.24.12a7.29,7.29,0,0,1-6.8-3.16c-.16.08-.27.06-.31-.06s-.14-.15-.31-.06c-.16-.17-.18-.29-.06-.37s.15-.3.06-.62c-.16.32-.32.44-.49.37s-.33,0-.49.25c-.25-.25-.23-.42.06-.5s.31-.24.06-.49c-.08-.17-.14-.17-.19,0s-.06.07-.06-.26a3.47,3.47,0,0,1,.31-.68c.13-.21.39-.31.8-.31a3.14,3.14,0,0,1,.75-2.47.79.79,0,0,1-.07.37,1.15,1.15,0,0,0-.06.37,2,2,0,0,0,1-1.17,13.52,13.52,0,0,0,.61-2.06c.42.25.7.21.87-.12A.59.59,0,0,1,369.21,83Zm1-1c0-.41,0-.62.12-.62,0,.43,0,.65-.12.65Zm9.4-2.11a.26.26,0,0,1-.07.19.33.33,0,0,0-.06.19,9.27,9.27,0,0,0-2.1,2,19.15,19.15,0,0,1-2.1,2.22c0,.33-.09.41-.25.25-.08.17-.1.25-.06.25s.06,0,.06.12a1.5,1.5,0,0,0-1,.87.39.39,0,0,0-.37.24,4.21,4.21,0,0,1-1.3,1.42,2.75,2.75,0,0,0-1.05,1.79c.16.09.25.19.25.31a.42.42,0,0,0,.13.32c1-.34,1.91-.69,2.77-1.06l2.67-1.17c-.09-.33-.09-.52,0-.56s.12-.14.12-.31a25.61,25.61,0,0,0,4.45-5,36.18,36.18,0,0,0,3.43-6.18L385,75.7c-.9.66-1.77,1.36-2.6,2.1a19.41,19.41,0,0,1-2.81,2.13Zm-2.35,14.48a1.88,1.88,0,0,0,1-.86.85.85,0,0,1-.56.25c-.2,0-.35.24-.45.65Z"/><path class="cls-1" d="M465,73.63a1.09,1.09,0,0,0-1.12.55c-.32.46-.68.9-1,1.31a.89.89,0,0,1,.12-.38,19.71,19.71,0,0,0-1.85,1.55c-.58.54-1.2,1.13-1.85,1.79H459v-.12c-.16.16-.35.37-.55.61a.46.46,0,0,1-.63.17h-.06a2.84,2.84,0,0,0-.93.86,1.3,1.3,0,0,1-.8.63c-.32.32-.65.63-1,.92l-1.11.93c0-.08-.09-.12-.25-.12a2.68,2.68,0,0,1-1.6.74,17.89,17.89,0,0,0-2.41,1.54,3.5,3.5,0,0,1-2.16.81,12.53,12.53,0,0,0-1.61.25,2.6,2.6,0,0,1-1.11,0,7.32,7.32,0,0,0-2.48.55,3.51,3.51,0,0,1-2.47.19,1.49,1.49,0,0,0-.87-.87,13.08,13.08,0,0,0-1.17-.62,1.58,1.58,0,0,1-.8-1.11,5,5,0,0,1-2-2.53,12.27,12.27,0,0,1-.68-3.84,23.49,23.49,0,0,1,.31-4.51,37.14,37.14,0,0,1,1-4.54,21.59,21.59,0,0,0-3.34,3.28c-1.07,1.27-2.15,2.49-3.22,3.64a8.35,8.35,0,0,1-1.37,1.86,16.74,16.74,0,0,1-1.49,1.37c-1.4,1.65-2.72,3.1-3.95,4.33a.24.24,0,0,1-.07.18,1.92,1.92,0,0,0-.18.31c-.69.5-1.41,1.07-2.23,1.74a16.22,16.22,0,0,1-2.53,1.66,7.17,7.17,0,0,1-2.75.81,4.26,4.26,0,0,1-2.9-1,1.68,1.68,0,0,1-1.18-.56,3.11,3.11,0,0,0-.92-.81,2.87,2.87,0,0,1-1.67-1.48,10.32,10.32,0,0,1-.43-2.59,6.45,6.45,0,0,1,.18-2.23,10.89,10.89,0,0,1,.81-2.35,16.32,16.32,0,0,1,1.85-4.39c.82-1.37,1.61-2.62,2.35-3.77,1.4-1.89,2.82-3.65,4.27-5.25s2.95-3.2,4.51-4.77a10.51,10.51,0,0,0,1.55-1,6.84,6.84,0,0,1,1.79-1,1.35,1.35,0,0,0,1.37-.31c.49-.38.9-.27,1.23.31A12.78,12.78,0,0,1,432,57.6a5.32,5.32,0,0,1,2.74,3.21c.58-.41,1.12-.78,1.61-1.11A5.73,5.73,0,0,1,438,59a1.2,1.2,0,0,0,.62-.49c.16-.25.33-.37.49-.37a2.87,2.87,0,0,1,2.29.49,16.55,16.55,0,0,0,2.06,1.24.28.28,0,0,1,.31-.07.87.87,0,0,0,.55-.06l.37.56a2.77,2.77,0,0,1,.26.55,12.08,12.08,0,0,1-.56,4.81,21.75,21.75,0,0,1-1.79,4.32q-.49,2.85-1.38,6.18a10.82,10.82,0,0,0-.12,5.81,18.61,18.61,0,0,0,7.23-2.17c1.93-1.11,3.88-2.2,5.87-3.27.75-.58,1.43-1.07,2.06-1.49A9,9,0,0,0,458,73.4a.33.33,0,0,1,.25.12v.12a5.91,5.91,0,0,0,2.47-1.54c1.25-1,2.49-2.11,3.78-3.22s2.47-2.06,3.58-2.9,1.75-1.12,1.92-.87a.47.47,0,0,0,.62.06.66.66,0,0,1,.61-.06c.09.17.11.3.07.37a.2.2,0,0,0,.06.25v-.27c.08,0,.08.11,0,.32l-.25.62a1.16,1.16,0,0,1-.25.43c-.08.08-.08,0,0-.25l-.55.56-.56.55a6.41,6.41,0,0,0-.31.87,4,4,0,0,1-.31.86.74.74,0,0,1-.5-.12,1.49,1.49,0,0,1-.68.86,1.76,1.76,0,0,0-.69,1c-.16,0-.33.2-.49.62ZM431.29,63a7.49,7.49,0,0,0-.94-2.75c-.46-.74-1.26-.82-2.41-.25l-2,2.23a1.62,1.62,0,0,1-.63.56,2.59,2.59,0,0,0-.61.43,3.37,3.37,0,0,0-.5.69,8.15,8.15,0,0,1-.61.92l-1.73,2a36.61,36.61,0,0,0-2.66,3.89c-.87,1.44-1.63,2.82-2.29,4.12a5.09,5.09,0,0,1-.62,1.12,4.2,4.2,0,0,0-.62,1.48c-.17-.08-.25-.06-.25.06s0,.14-.12.06a6,6,0,0,1-.88,2.32,4.38,4.38,0,0,0-.62,2.42c.66-.42,1.36-.83,2.1-1.24a7.77,7.77,0,0,0,1.86-1.37q3.58-3.43,6.86-7.23t6.5-7.73a2,2,0,0,0,.62-.69,1,1,0,0,1,.61-.55v-.25A1.65,1.65,0,0,0,431.29,63Z"/><path class="cls-1" d="M504.73,67.08a.69.69,0,0,0,.5-.25.9.9,0,0,0,.25-.62c.16.08.37,0,.61-.31a2.16,2.16,0,0,0,.5-.93,2.08,2.08,0,0,1,.55-.12,1.29,1.29,0,0,0,.56-.25v.25a6.85,6.85,0,0,1,1.55-1,1.88,1.88,0,0,0,1.05-1.11c.08.08.39,0,.92-.25a13.8,13.8,0,0,0,1.61-.86c.53-.33,1.06-.69,1.55-1s.74-.54.74-.63a.8.8,0,0,0,.49-.18.44.44,0,0,1,.5-.06,3.47,3.47,0,0,1,2.47-1.11,3.76,3.76,0,0,0,2.47-1c.17.58.13.84-.12.8s-.49.15-.74.56a.81.81,0,0,0,.69-.25c.12-.16.31-.16.55,0,0,.08-.16.12-.49.12v.52l-.25-.25c-.16,0-.18.08-.06.25a.44.44,0,0,1,.06.49c-.16-.07-.23-.14-.18-.18a.33.33,0,0,0,.06-.19c-.33.08-.39.27-.19.56s.39.35.56.18a.63.63,0,0,1-.42.79h-.08c-.41.13-.57.52-.49,1.18a4.62,4.62,0,0,0-2.23,1.11,1.89,1.89,0,0,0-1.42.8,4.59,4.59,0,0,1-1.42,1.17.2.2,0,0,1-.12.19c-.09,0-.09.15,0,.31a3.34,3.34,0,0,0-.84.43c-.5.29-1,.57-1.61.86a15.73,15.73,0,0,0-1.55.87,6.3,6.3,0,0,0-.8.55V68.2a.83.83,0,0,0-.37.37,1.85,1.85,0,0,1-.25.37c-.17-.24-.43-.24-.8,0a1.46,1.46,0,0,0-.69.87v-.13a8,8,0,0,0-.8.94,2,2,0,0,1-.93.68c-.08,0-.12-.12-.12-.37-.33,0-.5.29-.5.87a2.1,2.1,0,0,0-1.05.55,11.62,11.62,0,0,0-.93,1.05l-.12-.62a1.38,1.38,0,0,1-.25.5c-.08.08-.08.2,0,.37-.16-.17-.33-.08-.49.25s-.33.41-.5.24a3.35,3.35,0,0,1-1.42,1.37,2.71,2.71,0,0,0-1.29,1.38c-.09-.17-.22-.19-.38-.06a3.43,3.43,0,0,0-.5.43c-.49.49-.69.74-.61.74a1,1,0,0,0-.87.86c-.16-.16-.41-.06-.74.31a5.17,5.17,0,0,0-.74,1.06c-.08,0-.12,0-.12-.13a.56.56,0,0,0-.5.56c0,.29-.2.43-.61.43a2.38,2.38,0,0,1-1.18,1.24,1.8,1.8,0,0,0-1.05,1.11.42.42,0,0,0-.31.06.26.26,0,0,1-.19.06,28.87,28.87,0,0,1-3.71,4.33,1.34,1.34,0,0,1-.12,1,7.43,7.43,0,0,1-.19,1.24,1.43,1.43,0,0,1-.8,1.11,1,1,0,0,1,0,1,2.13,2.13,0,0,0-.25,1.11.49.49,0,0,0-.49.25.52.52,0,0,1,.07.73h0l-.06.06c-.25.29-.33.51-.25.69h-.24v.24c0,.08,0,.13.06.13s.06,0,.06-.13a2.29,2.29,0,0,1-.19,1,2.17,2.17,0,0,0-.18,1c-.08.08-.12,0-.12-.13V97a5.27,5.27,0,0,0-.57.68,2.92,2.92,0,0,0-.43.93.9.9,0,0,0,.43-.62.6.6,0,0,1,.44-.49,5.74,5.74,0,0,1-.12,1.17,1.14,1.14,0,0,1-.75.8v.25c-.25,0-.43.17-.56.5a4.29,4.29,0,0,0-.24,1,4.31,4.31,0,0,1-.25,1,1,1,0,0,1-.55.62,4.75,4.75,0,0,1-.31,1.67,2.31,2.31,0,0,1-.93,1.18c0,.08.12.12.37.12a7.93,7.93,0,0,0-.62,1,1.56,1.56,0,0,1-.74.74c-.08.33-.08.51,0,.55a.26.26,0,0,1,.13.19,2.33,2.33,0,0,0-.5.31c-.17.12-.21.35-.12.68-.09-.08-.15,0-.19.13a.29.29,0,0,0,.17.36h0c0-.25.06-.31.18-.19s.23,0,.31-.31c.17.16.14.28-.06.37s-.23.2-.06.37a1.6,1.6,0,0,0-1.12.87c.25,0,.49-.21.75-.62a1.52,1.52,0,0,1-.87,1,1.25,1.25,0,0,0-.74,1.11q0,.12.06.12c.06,0,.06,0,.06.13h.25l.12-.13c-.16-.16-.18-.28-.06-.37a.93.93,0,0,0,.31-.37c.16.17.27.21.31.13a.19.19,0,0,1,.18-.13c0,.33-.12.5-.37.5q-.12.12.06.12c.13,0,.15.08.06.25a1.45,1.45,0,0,0-1.17,1.17c-.12.62-.27,1.22-.43,1.8a1.3,1.3,0,0,0-.69.18c-.2.13-.22.27-.06.43.17,0,.25,0,.25-.12s.08-.16.25-.25c.16.25.1.5-.19.75a1.07,1.07,0,0,0-.43.86c-.17,0-.29.14-.37.43a.56.56,0,0,1-.62.43c.25.69.16,1.07-.25,1.25s-.54.41-.37.74c-.17,0-.27,0-.31.12a.2.2,0,0,1-.19.12c.08.17.13.21.13.13a.4.4,0,0,1-.19.37.93.93,0,0,0-.31.37c.17,0,.25,0,.25-.13s.08,0,.25.13c0,.16-.07.22-.19.18s-.27,0-.43.19a7.46,7.46,0,0,1-1.1,2.27.15.15,0,0,0,0,.21h.12a.91.91,0,0,1-.62.38c-.33.07-.41.32-.24.74a.38.38,0,0,0,.24-.13c.09-.08.13,0,.13.13a3,3,0,0,0-.93.8,10.89,10.89,0,0,1-.8,1h.12a10.44,10.44,0,0,0-1.86,2.74h-.37a20.35,20.35,0,0,1-2,2.35,31.31,31.31,0,0,1-2.36,2.1H464a.72.72,0,0,1-.43.37,1.3,1.3,0,0,0-.56.62l-1.23.37a8.6,8.6,0,0,1-1,.25l-1.86-.25a6.27,6.27,0,0,0-1.73,0,6.58,6.58,0,0,0-1.73-.55,9.27,9.27,0,0,1-1.86-.56.83.83,0,0,1-.92-.31,1,1,0,0,1-.06-1,.74.74,0,0,0,.24.5l.25.24c.16,0,.25-.17.25-.49,0-.09-.13-.13-.37-.13a5.17,5.17,0,0,0,.12-1.11v-1.06H453a39.7,39.7,0,0,1,1.54-5.68c.62-1.73,1.26-3.43,1.92-5.07.16,0,.21.06.12.18a.82.82,0,0,0-.12.43,3.11,3.11,0,0,0,1-1.85,8.34,8.34,0,0,1,1.73-3.59,6.58,6.58,0,0,1-.87,2.1,4.67,4.67,0,0,0-.62,2.48.73.73,0,0,0,.19-.37.3.3,0,0,1,.31-.25,1,1,0,0,1-.19.62,2.4,2.4,0,0,0-.31.86c.17-.24.35-.53.56-.86s.19-.58-.06-.74c.42-1,.9-2,1.42-3a11.77,11.77,0,0,0,1.06-2.75c.32-.08.49-.37.49-.86a1,1,0,0,1,.49-1V112c.17-.08.21-.32.13-.74a1.25,1.25,0,0,1,.12-1c.08-.09.08,0,0,.18s0,.31.12.31c.17-.49.29-.74.37-.74v.12c.74-.08,1.24-.61,1.49-1.61.16.08.32-.15.49-.69a1.91,1.91,0,0,1,.62-1,2.55,2.55,0,0,1-.93,1.86,1.72,1.72,0,0,0-.69,1.73,13,13,0,0,0-1.85,3c-.49,1.11-1,2.26-1.49,3.43l1.43-2.6c.45-.83.89-1.69,1.3-2.6a1.19,1.19,0,0,0,.49-.55,4.88,4.88,0,0,0,.25-1c.16.16.22.21.18.12s0-.12.19-.12a5.26,5.26,0,0,1,1-1.74,4.21,4.21,0,0,0,.93-2.1,3.81,3.81,0,0,1,.43-.37.86.86,0,0,0,.31-.37,1,1,0,0,0,.37-.5,2.31,2.31,0,0,1,.19-.56,8.83,8.83,0,0,0-1.05,1.24,5.71,5.71,0,0,0-.69,1.23h.12v.25c-.33-.17-.39-.33-.19-.49a.75.75,0,0,0,.32-.62l-.25.49a.52.52,0,0,1,.06-.55.49.49,0,0,1,.43-.31,2,2,0,0,1,.75-1.18,1.49,1.49,0,0,0,.61-1,1.52,1.52,0,0,1,.25-.93,2.18,2.18,0,0,0,.37-.92.58.58,0,0,0,.79-.21v0a.35.35,0,0,0,.06-.14,5.33,5.33,0,0,1,.62-1.12,1.94,1.94,0,0,1-.68,1.86,2.77,2.77,0,0,0-1.05,1.6,2.67,2.67,0,0,0,1-1,4.48,4.48,0,0,1,1.12-1.29,6.1,6.1,0,0,1-1.3,1.72,4.34,4.34,0,0,0-1.17,2.11q0,.11.12,0c.08.16.08.26,0,.31s-.08.14,0,.31a3.77,3.77,0,0,0,.25-.87V105l1-1.25a.91.91,0,0,1,.81-1h.06c0-.09.08-.21.25-.37.08.16.19.16.3,0a.93.93,0,0,0,.19-.62c-.08-.17-.12-.1-.12.18s-.13.4-.37.31a3.11,3.11,0,0,0,.49-1,1.13,1.13,0,0,1,.75-.75,1.57,1.57,0,0,0,.37-.55.5.5,0,0,1,.49-.32,1.87,1.87,0,0,1-.43.5.59.59,0,0,0-.19.5,3.36,3.36,0,0,0,.81-.87,4.17,4.17,0,0,1,.92-1c-.49-.08-.61-.25-.37-.49a.12.12,0,0,1-.12-.1h0a1.59,1.59,0,0,0-.56.62,6.93,6.93,0,0,1-.43.75.58.58,0,0,1,.17-.8h0a1,1,0,0,0,.39-.83,5.27,5.27,0,0,0-.49.74.55.55,0,0,1,.12-.61.81.81,0,0,0,.25-.62,3.91,3.91,0,0,0,1.67-1.79,19.77,19.77,0,0,1,1.18-2.17.93.93,0,0,1-.38,1,.93.93,0,0,0-.37,1,.58.58,0,0,0-.37.62,4.72,4.72,0,0,1-.86.87,2.2,2.2,0,0,0-.75,1h.13a4.88,4.88,0,0,0,1.17-1l.93-1.17a2.6,2.6,0,0,1-.74,1.37,3.43,3.43,0,0,0-.87,1.61,1.32,1.32,0,0,0,.8-.8.77.77,0,0,1,.81-.56,2.4,2.4,0,0,1,.55-1,8.12,8.12,0,0,0,.69-.86c.07,0,.2-.08.37-.25v.12c.33,0,.49-.21.49-.62a16.59,16.59,0,0,0,2.16-2.35A11.81,11.81,0,0,1,481,90a8.39,8.39,0,0,1,.06-1,3.15,3.15,0,0,1,.31-1,2.85,2.85,0,0,0-1.05,1.3,7,7,0,0,0-.57,1.55c-.16-.25-.35-.25-.55,0a1.05,1.05,0,0,0-.31.62.44.44,0,0,0-.43-.06.29.29,0,0,0-.31.3c-.17-.16-.1-.3.18-.43s.44-.27.44-.43a1.7,1.7,0,0,0-.93.8,3,3,0,0,1-.8.93c.16.16.31.16.43,0a5.15,5.15,0,0,1,.43-.5,1.21,1.21,0,0,1-.37.44,1.15,1.15,0,0,0-.37.68c0-.08.12-.08.37,0a.22.22,0,0,1-.19.25h-.06c-.16,0-.2.08-.12.25l-.12-.13a.5.5,0,0,0-.5.37v-.49c-.08,0-.12.08-.12.25s-.16.2-.49.12a1.82,1.82,0,0,1,.18-.86l.31-.62a.79.79,0,0,1,.34-1.06.75.75,0,0,1,.24-.08.3.3,0,0,1-.25.31c-.16,0-.21.22-.12.55a3.65,3.65,0,0,0,1.17-1.3,6.08,6.08,0,0,1,1.05-1.42c.16,0,.25,0,.25.12a1,1,0,0,0,.61-.86,3.15,3.15,0,0,1,.38-1.24c.17-.08.25,0,.25.37a2.56,2.56,0,0,0,1.11-1.66,18.24,18.24,0,0,1,.37-1.93l1.3-4.69c.45-1.66.88-3.3,1.27-4.93-.74.67-1.44,1.35-2.1,2.06a20.59,20.59,0,0,1-2.22,2.06,1.7,1.7,0,0,1-1,1.48,29.38,29.38,0,0,1-3.34,3.71,44.46,44.46,0,0,1-3.7,3,28.15,28.15,0,0,0-3.3,1.17,6.09,6.09,0,0,1-3.58.31,7.88,7.88,0,0,1-1.49-.49c-.57-.25-1.11-.46-1.6-.62a5.09,5.09,0,0,1-2.48-2,2.9,2.9,0,0,0-.49-1.61A17.54,17.54,0,0,1,459,81.3a3.71,3.71,0,0,1,.61-2.22,21.86,21.86,0,0,1,3.58-7.92c1.64-2.23,3.17-4.5,4.57-6.81,1-1,1.94-2,2.85-3a17.81,17.81,0,0,1,3.09-2.79,8,8,0,0,1,2.6-1.85,2.35,2.35,0,0,1,1.72-.25c.09,0,.21-.08.38-.24,1.31.24,2.62.43,3.89.55a5.47,5.47,0,0,1,3.65,2.53,3.5,3.5,0,0,1,2,1.12,5.36,5.36,0,0,0,1.48-1,6.65,6.65,0,0,1,2.13-1.29,3.53,3.53,0,0,0,1.92.74,2.86,2.86,0,0,1,1.92,1,11.41,11.41,0,0,1-.39,4c-.42,1.78-.71,3.24-.87,4.39-.33,1.15-.62,2.4-.87,3.71a16.88,16.88,0,0,1-1,3.43,15.58,15.58,0,0,0,2.6-1.79c.83-.7,1.69-1.39,2.6-2.06l.24.24a19.82,19.82,0,0,1,2.3-1.67,12.83,12.83,0,0,0,2.29-1.79,1,1,0,0,1,.49.12c.08-.08.11-.12.06-.12s0-.08.07-.25a1.23,1.23,0,0,0,1.18-.49q.56-.62,1.05-1.11c.16.08.14.14-.07.18a.36.36,0,0,0-.34.38Zm-51.44,65.41a2.1,2.1,0,0,0-.13.74.59.59,0,0,0,.31-.43c.06-.21,0-.31-.18-.31Zm2.74-8.16a1.24,1.24,0,0,1,.25-.81,1.45,1.45,0,0,0,.24-.93c-.16.33-.33.64-.49.93A.71.71,0,0,0,456,124.33Zm.49-1.86c.17.08.25,0,.25-.18s-.08-.31-.25-.31Zm3,5a8.92,8.92,0,0,1-.56,2.1,2,2,0,0,0,.19,2c.33.16.53.16.61,0a.83.83,0,0,1,.37-.37,2.73,2.73,0,0,1,.81-.74,3.37,3.37,0,0,0,.69-.5c.33-.57.53-.86.62-.86.57-.17.9-.42,1-.75A.88.88,0,0,1,464,128v-.49a1.76,1.76,0,0,1,.49-.37l.49-.25a20.16,20.16,0,0,1,2.27-3.57,14.35,14.35,0,0,0,2.16-3.71,1.3,1.3,0,0,0,.57-.87,1,1,0,0,1,.43-.74c0-.08,0-.12.06-.12s.06-.09.06-.25A13.53,13.53,0,0,0,471.9,115c.37-.87.81-1.76,1.3-2.66a9.87,9.87,0,0,1,1.23-3.28,8.67,8.67,0,0,0,1.12-3.43,1.56,1.56,0,0,0,.56-.92c.12-.46.27-1,.43-1.68a24.76,24.76,0,0,0,1.11-2.9,20.13,20.13,0,0,1,1.11-2.78,1.06,1.06,0,0,0-.8.49,1.59,1.59,0,0,1-.56.62c0-.17,0-.25-.12-.25l-.25.5a.49.49,0,0,1-.49.24,20,20,0,0,1-1.61,2.06,9.94,9.94,0,0,0-1.37,1.91c-.17-.08-.29,0-.37.19a1.28,1.28,0,0,1-.62.55v.56c0,.21-.08.32-.25.32a.43.43,0,0,0,.13-.26.5.5,0,0,0-.13-.37,6.67,6.67,0,0,1-1.05,1.43,6.39,6.39,0,0,0-1,1.42l-.25-.12a9.11,9.11,0,0,0-1.17,2,21.68,21.68,0,0,1-1.05,2.17c0-.41-.07-.49-.19-.25l-.31.62v-.12h-.12a5.76,5.76,0,0,1-.74,1.73,5.21,5.21,0,0,0-.74,1.73.16.16,0,0,1-.24,0h0a4.39,4.39,0,0,1-.87,2.1v-.12a.37.37,0,0,0-.12-.25,6,6,0,0,1-.93,1.67,5.44,5.44,0,0,0-.93,1.92c0-.17,0-.25-.12-.25a37.13,37.13,0,0,0-2.1,6.06c-.16,0-.23,0-.19-.12s0-.09-.19,0l-.37,1.6a.22.22,0,0,1-.06.19.23.23,0,0,0-.06.18Zm0-.13.12-.12q0,.12-.06.12c-.06,0-.06,0-.06.13ZM460.1,117a.85.85,0,0,0-.24.62.39.39,0,0,0,.12-.31.47.47,0,0,1,.11-.26Zm25.61-56a6.69,6.69,0,0,0-4,.43,16.87,16.87,0,0,0-3.22,1.79,21.93,21.93,0,0,0-3.09,2.6,28.44,28.44,0,0,0-2,2.25,28.16,28.16,0,0,1-2,2.23l-.55.56-.44.43a.39.39,0,0,0-.12.31.44.44,0,0,1-.13.31c-.17.16-.29.25-.37.25a.33.33,0,0,0-.25.12A28.07,28.07,0,0,0,467.39,76c-.67,1.33-1.33,2.69-2,4.08a8.92,8.92,0,0,0-.56,2.1,8.25,8.25,0,0,0-.06,2.22,10.2,10.2,0,0,0,1.92-.68,12.94,12.94,0,0,0,1.67-.93,27.31,27.31,0,0,1,3-2.59c.91-.92,1.83-1.78,2.74-2.6s1.88-1.69,2.79-2.6a3.13,3.13,0,0,0,1.23-1.11,11.31,11.31,0,0,1,1-1.37c1.07-1.16,2.15-2.29,3.22-3.43a25.42,25.42,0,0,0,3-3.78,2.71,2.71,0,0,1,.43-2,7,7,0,0,0,.93-1.73.48.48,0,0,1-.56-.12,4.28,4.28,0,0,0-.4-.45Zm-20.17,45.77c.07,0,.07,0,0,.13Zm1.11-.49c0-.17,0-.25-.06-.25s-.07,0-.07-.12c-.08.16-.18.35-.3.55s-.11.35.06.44l1-1.12a.28.28,0,0,0-.31.19.59.59,0,0,1-.31.31Zm2-1.73c.09.07.13.07.13,0V104c-.08-.08-.15,0-.19.18s0,.35.08.35Zm1.61-3.09c.25,0,.38,0,.38-.13s.07-.2.24-.37c-.24,0-.39,0-.43.13S470.34,101.28,470.26,101.46ZM475.68,95a.24.24,0,0,1-.07.18.26.26,0,0,0-.06.19h-.12C475.43,95.29,475.5,95.17,475.68,95Zm.12-.13-.12.13Zm.12.13.13-.13Zm.62-2.85a.1.1,0,0,0-.12.08h0a.37.37,0,0,0,.12-.24Zm1.37,21.77-.12.24h.12Q478.14,113.92,477.91,113.92Zm0-19.17.56-.56a.88.88,0,0,0,.31-.56c-.17.17-.37.35-.62.56s-.34.4-.26.57Zm2-2.35a.38.38,0,0,0,.25-.13c.08-.08,0-.2-.13-.37,0,.17,0,.25,0,.25s-.08.09-.08.25ZM499.05,75a.52.52,0,0,0,.44-.25c.13-.16.1-.24-.06-.24,0,.08-.06.15-.18.18A.3.3,0,0,0,499,75Zm.75-.49a1.07,1.07,0,0,0,.87-.62.86.86,0,0,0-.88.65Zm3.34-3.71c.16.17.24.08.24-.25s0-.41-.12-.25a.26.26,0,0,1-.06.19.51.51,0,0,0-.08.32Zm.37-.75c-.09,0-.13.11-.13.31a.62.62,0,0,0,.13.44,3.76,3.76,0,0,1,.31-.5c.11-.15,0-.24-.33-.24Zm.62-.37c0,.09-.06.17-.19.25s-.1.21.06.37a1.85,1.85,0,0,1,.25-.37c.08-.08.13,0,.13.37a1.6,1.6,0,0,0,1-.74,1.76,1.76,0,0,1,.61-.74v-.37a2,2,0,0,0-.8.68,1.29,1.29,0,0,1-1.06.56Zm2.1-1.6c.08.08.08.18,0,.31s0,.18.12.18a.42.42,0,0,1,.44.31c.13.31.18.31.18.06-.16,0-.29-.12-.37-.37a.81.81,0,0,0-.38-.49Zm3.84-1.85c.08,0,.2-.09.37-.25s.12-.29-.13-.38c-.26.26-.34.47-.26.63ZM516.49,62c0,.25-.18.39-.55.43s-.52.23-.43.56a2.84,2.84,0,0,1,.74-.5c.32-.16.39-.32.23-.48Z"/><path class="cls-1" d="M556.79,71.16q.24.38-.87,1.23a24.74,24.74,0,0,0-2.22,2,7.75,7.75,0,0,0-1.12.86,5.26,5.26,0,0,0-1,1l-.75.62-2.09,1.6-1,.62L546,80.19c-1.37.9-2.74,1.77-4,2.59A21.64,21.64,0,0,1,537.5,85a1.62,1.62,0,0,0-.43.12c-.21.08-.44.17-.69.25s-.62.16-.86.25a1.86,1.86,0,0,0-.87.18,2.29,2.29,0,0,1-1,.19c-.08,0,0-.09.13-.25l-1,.19a2,2,0,0,0-.86.43.5.5,0,0,0-.68,0v0a.63.63,0,0,1-.8.06.62.62,0,0,1-.74.25.88.88,0,0,0-.87.24q-.26-.12-.12-.18c.09,0,0-.1-.12-.19a2.31,2.31,0,0,1-.94.07,1.87,1.87,0,0,0-1.17.3c-.25-.16-.43-.2-.55-.12s-.4,0-.81-.12L525,87a9,9,0,0,0-2.74-.24,3.89,3.89,0,0,1-.75-.25.4.4,0,0,0-.49.12c-.91-.16-1.76-.35-2.54-.55a16.32,16.32,0,0,1-2.53-.93,7.66,7.66,0,0,1-2.6-1.79,27,27,0,0,1-2.1-2.54,8.5,8.5,0,0,1-.74-1.73c-.16-.58-.33-1.11-.49-1.61a6.6,6.6,0,0,1,0-3.58c.16-.92.43-2.16.8-3.72a10.3,10.3,0,0,1,1.91-4.07l2.88-3.23,1.86-2.48c.68-.49,1.19-.9,1.61-1.23a12.93,12.93,0,0,0,1.48-1.48A5.4,5.4,0,0,1,522,56.62a5.68,5.68,0,0,0,1.48-1,11.53,11.53,0,0,0,1.74-1.37c.6-.42,1.21-.81,1.85-1.17a8.49,8.49,0,0,1,1.86-.8,1.76,1.76,0,0,1,1-.25,1.76,1.76,0,0,0,1-.25l.49-.25a1.49,1.49,0,0,1,.62-.12A5.35,5.35,0,0,0,533.73,53a5.4,5.4,0,0,1,1.67,1.66,1.24,1.24,0,0,1,1,.87,1.87,1.87,0,0,0,.74,1.12,3.62,3.62,0,0,1,.06,1.73,6.46,6.46,0,0,1-.7,1.62.7.7,0,0,0-.24.49,1.09,1.09,0,0,1-.13.5,2.37,2.37,0,0,1-.8,1,6.22,6.22,0,0,0-1.05,1,2,2,0,0,0-.43.74,9.71,9.71,0,0,1-.43,1L532.17,66c-.49.5-.95,1-1.37,1.48a3.4,3.4,0,0,1-1.54,1.24,3.73,3.73,0,0,0-1.55,1.11.83.83,0,0,0-.37.75,12.83,12.83,0,0,1-2.29,1.79,12.83,12.83,0,0,0-2.29,1.79,9.68,9.68,0,0,0-3.64,1.49,4.88,4.88,0,0,1-3.9.61c-.17.09-.18.17-.06.25a1,1,0,0,0,.56.13c-.25.41-.27.72-.06.92a1.83,1.83,0,0,1,.43.69,14.49,14.49,0,0,0,2.34,1.86,7.83,7.83,0,0,0,3,1.11,14.86,14.86,0,0,0,8.66.12c.92-.16,1.76-.33,2.53-.49a19.59,19.59,0,0,0,2.79-.87A30.84,30.84,0,0,0,539,78.45l1.6-.74c.25-.16.39-.23.43-.19a.07.07,0,0,1,0,.1h0a.14.14,0,0,0-.06.12.73.73,0,0,0,.37-.18l3.22-1.49c.91-.68,1.65-1.18,2.22-1.55s1.44-1,2.6-1.91c.24-.2.49-.38.74-.56l1.3-.92,1.3-.93a8,8,0,0,1,.87-.56l1.23-1.23c1-.66,1.83-1.22,2.53-1.67s1.22-.76,1.55-.93a2,2,0,0,1,.5,1c.08.46.24.69.49.69-.49.74-.84,1.29-1,1.66a8.3,8.3,0,0,1-.49.81,1.87,1.87,0,0,1-.5.43ZM530.58,57.31c-.25.16-.54.37-.87.62s-.62.45-.86.61c-.34,0-.54.09-.63.25a3.7,3.7,0,0,0-.43.25,3.62,3.62,0,0,1-.43.24l-1,.74a4.3,4.3,0,0,1-1.23.93,7.77,7.77,0,0,0-1.24.81,8.35,8.35,0,0,1-1.43,1.54A9.08,9.08,0,0,0,521,64.85,7.8,7.8,0,0,0,518.83,67c-.92.92-1.74,1.8-2.47,2.66a11.36,11.36,0,0,0-1.73,2.66A14.52,14.52,0,0,0,519.08,70q2.1-1.6,4.44-3.34L525,65.36a7.7,7.7,0,0,0,1.37-1.48,12,12,0,0,0,2.54-2.06A23.23,23.23,0,0,0,531.33,59a6.41,6.41,0,0,1,.56-1.11,1,1,0,0,0,.06-1,4,4,0,0,0-.69.06A1.09,1.09,0,0,0,530.58,57.31Z"/></svg>