<svg id="Layer_1" data-name="Layer 1" xmlns="http://www.w3.org/2000/svg" viewBox="0 0 88 43"><defs><style>.cls-1{fill:#b27652;}</style></defs><title>Navbar Logo</title><path class="cls-1" d="M25.59.08V.2c-3.08,1.51-4,3.2-5,7.18L13.7,35a14,14,0,0,0-.6,3.68,3.7,3.7,0,0,0,2,3.5v.12H0V42.2C3,40.69,4,39,5,35L11.89,7.38a17.75,17.75,0,0,0,.6-3.68,3.8,3.8,0,0,0-2-3.5V.08Z"/><path class="cls-1" d="M35.73,12c5.25,0,8.93,2.17,8.93,5.55a3.85,3.85,0,0,1-4.1,3.92,4.08,4.08,0,0,1-3.26-1.39c1.33-.18,2.23-1.63,2.23-3.38,0-2.17-1.39-3.62-4.22-3.62-3.08,0-5.37,2.05-5.37,4.89,0,2.17,1.2,3.38,4.7,5.55,5.13,3.14,7.55,5.07,7.55,9.05,0,5.92-5.62,10.32-12.74,10.32-6.15,0-10.26-2.71-10.26-6.45a4.16,4.16,0,0,1,4.47-4.23A4.84,4.84,0,0,1,27,33.57c-1.45.12-2.47,1.51-2.47,3.44,0,2.9,2,4.89,5.37,4.89,3.5,0,6-2.18,6-5.25,0-2.24-1.51-3.68-5.13-5.8-4.22-2.41-6.88-4.64-6.88-8.69C23.84,16.55,29.15,12,35.73,12Z"/><path class="cls-1" d="M71.1,36.83c-.67,2.83,1.32,4,4.52,2.41v.12a9.14,9.14,0,0,1-7.24,3.56c-3.44,0-5.49-2.17-5.43-5.49a7.18,7.18,0,0,1,.3-1.81c-2.23,4.16-5.13,7.24-9.71,7.24-4.89,0-7.91-3.92-7.91-10C45.63,22.47,52.93,12,61.8,12c4.23,0,6.52,2.53,7.31,6a13.47,13.47,0,0,1,8.44-5.91c-1.26,3.62-2.41,8.14-3.26,11.7Zm-6.64-6.46,1.81-7.06A20.45,20.45,0,0,0,67,18.6c0-3.07-1.45-4.52-3.38-4.52-5.13,0-9.65,12.31-9.65,20,0,3.32,1.08,5.31,3.38,5.31C60.11,39.42,63.13,35.62,64.46,30.37Z"/><path class="cls-1" d="M82.87,42.8A5.19,5.19,0,1,1,88,37.61,5.1,5.1,0,0,1,82.87,42.8Z"/></svg>