<svg id="Layer_1" data-name="Layer 1" xmlns="http://www.w3.org/2000/svg" viewBox="0 0 57 57"><defs><style>.cls-1{fill:#b27652;}</style></defs><title>Twitter Navbar</title><path class="cls-1" d="M0,0V57H57V0ZM43,21c0,.33,0,.65,0,1,0,9.93-7.57,21.38-21.38,21.38A21.12,21.12,0,0,1,10.17,40a13,13,0,0,0,1.79.11,15.14,15.14,0,0,0,9.32-3.2,7.55,7.55,0,0,1-7-5.23,6.11,6.11,0,0,0,1.42.14,7.38,7.38,0,0,0,2-.26,7.52,7.52,0,0,1-6-7.37V24.1A7.45,7.45,0,0,0,15,25a7.54,7.54,0,0,1-2.31-10A21.28,21.28,0,0,0,28.2,22.84,7.35,7.35,0,0,1,28,21.13a7.5,7.5,0,0,1,7.5-7.51A7.58,7.58,0,0,1,41,16a15.07,15.07,0,0,0,4.76-1.82,7.42,7.42,0,0,1-3.3,4.15,15.46,15.46,0,0,0,4.32-1.19A14.64,14.64,0,0,1,43,21Z"/></svg>