<svg id="Layer_1" data-name="Layer 1" xmlns="http://www.w3.org/2000/svg" viewBox="0 0 68 68"><defs><style>.cls-1{fill:#404a3d;}</style></defs><title>Twitter Footer</title><path class="cls-1" d="M0,0V68H68V0ZM51.34,25.08c0,.39,0,.78,0,1.17,0,11.85-9,25.5-25.5,25.5a25.28,25.28,0,0,1-13.75-4,16.51,16.51,0,0,0,2.14.13A18,18,0,0,0,25.38,44,9,9,0,0,1,17,37.8,8,8,0,0,0,18.7,38a9.27,9.27,0,0,0,2.35-.3,9,9,0,0,1-7.17-8.8v-.11a9,9,0,0,0,4,1.1,9,9,0,0,1-2.76-12,25.41,25.41,0,0,0,18.48,9.38,8.59,8.59,0,0,1-.22-2.05,9,9,0,0,1,15.51-6.11,18,18,0,0,0,5.69-2.17,8.94,8.94,0,0,1-3.94,4.95,18.89,18.89,0,0,0,5.16-1.42A17.42,17.42,0,0,1,51.34,25.08Z"/></svg>